<svg width="24" height="24" viewBox="0 0 24 24" fill="cf2a46" xmlns="http://www.w3.org/2000/svg">
<g id="warning">
<path id="warning_2" d="M2.79072 21.1016C2.57951 21.1016 2.38876 21.0492 2.21847 20.9444C2.04821 20.8395 1.91577 20.7014 1.82117 20.5299C1.72587 20.3599 1.67406 20.1753 1.66572 19.976C1.65739 19.7767 1.70921 19.5822 1.82117 19.3924L11.0054 3.49995C11.1174 3.30937 11.2637 3.16743 11.4443 3.07413C11.625 2.98085 11.8104 2.9342 12.0006 2.9342C12.1908 2.9342 12.376 2.98085 12.5562 3.07413C12.7365 3.16743 12.8826 3.30937 12.9945 3.49995L22.1788 19.3924C22.2907 19.5822 22.3426 19.7767 22.3342 19.976C22.3259 20.1753 22.2741 20.3599 22.1788 20.5299C22.0835 20.6998 21.9509 20.8375 21.781 20.9432C21.611 21.0488 21.4204 21.1016 21.2092 21.1016H2.79072ZM4.59942 18.9163H19.4005L12 6.16735L4.59942 18.9163ZM12 17.982C12.2873 17.982 12.5308 17.8822 12.7304 17.6826C12.93 17.4829 13.0299 17.2394 13.0299 16.9521C13.0299 16.6648 12.93 16.4223 12.7304 16.2247C12.5308 16.027 12.2873 15.9282 12 15.9282C11.7127 15.9282 11.4692 16.027 11.2695 16.2247C11.0699 16.4223 10.9701 16.6648 10.9701 16.9521C10.9701 17.2394 11.0699 17.4829 11.2695 17.6826C11.4692 17.8822 11.7127 17.982 12 17.982ZM12 15C12.2833 15 12.5208 14.9041 12.7125 14.7125C12.9041 14.5208 13 14.2833 13 14V11.0657C13 10.7824 12.9041 10.5449 12.7125 10.3532C12.5208 10.1615 12.2833 10.0657 12 10.0657C11.7166 10.0657 11.4791 10.1615 11.2875 10.3532C11.0958 10.5449 11 10.7824 11 11.0657V14C11 14.2833 11.0958 14.5208 11.2875 14.7125C11.4791 14.9041 11.7166 15 12 15Z" fill="#CF2A46"/>
</g>
</svg>
