<svg width="20" height="21" viewBox="0 0 20 21" fill="none" xmlns="http://www.w3.org/2000/svg">
<g id="edit_document">
<path id="edit_document_2" d="M4.96029 19.0027C4.43552 19.0027 3.98836 18.8179 3.61879 18.4484C3.24923 18.0788 3.06445 17.6316 3.06445 17.1069V3.89311C3.06445 3.36834 3.24923 2.92118 3.61879 2.55161C3.98836 2.18204 4.43552 1.99725 4.96029 1.99725H10.8548C11.1077 1.99725 11.3488 2.04473 11.578 2.13969C11.8072 2.23465 12.0098 2.37014 12.1858 2.54617L16.1876 6.54798C16.3637 6.72401 16.4992 6.92664 16.5941 7.15586C16.6891 7.38507 16.7366 7.62613 16.7366 7.87907V10.3555H14.8407V8.05977H11.622C11.356 8.05977 11.1315 7.96829 10.9485 7.78532C10.7655 7.60234 10.6741 7.37786 10.6741 7.11186V3.89311H4.96029V17.1069H9.88058V19.0027H4.96029ZM15.0359 12.7287L16.0214 13.7092L12.9218 16.7884V17.6281H13.7617L16.8616 14.5494L17.8262 15.514L14.6125 18.7228C14.5196 18.8161 14.4152 18.8861 14.2992 18.9327C14.1832 18.9794 14.0613 19.0027 13.9336 19.0027H12.0237C11.8966 19.0027 11.7855 18.9561 11.6902 18.8628C11.5949 18.7695 11.5472 18.6573 11.5472 18.5263V16.6164C11.5472 16.4887 11.5706 16.3668 11.6172 16.2508C11.6639 16.1347 11.7338 16.0303 11.8271 15.9375L15.0359 12.7287ZM17.8262 15.514L15.0359 12.7287L16.2492 11.5154C16.4286 11.336 16.6513 11.2464 16.9173 11.2464C17.1833 11.2464 17.4043 11.336 17.5803 11.5154L19.0346 12.9696C19.2139 13.1457 19.3036 13.3667 19.3036 13.6327C19.3036 13.8987 19.2139 14.1214 19.0346 14.3007L17.8262 15.514Z" fill="#1A1A1A"/>
</g>
</svg>
