<svg width="595" height="748" viewBox="0 0 595 748" fill="none" xmlns="http://www.w3.org/2000/svg">
<g clip-path="url(#clip0_2125_2229)">
<rect width="595" height="748" fill="white"/>
<path d="M526 481.5C526 617.638 429.138 566 293 566C156.862 566 33 617.638 33 481.5C33 345.362 143.362 235 279.5 235C415.638 235 526 345.362 526 481.5Z" fill="url(#paint0_linear_2125_2229)"/>
<rect x="68.6338" y="197.021" width="217.032" height="290.853" rx="16" transform="rotate(-0.725697 68.6338 197.021)" fill="#CCCDD1"/>
<rect x="55.7029" y="181.032" width="217.032" height="290.853" rx="16" transform="rotate(-0.725697 55.7029 181.032)" fill="#EEEEEE"/>
<path d="M84.5076 217.156H239.531" stroke="#CCCDD1" stroke-width="5" stroke-linecap="round"/>
<path d="M84.1731 233.393H239.196" stroke="#CCCDD1" stroke-width="3" stroke-linecap="round"/>
<path d="M83.9297 245.202H238.953" stroke="#CCCDD1" stroke-width="3" stroke-linecap="round"/>
<g filter="url(#filter0_b_2125_2229)">
<rect x="90" y="284" width="306" height="78" rx="16" fill="white" fill-opacity="0.5"/>
<rect x="92.5" y="286.5" width="301" height="73" rx="13.5" stroke="#A8DD7C" stroke-width="5"/>
</g>
<path d="M160 308H331" stroke="#CCCDD1" stroke-width="3" stroke-linecap="round"/>
<path d="M160 323H263" stroke="#CCCDD1" stroke-width="3" stroke-linecap="round"/>
<path d="M160 338H298" stroke="#CCCDD1" stroke-width="3" stroke-linecap="round"/>
<g filter="url(#filter1_b_2125_2229)">
<rect x="220" y="429" width="306" height="219" rx="16" fill="white"/>
<rect x="222.5" y="431.5" width="301" height="214" rx="13.5" stroke="#CCCDD1" stroke-width="5"/>
</g>
<circle cx="128" cy="323" r="15" fill="#A8DD7C"/>
<path d="M122.061 321.939C121.475 321.354 120.525 321.354 119.939 321.939C119.354 322.525 119.354 323.475 119.939 324.061L122.061 321.939ZM119.939 324.061L124.939 329.061L127.061 326.939L122.061 321.939L119.939 324.061Z" fill="white"/>
<path d="M136.061 318.061C136.646 317.475 136.646 316.525 136.061 315.939C135.475 315.354 134.525 315.354 133.939 315.939L136.061 318.061ZM133.939 315.939L122.939 326.939L125.061 329.061L136.061 318.061L133.939 315.939Z" fill="white"/>
<path d="M247.625 472H243.585V458.909H247.804C249.074 458.909 250.161 459.171 251.064 459.695C251.967 460.215 252.66 460.963 253.141 461.939C253.623 462.911 253.864 464.074 253.864 465.429C253.864 466.793 253.621 467.967 253.135 468.951C252.649 469.931 251.942 470.685 251.013 471.214C250.084 471.738 248.955 472 247.625 472ZM245.17 470.594H247.523C248.605 470.594 249.502 470.385 250.214 469.967C250.925 469.55 251.456 468.955 251.805 468.184C252.155 467.413 252.33 466.494 252.33 465.429C252.33 464.372 252.157 463.462 251.812 462.7C251.467 461.933 250.951 461.344 250.265 460.935C249.579 460.522 248.724 460.315 247.702 460.315H245.17V470.594ZM260.307 472.205C259.42 472.205 258.643 471.994 257.974 471.572C257.309 471.15 256.789 470.56 256.414 469.801C256.043 469.043 255.858 468.156 255.858 467.142C255.858 466.119 256.043 465.227 256.414 464.464C256.789 463.701 257.309 463.109 257.974 462.687C258.643 462.265 259.42 462.054 260.307 462.054C261.193 462.054 261.969 462.265 262.634 462.687C263.303 463.109 263.822 463.701 264.193 464.464C264.568 465.227 264.756 466.119 264.756 467.142C264.756 468.156 264.568 469.043 264.193 469.801C263.822 470.56 263.303 471.15 262.634 471.572C261.969 471.994 261.193 472.205 260.307 472.205ZM260.307 470.849C260.98 470.849 261.534 470.677 261.969 470.332C262.403 469.987 262.725 469.533 262.934 468.97C263.143 468.408 263.247 467.798 263.247 467.142C263.247 466.486 263.143 465.874 262.934 465.308C262.725 464.741 262.403 464.283 261.969 463.933C261.534 463.584 260.98 463.409 260.307 463.409C259.634 463.409 259.08 463.584 258.645 463.933C258.21 464.283 257.888 464.741 257.68 465.308C257.471 465.874 257.366 466.486 257.366 467.142C257.366 467.798 257.471 468.408 257.68 468.97C257.888 469.533 258.21 469.987 258.645 470.332C259.08 470.677 259.634 470.849 260.307 470.849ZM271.047 472.205C270.127 472.205 269.334 471.987 268.669 471.553C268.004 471.118 267.493 470.519 267.135 469.756C266.777 468.994 266.598 468.122 266.598 467.142C266.598 466.145 266.781 465.265 267.148 464.502C267.519 463.735 268.034 463.136 268.695 462.706C269.36 462.271 270.135 462.054 271.021 462.054C271.712 462.054 272.334 462.182 272.888 462.438C273.442 462.693 273.896 463.051 274.249 463.511C274.603 463.972 274.823 464.509 274.908 465.122H273.399C273.284 464.675 273.029 464.278 272.632 463.933C272.24 463.584 271.712 463.409 271.047 463.409C270.459 463.409 269.943 463.562 269.5 463.869C269.061 464.172 268.718 464.6 268.471 465.154C268.228 465.704 268.107 466.349 268.107 467.091C268.107 467.849 268.226 468.51 268.465 469.072C268.708 469.635 269.048 470.072 269.487 470.383C269.931 470.694 270.45 470.849 271.047 470.849C271.439 470.849 271.795 470.781 272.115 470.645C272.434 470.509 272.705 470.312 272.926 470.057C273.148 469.801 273.306 469.494 273.399 469.136H274.908C274.823 469.716 274.612 470.238 274.275 470.702C273.943 471.163 273.502 471.529 272.952 471.802C272.406 472.07 271.771 472.205 271.047 472.205ZM283.301 467.986V462.182H284.809V472H283.301V470.338H283.198C282.968 470.837 282.61 471.261 282.124 471.61C281.639 471.955 281.025 472.128 280.284 472.128C279.67 472.128 279.124 471.994 278.647 471.725C278.17 471.452 277.795 471.043 277.522 470.498C277.249 469.948 277.113 469.256 277.113 468.42V462.182H278.622V468.318C278.622 469.034 278.822 469.605 279.222 470.031C279.627 470.457 280.143 470.67 280.769 470.67C281.144 470.67 281.526 470.575 281.914 470.383C282.306 470.191 282.634 469.897 282.898 469.501C283.166 469.104 283.301 468.599 283.301 467.986ZM287.572 472V462.182H289.029V463.716H289.157C289.362 463.192 289.692 462.785 290.148 462.495C290.604 462.201 291.152 462.054 291.791 462.054C292.439 462.054 292.978 462.201 293.408 462.495C293.843 462.785 294.181 463.192 294.424 463.716H294.527C294.778 463.209 295.155 462.806 295.658 462.508C296.161 462.205 296.764 462.054 297.467 462.054C298.345 462.054 299.063 462.329 299.621 462.879C300.179 463.424 300.458 464.274 300.458 465.429V472H298.95V465.429C298.95 464.705 298.752 464.187 298.355 463.876C297.959 463.565 297.493 463.409 296.956 463.409C296.265 463.409 295.73 463.618 295.351 464.036C294.972 464.449 294.782 464.973 294.782 465.608V472H293.248V465.276C293.248 464.717 293.067 464.268 292.705 463.927C292.343 463.582 291.876 463.409 291.305 463.409C290.913 463.409 290.547 463.513 290.206 463.722C289.869 463.931 289.596 464.221 289.387 464.592C289.183 464.958 289.081 465.382 289.081 465.864V472H287.572ZM307.333 472.205C306.387 472.205 305.571 471.996 304.885 471.578C304.203 471.156 303.677 470.568 303.306 469.814C302.94 469.055 302.756 468.173 302.756 467.168C302.756 466.162 302.94 465.276 303.306 464.509C303.677 463.737 304.192 463.136 304.853 462.706C305.518 462.271 306.293 462.054 307.18 462.054C307.691 462.054 308.196 462.139 308.695 462.31C309.193 462.48 309.647 462.757 310.056 463.141C310.465 463.52 310.791 464.023 311.034 464.649C311.277 465.276 311.398 466.047 311.398 466.963V467.602H303.83V466.298H309.864C309.864 465.744 309.754 465.25 309.532 464.815C309.315 464.381 309.004 464.038 308.599 463.786C308.198 463.535 307.725 463.409 307.18 463.409C306.579 463.409 306.059 463.558 305.62 463.857C305.185 464.151 304.851 464.534 304.616 465.007C304.382 465.48 304.265 465.987 304.265 466.528V467.398C304.265 468.139 304.393 468.768 304.648 469.283C304.908 469.795 305.268 470.185 305.729 470.453C306.189 470.717 306.724 470.849 307.333 470.849C307.729 470.849 308.087 470.794 308.407 470.683C308.731 470.568 309.01 470.398 309.244 470.172C309.479 469.942 309.66 469.656 309.788 469.315L311.245 469.724C311.092 470.219 310.834 470.653 310.472 471.028C310.109 471.399 309.662 471.689 309.129 471.898C308.597 472.102 307.998 472.205 307.333 472.205ZM315.202 466.094V472H313.693V462.182H315.151V463.716H315.278C315.509 463.217 315.858 462.817 316.327 462.514C316.795 462.207 317.401 462.054 318.142 462.054C318.807 462.054 319.388 462.19 319.887 462.463C320.386 462.732 320.773 463.141 321.05 463.69C321.327 464.236 321.466 464.926 321.466 465.761V472H319.957V465.864C319.957 465.092 319.757 464.491 319.357 464.061C318.956 463.626 318.406 463.409 317.707 463.409C317.226 463.409 316.795 463.513 316.416 463.722C316.041 463.931 315.745 464.236 315.528 464.636C315.31 465.037 315.202 465.523 315.202 466.094ZM328.492 462.182V463.46H323.404V462.182H328.492ZM324.887 459.83H326.396V469.188C326.396 469.614 326.458 469.933 326.581 470.146C326.709 470.355 326.871 470.496 327.067 470.568C327.267 470.636 327.478 470.67 327.7 470.67C327.866 470.67 328.002 470.662 328.109 470.645C328.215 470.624 328.301 470.607 328.365 470.594L328.671 471.949C328.569 471.987 328.426 472.026 328.243 472.064C328.06 472.107 327.828 472.128 327.546 472.128C327.12 472.128 326.703 472.036 326.294 471.853C325.889 471.67 325.552 471.391 325.284 471.016C325.019 470.641 324.887 470.168 324.887 469.597V459.83ZM342.779 464.381L341.423 464.764C341.338 464.538 341.213 464.319 341.046 464.106C340.884 463.888 340.663 463.71 340.382 463.569C340.1 463.428 339.74 463.358 339.301 463.358C338.7 463.358 338.2 463.496 337.799 463.773C337.403 464.046 337.205 464.393 337.205 464.815C337.205 465.19 337.341 465.487 337.614 465.704C337.887 465.921 338.313 466.102 338.892 466.247L340.35 466.605C341.227 466.818 341.882 467.144 342.312 467.583C342.742 468.018 342.958 468.578 342.958 469.264C342.958 469.827 342.796 470.33 342.472 470.773C342.152 471.216 341.705 471.565 341.129 471.821C340.554 472.077 339.885 472.205 339.122 472.205C338.121 472.205 337.292 471.987 336.636 471.553C335.98 471.118 335.564 470.483 335.389 469.648L336.821 469.29C336.958 469.818 337.215 470.214 337.595 470.479C337.978 470.743 338.479 470.875 339.097 470.875C339.8 470.875 340.358 470.726 340.771 470.428C341.189 470.125 341.398 469.763 341.398 469.341C341.398 469 341.279 468.714 341.04 468.484C340.801 468.25 340.435 468.075 339.941 467.96L338.304 467.577C337.405 467.364 336.744 467.033 336.323 466.586C335.905 466.134 335.696 465.57 335.696 464.892C335.696 464.338 335.852 463.848 336.163 463.422C336.478 462.996 336.906 462.661 337.448 462.418C337.993 462.175 338.611 462.054 339.301 462.054C340.273 462.054 341.036 462.267 341.59 462.693C342.148 463.119 342.544 463.682 342.779 464.381ZM349.498 462.182V463.46H344.41V462.182H349.498ZM345.893 459.83H347.402V469.188C347.402 469.614 347.463 469.933 347.587 470.146C347.715 470.355 347.877 470.496 348.073 470.568C348.273 470.636 348.484 470.67 348.706 470.67C348.872 470.67 349.008 470.662 349.115 470.645C349.221 470.624 349.306 470.607 349.37 470.594L349.677 471.949C349.575 471.987 349.432 472.026 349.249 472.064C349.066 472.107 348.833 472.128 348.552 472.128C348.126 472.128 347.708 472.036 347.299 471.853C346.895 471.67 346.558 471.391 346.289 471.016C346.025 470.641 345.893 470.168 345.893 469.597V459.83ZM354.657 472.23C354.034 472.23 353.47 472.113 352.963 471.879C352.456 471.64 352.053 471.297 351.755 470.849C351.456 470.398 351.307 469.852 351.307 469.213C351.307 468.651 351.418 468.195 351.64 467.845C351.861 467.491 352.157 467.214 352.528 467.014C352.899 466.814 353.308 466.665 353.755 466.567C354.207 466.464 354.661 466.384 355.117 466.324C355.713 466.247 356.197 466.19 356.568 466.151C356.943 466.109 357.216 466.038 357.386 465.94C357.561 465.842 357.648 465.672 357.648 465.429V465.378C357.648 464.747 357.475 464.257 357.13 463.908C356.789 463.558 356.272 463.384 355.577 463.384C354.857 463.384 354.292 463.541 353.883 463.857C353.474 464.172 353.186 464.509 353.02 464.866L351.588 464.355C351.844 463.759 352.185 463.294 352.611 462.962C353.042 462.625 353.51 462.391 354.017 462.259C354.529 462.122 355.032 462.054 355.526 462.054C355.841 462.054 356.203 462.092 356.613 462.169C357.026 462.241 357.424 462.393 357.808 462.623C358.196 462.853 358.517 463.2 358.773 463.665C359.029 464.129 359.157 464.751 359.157 465.531V472H357.648V470.67H357.571C357.469 470.884 357.299 471.112 357.06 471.354C356.821 471.597 356.504 471.804 356.108 471.974C355.711 472.145 355.228 472.23 354.657 472.23ZM354.887 470.875C355.483 470.875 355.986 470.758 356.395 470.523C356.809 470.289 357.12 469.987 357.328 469.616C357.542 469.245 357.648 468.855 357.648 468.446V467.065C357.584 467.142 357.444 467.212 357.226 467.276C357.013 467.336 356.766 467.389 356.485 467.436C356.208 467.479 355.937 467.517 355.673 467.551C355.413 467.581 355.202 467.607 355.04 467.628C354.648 467.679 354.282 467.762 353.941 467.877C353.604 467.988 353.331 468.156 353.123 468.382C352.918 468.604 352.816 468.906 352.816 469.29C352.816 469.814 353.01 470.21 353.397 470.479C353.789 470.743 354.286 470.875 354.887 470.875ZM366.18 462.182V463.46H361.092V462.182H366.18ZM362.575 459.83H364.083V469.188C364.083 469.614 364.145 469.933 364.269 470.146C364.396 470.355 364.558 470.496 364.754 470.568C364.955 470.636 365.166 470.67 365.387 470.67C365.553 470.67 365.69 470.662 365.796 470.645C365.903 470.624 365.988 470.607 366.052 470.594L366.359 471.949C366.257 471.987 366.114 472.026 365.931 472.064C365.747 472.107 365.515 472.128 365.234 472.128C364.808 472.128 364.39 472.036 363.981 471.853C363.576 471.67 363.24 471.391 362.971 471.016C362.707 470.641 362.575 470.168 362.575 469.597V459.83ZM374.637 467.986V462.182H376.145V472H374.637V470.338H374.534C374.304 470.837 373.946 471.261 373.46 471.61C372.975 471.955 372.361 472.128 371.619 472.128C371.006 472.128 370.46 471.994 369.983 471.725C369.506 471.452 369.131 471.043 368.858 470.498C368.585 469.948 368.449 469.256 368.449 468.42V462.182H369.958V468.318C369.958 469.034 370.158 469.605 370.558 470.031C370.963 470.457 371.479 470.67 372.105 470.67C372.48 470.67 372.862 470.575 373.249 470.383C373.642 470.191 373.97 469.897 374.234 469.501C374.502 469.104 374.637 468.599 374.637 467.986ZM385.863 464.381L384.507 464.764C384.422 464.538 384.297 464.319 384.13 464.106C383.968 463.888 383.747 463.71 383.466 463.569C383.184 463.428 382.824 463.358 382.385 463.358C381.784 463.358 381.284 463.496 380.883 463.773C380.487 464.046 380.289 464.393 380.289 464.815C380.289 465.19 380.425 465.487 380.698 465.704C380.971 465.921 381.397 466.102 381.976 466.247L383.434 466.605C384.311 466.818 384.966 467.144 385.396 467.583C385.826 468.018 386.042 468.578 386.042 469.264C386.042 469.827 385.88 470.33 385.556 470.773C385.236 471.216 384.789 471.565 384.213 471.821C383.638 472.077 382.969 472.205 382.206 472.205C381.205 472.205 380.376 471.987 379.72 471.553C379.064 471.118 378.648 470.483 378.473 469.648L379.905 469.29C380.042 469.818 380.299 470.214 380.679 470.479C381.062 470.743 381.563 470.875 382.181 470.875C382.884 470.875 383.442 470.726 383.855 470.428C384.273 470.125 384.482 469.763 384.482 469.341C384.482 469 384.363 468.714 384.124 468.484C383.885 468.25 383.519 468.075 383.025 467.96L381.388 467.577C380.489 467.364 379.828 467.033 379.407 466.586C378.989 466.134 378.78 465.57 378.78 464.892C378.78 464.338 378.936 463.848 379.247 463.422C379.562 462.996 379.99 462.661 380.532 462.418C381.077 462.175 381.695 462.054 382.385 462.054C383.357 462.054 384.12 462.267 384.674 462.693C385.232 463.119 385.628 463.682 385.863 464.381Z" fill="#1A1A1A"/>
<path d="M272.543 505.909H274.915V514.462C274.915 515.399 274.693 516.224 274.25 516.935C273.811 517.647 273.193 518.203 272.396 518.604C271.599 519 270.668 519.198 269.603 519.198C268.533 519.198 267.6 519 266.803 518.604C266.006 518.203 265.388 517.647 264.95 516.935C264.511 516.224 264.291 515.399 264.291 514.462V505.909H266.663V514.263C266.663 514.809 266.782 515.295 267.021 515.721C267.263 516.147 267.604 516.482 268.043 516.724C268.482 516.963 269.002 517.082 269.603 517.082C270.204 517.082 270.724 516.963 271.163 516.724C271.606 516.482 271.947 516.147 272.185 515.721C272.424 515.295 272.543 514.809 272.543 514.263V505.909ZM279.704 513.247V519H277.39V509.182H279.602V510.85H279.717C279.943 510.3 280.303 509.864 280.797 509.54C281.296 509.216 281.911 509.054 282.644 509.054C283.322 509.054 283.912 509.199 284.415 509.489C284.922 509.778 285.314 510.198 285.591 510.748C285.872 511.298 286.011 511.964 286.007 512.749V519H283.693V513.107C283.693 512.45 283.522 511.937 283.181 511.566C282.845 511.195 282.378 511.01 281.781 511.01C281.377 511.01 281.017 511.099 280.701 511.278C280.39 511.453 280.145 511.707 279.966 512.039C279.791 512.371 279.704 512.774 279.704 513.247ZM292.002 519.173C291.231 519.173 290.541 518.974 289.931 518.578C289.322 518.182 288.84 517.607 288.487 516.852C288.133 516.098 287.956 515.182 287.956 514.104C287.956 513.013 288.135 512.092 288.493 511.342C288.855 510.588 289.343 510.019 289.957 509.636C290.57 509.248 291.254 509.054 292.009 509.054C292.584 509.054 293.057 509.152 293.428 509.348C293.798 509.54 294.093 509.772 294.31 510.045C294.527 510.313 294.695 510.567 294.815 510.805H294.911V505.909H297.231V519H294.955V517.453H294.815C294.695 517.692 294.523 517.945 294.297 518.214C294.071 518.478 293.773 518.704 293.402 518.891C293.031 519.079 292.565 519.173 292.002 519.173ZM292.648 517.274C293.138 517.274 293.556 517.142 293.901 516.878C294.246 516.609 294.508 516.237 294.687 515.759C294.866 515.282 294.955 514.726 294.955 514.091C294.955 513.456 294.866 512.904 294.687 512.435C294.512 511.967 294.252 511.602 293.907 511.342C293.566 511.082 293.146 510.952 292.648 510.952C292.132 510.952 291.702 511.087 291.357 511.355C291.012 511.624 290.752 511.994 290.577 512.467C290.402 512.94 290.315 513.482 290.315 514.091C290.315 514.705 290.402 515.252 290.577 515.734C290.756 516.211 291.018 516.588 291.363 516.865C291.713 517.138 292.141 517.274 292.648 517.274ZM304.043 519.192C303.059 519.192 302.209 518.987 301.493 518.578C300.781 518.165 300.234 517.581 299.85 516.827C299.467 516.068 299.275 515.175 299.275 514.148C299.275 513.138 299.467 512.252 299.85 511.489C300.238 510.722 300.779 510.126 301.474 509.7C302.168 509.269 302.984 509.054 303.922 509.054C304.527 509.054 305.098 509.152 305.635 509.348C306.176 509.54 306.653 509.838 307.067 510.243C307.484 510.648 307.813 511.163 308.051 511.79C308.29 512.412 308.409 513.153 308.409 514.014V514.724H300.362V513.164H306.191C306.187 512.721 306.091 512.327 305.903 511.982C305.716 511.632 305.454 511.357 305.117 511.157C304.785 510.957 304.397 510.857 303.954 510.857C303.481 510.857 303.065 510.972 302.707 511.202C302.349 511.428 302.07 511.726 301.87 512.097C301.674 512.463 301.574 512.866 301.57 513.305V514.666C301.57 515.237 301.674 515.727 301.883 516.136C302.092 516.541 302.384 516.852 302.759 517.07C303.134 517.283 303.572 517.389 304.075 517.389C304.412 517.389 304.717 517.342 304.989 517.249C305.262 517.151 305.499 517.008 305.699 516.82C305.899 516.633 306.05 516.401 306.153 516.124L308.313 516.366C308.177 516.937 307.917 517.436 307.533 517.862C307.154 518.284 306.668 518.612 306.076 518.847C305.484 519.077 304.806 519.192 304.043 519.192ZM310.367 519V509.182H312.61V510.818H312.713C312.892 510.251 313.198 509.815 313.633 509.508C314.072 509.197 314.573 509.041 315.135 509.041C315.263 509.041 315.406 509.048 315.563 509.06C315.725 509.069 315.86 509.084 315.966 509.105V511.234C315.868 511.2 315.713 511.17 315.499 511.144C315.291 511.114 315.088 511.099 314.892 511.099C314.47 511.099 314.091 511.191 313.754 511.374C313.422 511.553 313.16 511.803 312.968 512.122C312.776 512.442 312.681 512.81 312.681 513.228V519H310.367ZM322.07 519V505.909H326.98C327.985 505.909 328.829 506.084 329.511 506.433C330.197 506.783 330.715 507.273 331.064 507.903C331.418 508.53 331.595 509.261 331.595 510.096C331.595 510.935 331.416 511.664 331.058 512.282C330.704 512.896 330.182 513.371 329.492 513.707C328.801 514.04 327.953 514.206 326.948 514.206H323.451V512.237H326.628C327.216 512.237 327.698 512.156 328.073 511.994C328.448 511.828 328.725 511.587 328.904 511.272C329.087 510.952 329.178 510.56 329.178 510.096C329.178 509.631 329.087 509.235 328.904 508.907C328.72 508.575 328.441 508.323 328.066 508.153C327.691 507.978 327.208 507.891 326.615 507.891H324.442V519H322.07ZM328.833 513.068L332.074 519H329.428L326.244 513.068H328.833ZM337.881 519.192C336.897 519.192 336.047 518.987 335.331 518.578C334.619 518.165 334.072 517.581 333.688 516.827C333.305 516.068 333.113 515.175 333.113 514.148C333.113 513.138 333.305 512.252 333.688 511.489C334.076 510.722 334.617 510.126 335.312 509.7C336.006 509.269 336.822 509.054 337.76 509.054C338.365 509.054 338.936 509.152 339.473 509.348C340.014 509.54 340.491 509.838 340.905 510.243C341.322 510.648 341.65 511.163 341.889 511.79C342.128 512.412 342.247 513.153 342.247 514.014V514.724H334.199V513.164H340.029C340.025 512.721 339.929 512.327 339.741 511.982C339.554 511.632 339.292 511.357 338.955 511.157C338.623 510.957 338.235 510.857 337.792 510.857C337.319 510.857 336.903 510.972 336.545 511.202C336.187 511.428 335.908 511.726 335.708 512.097C335.512 512.463 335.412 512.866 335.407 513.305V514.666C335.407 515.237 335.512 515.727 335.721 516.136C335.93 516.541 336.221 516.852 336.596 517.07C336.971 517.283 337.41 517.389 337.913 517.389C338.25 517.389 338.555 517.342 338.827 517.249C339.1 517.151 339.336 517.008 339.537 516.82C339.737 516.633 339.888 516.401 339.991 516.124L342.151 516.366C342.015 516.937 341.755 517.436 341.371 517.862C340.992 518.284 340.506 518.612 339.914 518.847C339.322 519.077 338.644 519.192 337.881 519.192ZM352.693 509.182L349.197 519H346.64L343.143 509.182H345.611L347.867 516.475H347.969L350.232 509.182H352.693ZM354.294 519V509.182H356.608V519H354.294ZM355.458 507.788C355.091 507.788 354.776 507.667 354.512 507.424C354.248 507.177 354.115 506.881 354.115 506.536C354.115 506.186 354.248 505.89 354.512 505.647C354.776 505.4 355.091 505.276 355.458 505.276C355.828 505.276 356.144 505.4 356.404 505.647C356.668 505.89 356.8 506.186 356.8 506.536C356.8 506.881 356.668 507.177 356.404 507.424C356.144 507.667 355.828 507.788 355.458 507.788ZM363.334 519.192C362.35 519.192 361.5 518.987 360.784 518.578C360.072 518.165 359.525 517.581 359.141 516.827C358.758 516.068 358.566 515.175 358.566 514.148C358.566 513.138 358.758 512.252 359.141 511.489C359.529 510.722 360.07 510.126 360.765 509.7C361.459 509.269 362.275 509.054 363.213 509.054C363.818 509.054 364.389 509.152 364.926 509.348C365.467 509.54 365.944 509.838 366.358 510.243C366.775 510.648 367.104 511.163 367.342 511.79C367.581 512.412 367.7 513.153 367.7 514.014V514.724H359.653V513.164H365.482C365.478 512.721 365.382 512.327 365.194 511.982C365.007 511.632 364.745 511.357 364.408 511.157C364.076 510.957 363.688 510.857 363.245 510.857C362.772 510.857 362.356 510.972 361.998 511.202C361.64 511.428 361.361 511.726 361.161 512.097C360.965 512.463 360.865 512.866 360.861 513.305V514.666C360.861 515.237 360.965 515.727 361.174 516.136C361.383 516.541 361.675 516.852 362.05 517.07C362.425 517.283 362.863 517.389 363.366 517.389C363.703 517.389 364.008 517.342 364.28 517.249C364.553 517.151 364.79 517.008 364.99 516.82C365.19 516.633 365.341 516.401 365.444 516.124L367.604 516.366C367.468 516.937 367.208 517.436 366.824 517.862C366.445 518.284 365.959 518.612 365.367 518.847C364.775 519.077 364.097 519.192 363.334 519.192ZM371.631 519L368.857 509.182H371.216L372.942 516.085H373.031L374.795 509.182H377.128L378.893 516.047H378.988L380.689 509.182H383.054L380.273 519H377.863L376.023 512.365H375.888L374.047 519H371.631Z" fill="#E4B338"/>
<path d="M264.291 566V552.909H269.2C270.206 552.909 271.05 553.084 271.732 553.433C272.418 553.783 272.935 554.273 273.285 554.903C273.638 555.53 273.815 556.261 273.815 557.096C273.815 557.935 273.636 558.664 273.278 559.282C272.925 559.896 272.403 560.371 271.712 560.707C271.022 561.04 270.174 561.206 269.168 561.206H265.672V559.237H268.849C269.437 559.237 269.918 559.156 270.293 558.994C270.668 558.828 270.945 558.587 271.124 558.272C271.308 557.952 271.399 557.56 271.399 557.096C271.399 556.631 271.308 556.235 271.124 555.907C270.941 555.575 270.662 555.323 270.287 555.153C269.912 554.978 269.428 554.891 268.836 554.891H266.663V566H264.291ZM271.054 560.068L274.295 566H271.648L268.465 560.068H271.054ZM280.102 566.192C279.118 566.192 278.267 565.987 277.551 565.578C276.84 565.165 276.292 564.581 275.909 563.827C275.525 563.068 275.333 562.175 275.333 561.148C275.333 560.138 275.525 559.252 275.909 558.489C276.297 557.722 276.838 557.126 277.532 556.7C278.227 556.269 279.043 556.054 279.98 556.054C280.586 556.054 281.157 556.152 281.694 556.348C282.235 556.54 282.712 556.838 283.125 557.243C283.543 557.648 283.871 558.163 284.11 558.79C284.348 559.412 284.468 560.153 284.468 561.014V561.724H276.42V560.164H282.25C282.245 559.721 282.15 559.327 281.962 558.982C281.775 558.632 281.512 558.357 281.176 558.157C280.843 557.957 280.456 557.857 280.012 557.857C279.539 557.857 279.124 557.972 278.766 558.202C278.408 558.428 278.129 558.726 277.929 559.097C277.733 559.463 277.632 559.866 277.628 560.305V561.666C277.628 562.237 277.733 562.727 277.941 563.136C278.15 563.541 278.442 563.852 278.817 564.07C279.192 564.283 279.631 564.389 280.134 564.389C280.471 564.389 280.775 564.342 281.048 564.249C281.321 564.151 281.557 564.008 281.757 563.82C281.958 563.633 282.109 563.401 282.211 563.124L284.372 563.366C284.235 563.937 283.975 564.436 283.592 564.862C283.213 565.284 282.727 565.612 282.135 565.847C281.542 566.077 280.865 566.192 280.102 566.192ZM294.185 558.777L292.076 559.007C292.016 558.794 291.912 558.594 291.763 558.406C291.618 558.219 291.422 558.067 291.175 557.952C290.927 557.837 290.625 557.78 290.267 557.78C289.785 557.78 289.381 557.884 289.052 558.093C288.729 558.302 288.569 558.572 288.573 558.905C288.569 559.19 288.673 559.423 288.886 559.602C289.104 559.781 289.461 559.928 289.96 560.043L291.635 560.401C292.564 560.601 293.254 560.918 293.706 561.353C294.162 561.788 294.392 562.357 294.396 563.06C294.392 563.678 294.211 564.223 293.853 564.696C293.499 565.165 293.007 565.531 292.376 565.795C291.746 566.06 291.021 566.192 290.203 566.192C289.001 566.192 288.034 565.94 287.301 565.438C286.568 564.93 286.131 564.225 285.991 563.322L288.247 563.104C288.349 563.548 288.567 563.882 288.899 564.108C289.231 564.334 289.664 564.447 290.197 564.447C290.746 564.447 291.187 564.334 291.52 564.108C291.856 563.882 292.025 563.603 292.025 563.271C292.025 562.989 291.916 562.757 291.699 562.574C291.486 562.391 291.153 562.25 290.702 562.152L289.027 561.8C288.085 561.604 287.388 561.274 286.937 560.81C286.485 560.341 286.261 559.749 286.265 559.033C286.261 558.428 286.425 557.903 286.758 557.46C287.094 557.013 287.561 556.668 288.157 556.425C288.758 556.178 289.451 556.054 290.235 556.054C291.385 556.054 292.291 556.299 292.952 556.789C293.616 557.279 294.028 557.942 294.185 558.777ZM302.562 561.871V556.182H304.876V566H302.632V564.255H302.53C302.308 564.805 301.944 565.254 301.437 565.604C300.934 565.953 300.314 566.128 299.577 566.128C298.933 566.128 298.365 565.985 297.87 565.7C297.38 565.41 296.997 564.99 296.72 564.44C296.443 563.886 296.304 563.217 296.304 562.433V556.182H298.618V562.075C298.618 562.697 298.789 563.192 299.129 563.558C299.47 563.925 299.918 564.108 300.472 564.108C300.813 564.108 301.143 564.025 301.463 563.859C301.782 563.692 302.044 563.445 302.249 563.117C302.458 562.785 302.562 562.369 302.562 561.871ZM307.358 566V552.909H309.672V557.805H309.767C309.887 557.567 310.055 557.313 310.272 557.045C310.49 556.772 310.784 556.54 311.154 556.348C311.525 556.152 311.998 556.054 312.574 556.054C313.332 556.054 314.016 556.248 314.625 556.636C315.239 557.019 315.725 557.588 316.083 558.342C316.445 559.092 316.626 560.013 316.626 561.104C316.626 562.182 316.449 563.098 316.096 563.852C315.742 564.607 315.26 565.182 314.651 565.578C314.042 565.974 313.351 566.173 312.58 566.173C312.017 566.173 311.551 566.079 311.18 565.891C310.809 565.704 310.511 565.478 310.285 565.214C310.064 564.945 309.891 564.692 309.767 564.453H309.633V566H307.358ZM309.627 561.091C309.627 561.726 309.716 562.282 309.895 562.759C310.078 563.237 310.341 563.609 310.681 563.878C311.027 564.142 311.444 564.274 311.934 564.274C312.446 564.274 312.874 564.138 313.219 563.865C313.564 563.588 313.824 563.211 313.999 562.734C314.178 562.252 314.267 561.705 314.267 561.091C314.267 560.482 314.18 559.94 314.005 559.467C313.831 558.994 313.571 558.624 313.225 558.355C312.88 558.087 312.45 557.952 311.934 557.952C311.44 557.952 311.02 558.082 310.675 558.342C310.33 558.602 310.068 558.967 309.889 559.435C309.714 559.904 309.627 560.456 309.627 561.091ZM318.593 566V556.182H320.805V557.85H320.92C321.124 557.288 321.463 556.849 321.936 556.533C322.409 556.214 322.974 556.054 323.63 556.054C324.295 556.054 324.855 556.216 325.311 556.54C325.771 556.859 326.095 557.296 326.283 557.85H326.385C326.602 557.305 326.969 556.87 327.485 556.546C328.004 556.218 328.62 556.054 329.332 556.054C330.235 556.054 330.972 556.339 331.544 556.911C332.115 557.482 332.4 558.315 332.4 559.41V566H330.08V559.768C330.08 559.158 329.918 558.713 329.594 558.432C329.27 558.146 328.874 558.004 328.405 558.004C327.847 558.004 327.41 558.178 327.095 558.528C326.784 558.873 326.628 559.322 326.628 559.876V566H324.359V559.672C324.359 559.165 324.205 558.76 323.899 558.457C323.596 558.155 323.2 558.004 322.71 558.004C322.377 558.004 322.075 558.089 321.802 558.259C321.529 558.425 321.312 558.662 321.15 558.969C320.988 559.271 320.907 559.625 320.907 560.03V566H318.593ZM334.748 566V556.182H337.061V566H334.748ZM335.911 554.788C335.544 554.788 335.229 554.667 334.965 554.424C334.701 554.177 334.569 553.881 334.569 553.536C334.569 553.186 334.701 552.89 334.965 552.647C335.229 552.4 335.544 552.276 335.911 552.276C336.282 552.276 336.597 552.4 336.857 552.647C337.121 552.89 337.253 553.186 337.253 553.536C337.253 553.881 337.121 554.177 336.857 554.424C336.597 554.667 336.282 554.788 335.911 554.788ZM344.344 556.182V557.972H338.699V556.182H344.344ZM340.093 553.83H342.407V563.047C342.407 563.358 342.454 563.597 342.547 563.763C342.645 563.925 342.773 564.036 342.931 564.095C343.089 564.155 343.263 564.185 343.455 564.185C343.6 564.185 343.732 564.174 343.851 564.153C343.975 564.131 344.069 564.112 344.133 564.095L344.523 565.904C344.399 565.947 344.222 565.994 343.992 566.045C343.766 566.096 343.489 566.126 343.161 566.134C342.581 566.151 342.059 566.064 341.595 565.872C341.131 565.676 340.762 565.374 340.489 564.964C340.221 564.555 340.089 564.044 340.093 563.43V553.83Z" fill="#CF2A46"/>
<path d="M265.972 613H263.441L268.05 599.909H270.977L275.592 613H273.061L269.565 602.594H269.462L265.972 613ZM266.055 607.867H272.959V609.772H266.055V607.867ZM277.214 616.682V603.182H279.49V604.805H279.624C279.743 604.567 279.912 604.313 280.129 604.045C280.346 603.772 280.64 603.54 281.011 603.348C281.382 603.152 281.855 603.054 282.43 603.054C283.189 603.054 283.873 603.248 284.482 603.636C285.096 604.019 285.581 604.588 285.939 605.342C286.302 606.092 286.483 607.013 286.483 608.104C286.483 609.182 286.306 610.098 285.952 610.852C285.599 611.607 285.117 612.182 284.508 612.578C283.898 612.974 283.208 613.173 282.437 613.173C281.874 613.173 281.407 613.079 281.037 612.891C280.666 612.704 280.368 612.478 280.142 612.214C279.92 611.945 279.748 611.692 279.624 611.453H279.528V616.682H277.214ZM279.483 608.091C279.483 608.726 279.573 609.282 279.752 609.759C279.935 610.237 280.197 610.609 280.538 610.878C280.883 611.142 281.301 611.274 281.791 611.274C282.302 611.274 282.731 611.138 283.076 610.865C283.421 610.588 283.681 610.211 283.856 609.734C284.035 609.252 284.124 608.705 284.124 608.091C284.124 607.482 284.037 606.94 283.862 606.467C283.687 605.994 283.427 605.624 283.082 605.355C282.737 605.087 282.307 604.952 281.791 604.952C281.297 604.952 280.877 605.082 280.532 605.342C280.187 605.602 279.925 605.967 279.746 606.435C279.571 606.904 279.483 607.456 279.483 608.091ZM288.464 616.682V603.182H290.74V604.805H290.874C290.993 604.567 291.162 604.313 291.379 604.045C291.596 603.772 291.89 603.54 292.261 603.348C292.632 603.152 293.105 603.054 293.68 603.054C294.439 603.054 295.123 603.248 295.732 603.636C296.346 604.019 296.831 604.588 297.189 605.342C297.552 606.092 297.733 607.013 297.733 608.104C297.733 609.182 297.556 610.098 297.202 610.852C296.849 611.607 296.367 612.182 295.758 612.578C295.148 612.974 294.458 613.173 293.687 613.173C293.124 613.173 292.657 613.079 292.287 612.891C291.916 612.704 291.618 612.478 291.392 612.214C291.17 611.945 290.998 611.692 290.874 611.453H290.778V616.682H288.464ZM290.733 608.091C290.733 608.726 290.823 609.282 291.002 609.759C291.185 610.237 291.447 610.609 291.788 610.878C292.133 611.142 292.551 611.274 293.041 611.274C293.552 611.274 293.981 611.138 294.326 610.865C294.671 610.588 294.931 610.211 295.106 609.734C295.285 609.252 295.374 608.705 295.374 608.091C295.374 607.482 295.287 606.94 295.112 606.467C294.937 605.994 294.677 605.624 294.332 605.355C293.987 605.087 293.557 604.952 293.041 604.952C292.547 604.952 292.127 605.082 291.782 605.342C291.437 605.602 291.175 605.967 290.996 606.435C290.821 606.904 290.733 607.456 290.733 608.091ZM299.714 613V603.182H301.958V604.818H302.06C302.239 604.251 302.546 603.815 302.981 603.508C303.42 603.197 303.92 603.041 304.483 603.041C304.611 603.041 304.753 603.048 304.911 603.06C305.073 603.069 305.207 603.084 305.314 603.105V605.234C305.216 605.2 305.06 605.17 304.847 605.144C304.638 605.114 304.436 605.099 304.24 605.099C303.818 605.099 303.439 605.191 303.102 605.374C302.77 605.553 302.508 605.803 302.316 606.122C302.124 606.442 302.028 606.81 302.028 607.228V613H299.714ZM310.729 613.192C309.771 613.192 308.94 612.981 308.237 612.559C307.533 612.137 306.988 611.547 306.6 610.788C306.217 610.03 306.025 609.143 306.025 608.129C306.025 607.115 306.217 606.227 306.6 605.464C306.988 604.701 307.533 604.109 308.237 603.687C308.94 603.265 309.771 603.054 310.729 603.054C311.688 603.054 312.519 603.265 313.222 603.687C313.925 604.109 314.469 604.701 314.852 605.464C315.24 606.227 315.434 607.115 315.434 608.129C315.434 609.143 315.24 610.03 314.852 610.788C314.469 611.547 313.925 612.137 313.222 612.559C312.519 612.981 311.688 613.192 310.729 613.192ZM310.742 611.338C311.262 611.338 311.697 611.195 312.046 610.91C312.396 610.62 312.656 610.232 312.826 609.746C313.001 609.261 313.088 608.719 313.088 608.123C313.088 607.522 313.001 606.979 312.826 606.493C312.656 606.003 312.396 605.613 312.046 605.323C311.697 605.033 311.262 604.888 310.742 604.888C310.21 604.888 309.766 605.033 309.413 605.323C309.063 605.613 308.801 606.003 308.626 606.493C308.456 606.979 308.371 607.522 308.371 608.123C308.371 608.719 308.456 609.261 308.626 609.746C308.801 610.232 309.063 610.62 309.413 610.91C309.766 611.195 310.21 611.338 310.742 611.338ZM325.834 603.182L322.337 613H319.781L316.284 603.182H318.751L321.008 610.475H321.11L323.373 603.182H325.834ZM331.448 613.192C330.463 613.192 329.613 612.987 328.897 612.578C328.186 612.165 327.638 611.581 327.254 610.827C326.871 610.068 326.679 609.175 326.679 608.148C326.679 607.138 326.871 606.252 327.254 605.489C327.642 604.722 328.183 604.126 328.878 603.7C329.573 603.269 330.389 603.054 331.326 603.054C331.931 603.054 332.502 603.152 333.039 603.348C333.58 603.54 334.058 603.838 334.471 604.243C334.889 604.648 335.217 605.163 335.455 605.79C335.694 606.412 335.813 607.153 335.813 608.014V608.724H327.766V607.164H333.595C333.591 606.721 333.495 606.327 333.308 605.982C333.12 605.632 332.858 605.357 332.521 605.157C332.189 604.957 331.801 604.857 331.358 604.857C330.885 604.857 330.47 604.972 330.112 605.202C329.754 605.428 329.475 605.726 329.274 606.097C329.078 606.463 328.978 606.866 328.974 607.305V608.666C328.974 609.237 329.078 609.727 329.287 610.136C329.496 610.541 329.788 610.852 330.163 611.07C330.538 611.283 330.977 611.389 331.48 611.389C331.816 611.389 332.121 611.342 332.394 611.249C332.666 611.151 332.903 611.008 333.103 610.82C333.303 610.633 333.455 610.401 333.557 610.124L335.718 610.366C335.581 610.937 335.321 611.436 334.938 611.862C334.558 612.284 334.073 612.612 333.48 612.847C332.888 613.077 332.21 613.192 331.448 613.192ZM341.414 613.173C340.643 613.173 339.953 612.974 339.343 612.578C338.734 612.182 338.252 611.607 337.899 610.852C337.545 610.098 337.368 609.182 337.368 608.104C337.368 607.013 337.547 606.092 337.905 605.342C338.267 604.588 338.755 604.019 339.369 603.636C339.983 603.248 340.667 603.054 341.421 603.054C341.996 603.054 342.469 603.152 342.84 603.348C343.211 603.54 343.505 603.772 343.722 604.045C343.939 604.313 344.108 604.567 344.227 604.805H344.323V599.909H346.643V613H344.368V611.453H344.227C344.108 611.692 343.935 611.945 343.709 612.214C343.483 612.478 343.185 612.704 342.814 612.891C342.444 613.079 341.977 613.173 341.414 613.173ZM342.06 611.274C342.55 611.274 342.968 611.142 343.313 610.878C343.658 610.609 343.92 610.237 344.099 609.759C344.278 609.282 344.368 608.726 344.368 608.091C344.368 607.456 344.278 606.904 344.099 606.435C343.924 605.967 343.664 605.602 343.319 605.342C342.978 605.082 342.559 604.952 342.06 604.952C341.544 604.952 341.114 605.087 340.769 605.355C340.424 605.624 340.164 605.994 339.989 606.467C339.814 606.94 339.727 607.482 339.727 608.091C339.727 608.705 339.814 609.252 339.989 609.734C340.168 610.211 340.43 610.588 340.775 610.865C341.125 611.138 341.553 611.274 342.06 611.274Z" fill="#006333"/>
<circle cx="245" cy="515" r="3" fill="#E4B338"/>
<circle cx="245" cy="559" r="3" fill="#CF2A46"/>
<circle cx="245" cy="609" r="3" fill="#006333"/>
<line x1="242" y1="487.5" x2="511" y2="487.5" stroke="#EEEEEE"/>
<circle cx="376.5" cy="606.5" r="14.5" fill="#ACD5FF" fill-opacity="0.25"/>
<circle cx="376.5" cy="606.5" r="8.5" fill="#ACD5FF" fill-opacity="0.5"/>
<g filter="url(#filter2_f_2125_2229)">
<path d="M378.489 611.388L409.21 625.537L393.249 628.575L386.232 644.312L378.489 611.388Z" fill="#ACD5FF" fill-opacity="0.5"/>
</g>
<path d="M377.427 612.376C377.046 610.755 378.698 609.405 380.211 610.102L401.536 619.924C403.304 620.738 402.985 623.341 401.073 623.705L392.276 625.379C391.633 625.502 391.09 625.932 390.824 626.53L386.647 635.895C385.867 637.644 383.312 637.403 382.874 635.538L377.427 612.376Z" fill="#1A1A1A"/>
</g>
<defs>
<filter id="filter0_b_2125_2229" x="55" y="249" width="376" height="148" filterUnits="userSpaceOnUse" color-interpolation-filters="sRGB">
<feFlood flood-opacity="0" result="BackgroundImageFix"/>
<feGaussianBlur in="BackgroundImageFix" stdDeviation="17.5"/>
<feComposite in2="SourceAlpha" operator="in" result="effect1_backgroundBlur_2125_2229"/>
<feBlend mode="normal" in="SourceGraphic" in2="effect1_backgroundBlur_2125_2229" result="shape"/>
</filter>
<filter id="filter1_b_2125_2229" x="185" y="394" width="376" height="289" filterUnits="userSpaceOnUse" color-interpolation-filters="sRGB">
<feFlood flood-opacity="0" result="BackgroundImageFix"/>
<feGaussianBlur in="BackgroundImageFix" stdDeviation="17.5"/>
<feComposite in2="SourceAlpha" operator="in" result="effect1_backgroundBlur_2125_2229"/>
<feBlend mode="normal" in="SourceGraphic" in2="effect1_backgroundBlur_2125_2229" result="shape"/>
</filter>
<filter id="filter2_f_2125_2229" x="374.489" y="607.388" width="38.7207" height="40.9248" filterUnits="userSpaceOnUse" color-interpolation-filters="sRGB">
<feFlood flood-opacity="0" result="BackgroundImageFix"/>
<feBlend mode="normal" in="SourceGraphic" in2="BackgroundImageFix" result="shape"/>
<feGaussianBlur stdDeviation="2" result="effect1_foregroundBlur_2125_2229"/>
</filter>
<linearGradient id="paint0_linear_2125_2229" x1="247.5" y1="207" x2="247.5" y2="700" gradientUnits="userSpaceOnUse">
<stop stop-color="#A8DD7C" stop-opacity="0"/>
<stop offset="1" stop-color="#A8DD7C" stop-opacity="0.5"/>
</linearGradient>
<clipPath id="clip0_2125_2229">
<rect width="595" height="748" fill="white"/>
</clipPath>
</defs>
</svg>
