<svg width="300" height="52" viewBox="0 0 300 52" fill="none" xmlns="http://www.w3.org/2000/svg">
<g clip-path="url(#clip0_293_43601)">
<path d="M152.02 22.92L155.25 19.72V10.03L145.55 0.340027H113.25L103.57 10.03V3.58003L100.33 0.340027H87.41L84.1799 3.58003V10.03L77.72 16.5L71.2599 10.03V3.58003L68.03 0.340027H55.11L51.8799 3.58003L48.65 0.340027H35.7299L32.5 3.58003V16.5L16.3499 0.340027H3.42995L0.199951 3.58003V48.79L3.42995 52.03H16.3499L19.58 48.79V35.87L35.7299 52.03H48.65L51.8799 48.79V22.95L68.03 39.1V48.79L71.2599 52.03H84.1799L87.41 48.79V39.1L103.57 22.95V42.33L113.25 52.03H145.55L155.25 42.33V32.65L152.02 29.41H135.87V32.65H122.94V19.72H135.87V22.92H152.02Z" fill="#1A1A1A"/>
<path d="M153.38 1.67002H153.59C153.84 1.67002 154.04 1.59002 154.04 1.39002C154.04 1.19002 153.91 1.09002 153.63 1.09002C153.547 1.07564 153.463 1.07564 153.38 1.09002V1.64002V1.67002ZM153.38 2.76002H152.93V0.820017C153.175 0.784152 153.422 0.764111 153.67 0.760018C153.902 0.734728 154.135 0.791327 154.33 0.920018C154.395 0.965755 154.448 1.02739 154.483 1.09913C154.518 1.17086 154.534 1.25032 154.53 1.33002C154.523 1.44006 154.48 1.54483 154.408 1.62803C154.336 1.71122 154.238 1.76817 154.13 1.79002C154.32 1.85002 154.42 2.00002 154.47 2.26002C154.495 2.42681 154.545 2.58874 154.62 2.74002H154.14C154.066 2.58845 154.016 2.42664 153.99 2.26002C153.99 2.06002 153.84 1.97002 153.59 1.97002H153.38V2.74002V2.76002ZM152.19 1.76002C152.185 1.96165 152.22 2.16232 152.293 2.35016C152.367 2.538 152.477 2.70922 152.618 2.8537C152.759 2.99818 152.927 3.113 153.113 3.19137C153.299 3.26975 153.498 3.31009 153.7 3.31002C154.008 3.31797 154.312 3.23387 154.572 3.06846C154.832 2.90305 155.037 2.66385 155.16 2.38142C155.284 2.09899 155.32 1.78615 155.265 1.4829C155.21 1.17964 155.065 0.899729 154.85 0.678938C154.635 0.458147 154.359 0.306501 154.057 0.24338C153.756 0.180259 153.442 0.20853 153.156 0.324578C152.871 0.440626 152.626 0.639181 152.454 0.894871C152.282 1.15056 152.19 1.45177 152.19 1.76002ZM155.67 1.76002C155.684 2.15827 155.579 2.5516 155.367 2.88958C155.156 3.22755 154.849 3.49476 154.485 3.65692C154.121 3.81909 153.717 3.86882 153.324 3.79973C152.932 3.73065 152.569 3.54591 152.282 3.26919C151.996 2.99248 151.798 2.63641 151.715 2.24666C151.632 1.85691 151.667 1.45125 151.816 1.0817C151.966 0.712156 152.222 0.395572 152.552 0.172556C152.882 -0.050459 153.271 -0.169738 153.67 -0.169983C154.188 -0.1703 154.687 0.0307783 155.06 0.390843C155.433 0.750907 155.652 1.24181 155.67 1.76002Z" fill="#1A1A1A"/>
<path d="M167.93 0.140015H172.35C175.5 0.140015 177.35 2.06001 177.35 5.24002C177.35 8.60001 175.43 10.42 172.35 10.42H167.93V0.140015ZM170.61 8.14001H171.88C173.88 8.14001 174.71 7.31002 174.71 5.25002C174.757 4.86936 174.715 4.48307 174.589 4.12103C174.462 3.75898 174.254 3.43089 173.98 3.16214C173.707 2.89339 173.375 2.69118 173.011 2.57117C172.647 2.45115 172.26 2.41654 171.88 2.47001H170.61V8.14001Z" fill="#1A1A1A"/>
<path d="M180.56 7.27997C180.544 7.50386 180.576 7.72855 180.653 7.93927C180.731 8.14998 180.852 8.34195 181.008 8.50253C181.165 8.66311 181.354 8.78868 181.563 8.87097C181.772 8.95326 181.996 8.99041 182.22 8.97997C182.508 8.99446 182.794 8.92458 183.042 8.77891C183.291 8.63324 183.492 8.41813 183.62 8.15997H185.91C185.668 8.9345 185.168 9.60249 184.493 10.0521C183.817 10.5018 183.008 10.7058 182.2 10.63C181.658 10.679 181.113 10.6099 180.6 10.4275C180.088 10.245 179.621 9.95365 179.232 9.57339C178.844 9.19313 178.542 8.73305 178.348 8.22488C178.154 7.71672 178.073 7.17257 178.11 6.62997C178.109 6.10755 178.212 5.59011 178.413 5.10806C178.614 4.62601 178.91 4.18908 179.283 3.82294C179.655 3.4568 180.097 3.16885 180.583 2.97601C181.069 2.78316 181.588 2.68931 182.11 2.69997C184.78 2.69997 186.11 4.69997 186.01 7.24997L180.56 7.27997ZM183.56 5.90997C183.563 5.51795 183.413 5.14017 183.143 4.85651C182.872 4.57284 182.502 4.40554 182.11 4.38997C181.703 4.39692 181.314 4.55751 181.021 4.83948C180.728 5.12145 180.553 5.5039 180.53 5.90997H183.56Z" fill="#1A1A1A"/>
<path d="M187 2.99998H189.33V3.85998C189.547 3.52744 189.843 3.25442 190.193 3.06579C190.542 2.87716 190.933 2.77891 191.33 2.77998C193.68 2.77998 194.67 4.77998 194.67 6.89998C194.67 8.83998 193.67 10.68 191.52 10.68C191.11 10.7018 190.701 10.6219 190.329 10.4475C189.958 10.273 189.635 10.0093 189.39 9.67998V12.99H187V2.99998ZM189.36 6.64998C189.36 7.95998 189.73 8.80998 190.84 8.80998C191.95 8.80998 192.31 7.67998 192.31 6.64998C192.31 5.61998 191.93 4.64998 190.85 4.64998C190.19 4.59998 189.36 5.05998 189.36 6.59998V6.64998Z" fill="#1A1A1A"/>
<path d="M195.67 5.25C195.669 4.8437 195.775 4.44432 195.979 4.09286C196.183 3.74139 196.477 3.45049 196.83 3.25C197.568 2.8831 198.386 2.70446 199.21 2.73C200.98 2.73 202.69 3.12 202.69 5.24V8.5C202.64 9.1537 202.739 9.81021 202.98 10.42H200.52C200.44 10.1908 200.389 9.95215 200.37 9.71C200.043 10.0207 199.656 10.2623 199.234 10.4203C198.811 10.5784 198.361 10.6497 197.91 10.63C196.49 10.63 195.37 9.91 195.37 8.37C195.37 5.94 198.01 6.13 199.71 5.78C200.13 5.7 200.36 5.55 200.36 5.09C200.36 4.63 199.68 4.32 199.18 4.32C199.039 4.30031 198.895 4.3088 198.757 4.34498C198.619 4.38115 198.49 4.44429 198.376 4.53076C198.263 4.61722 198.168 4.7253 198.096 4.84875C198.025 4.9722 197.979 5.10857 197.96 5.25H195.67ZM198.83 9.12C200 9.12 200.39 8.46 200.33 6.92C199.845 7.11411 199.338 7.24843 198.82 7.32C198.27 7.45 197.82 7.68 197.82 8.32C197.82 8.96 198.29 9.12 198.83 9.12Z" fill="#1A1A1A"/>
<path d="M204.11 2.99999H206.49V4.30999C206.659 3.86002 206.967 3.47615 207.371 3.21506C207.774 2.95396 208.251 2.82948 208.73 2.85999C208.925 2.85675 209.119 2.8735 209.31 2.90999V5.13999C209.004 5.05365 208.688 5.0066 208.37 4.99999C208.13 4.98149 207.888 5.01402 207.661 5.09547C207.434 5.17692 207.227 5.30543 207.053 5.47258C206.88 5.63973 206.743 5.84173 206.653 6.06532C206.563 6.28892 206.521 6.52906 206.53 6.76999V10.47H204.08L204.11 2.99999Z" fill="#1A1A1A"/>
<path d="M214.75 4.53H213.24V7.93C213.24 8.52 213.59 8.65 214.12 8.65H214.75V10.45C214.31 10.45 213.86 10.52 213.41 10.52C211.33 10.52 210.79 9.91 210.79 7.89V4.53H209.56V3H210.79V0.690002H213.24V3H214.75V4.53Z" fill="#1A1A1A"/>
<path d="M215.72 2.99999H218.09V3.99999C218.309 3.62401 218.623 3.31183 219 3.09434C219.377 2.87686 219.805 2.76161 220.24 2.75999C220.682 2.71525 221.127 2.8073 221.515 3.02369C221.903 3.24009 222.216 3.5704 222.41 3.96999C222.666 3.58939 223.014 3.27916 223.421 3.06775C223.828 2.85634 224.281 2.75052 224.74 2.75999C227.11 2.75999 227.37 4.55999 227.37 5.98999V10.45H225V5.99999C225 5.18999 224.61 4.71999 224 4.71999C222.95 4.71999 222.84 5.51999 222.84 6.71999V10.38H220.4V6.16999C220.4 5.28999 220.14 4.74999 219.48 4.74999C218.6 4.74999 218.23 5.24999 218.23 6.74999V10.39H215.78L215.72 2.99999Z" fill="#1A1A1A"/>
<path d="M230.85 7.27997C230.834 7.50475 230.866 7.73033 230.944 7.94177C231.022 8.15322 231.144 8.34569 231.302 8.50644C231.46 8.66719 231.65 8.79253 231.86 8.87417C232.07 8.95581 232.295 8.99187 232.52 8.97997C232.807 8.99507 233.091 8.92533 233.339 8.77948C233.586 8.63364 233.785 8.41816 233.91 8.15997H236.2C235.958 8.9345 235.458 9.60249 234.783 10.0521C234.107 10.5018 233.298 10.7058 232.49 10.63C231.948 10.679 231.403 10.6099 230.89 10.4275C230.378 10.245 229.911 9.95365 229.522 9.57339C229.134 9.19313 228.832 8.73305 228.638 8.22488C228.444 7.71672 228.363 7.17257 228.4 6.62997C228.399 6.10755 228.502 5.59011 228.703 5.10806C228.904 4.62601 229.2 4.18908 229.573 3.82294C229.945 3.4568 230.387 3.16885 230.873 2.97601C231.359 2.78316 231.878 2.68931 232.4 2.69997C235.08 2.69997 236.4 4.69997 236.3 7.24997L230.85 7.27997ZM233.85 5.90997C233.853 5.51795 233.703 5.14017 233.433 4.85651C233.162 4.57284 232.792 4.40554 232.4 4.38997C231.993 4.39692 231.604 4.55751 231.311 4.83948C231.018 5.12145 230.843 5.5039 230.82 5.90997H233.85Z" fill="#1A1A1A"/>
<path d="M237.29 2.99998H239.66V3.99998C239.916 3.61258 240.263 3.2941 240.671 3.07262C241.079 2.85114 241.536 2.73347 242 2.72998C244.49 2.72998 244.7 4.54998 244.7 5.62998V10.42H242.25V6.80998C242.25 5.80998 242.36 4.74998 241.03 4.74998C240.11 4.74998 239.7 5.51998 239.7 6.33998V10.42H237.26L237.29 2.99998Z" fill="#1A1A1A"/>
<path d="M250.51 4.53H249V7.93C249 8.52 249.34 8.65 249.87 8.65C250.07 8.65 250.29 8.65 250.51 8.65V10.45C250.06 10.45 249.61 10.52 249.17 10.52C247.08 10.52 246.55 9.91 246.55 7.89V4.53H245.31V3H246.55V0.690002H249V3H250.51V4.53Z" fill="#1A1A1A"/>
<path d="M259.13 2.72998C259.924 2.71609 260.704 2.93882 261.371 3.36981C262.038 3.80081 262.562 4.42055 262.875 5.15013C263.189 5.8797 263.278 6.68607 263.132 7.46655C262.985 8.24703 262.61 8.96629 262.053 9.53272C261.497 10.0992 260.784 10.4871 260.007 10.6472C259.229 10.8073 258.421 10.7323 257.686 10.4317C256.951 10.1311 256.322 9.6186 255.879 8.95937C255.437 8.30014 255.2 7.52407 255.2 6.72998C255.177 6.20437 255.262 5.67955 255.45 5.18824C255.638 4.69693 255.926 4.24967 256.294 3.87437C256.663 3.49906 257.105 3.20376 257.593 3.00686C258.081 2.80997 258.604 2.71572 259.13 2.72998ZM259.13 8.72998C260.26 8.72998 260.62 7.60998 260.62 6.65998C260.62 5.70998 260.26 4.56998 259.13 4.56998C258 4.56998 257.65 5.70998 257.65 6.65998C257.65 7.60998 258 8.75998 259.13 8.75998V8.72998Z" fill="#1A1A1A"/>
<path d="M264.48 4.53H263.3V3H264.48C264.48 0.860002 265.23 0.190002 267.31 0.190002C267.7 0.190002 268.1 0.190002 268.49 0.240002V1.96C268.27 1.94547 268.05 1.94547 267.83 1.96C267.27 1.96 266.92 2.03 266.92 2.71V3H268.39V4.58H266.92V10.47H264.48V4.53Z" fill="#1A1A1A"/>
<path d="M167.9 15.29H170.58V19H174.11V15.29H176.78V25.57H174.11V21.34H170.58V25.57H167.9V15.29Z" fill="#1A1A1A"/>
<path d="M181.85 17.88C182.644 17.8661 183.424 18.0888 184.091 18.5198C184.758 18.9508 185.281 19.5705 185.595 20.3001C185.908 21.0297 185.998 21.8361 185.851 22.6165C185.705 23.397 185.33 24.1163 184.773 24.6827C184.217 25.2492 183.504 25.6371 182.726 25.7972C181.949 25.9573 181.141 25.8823 180.406 25.5817C179.671 25.2811 179.042 24.7686 178.599 24.1094C178.156 23.4501 177.92 22.6741 177.92 21.88C177.898 21.3547 177.984 20.8306 178.173 20.3399C178.361 19.8493 178.649 19.4026 179.017 19.0276C179.386 18.6526 179.827 18.3573 180.315 18.1599C180.802 17.9625 181.324 17.8672 181.85 17.88ZM181.85 23.88C182.98 23.88 183.34 22.76 183.34 21.81C183.34 20.86 182.98 19.72 181.85 19.72C180.72 19.72 180.36 20.86 180.36 21.81C180.36 22.76 180.71 23.91 181.85 23.91V23.88Z" fill="#1A1A1A"/>
<path d="M186.8 18.1H189.17V19.1C189.389 18.7254 189.701 18.4142 190.076 18.1968C190.451 17.9794 190.876 17.8633 191.31 17.86C191.754 17.8146 192.2 17.9062 192.59 18.1226C192.98 18.3389 193.294 18.6696 193.49 19.07C193.746 18.6894 194.094 18.3791 194.501 18.1677C194.908 17.9563 195.361 17.8505 195.82 17.86C198.19 17.86 198.45 19.66 198.45 21.09V25.55H196V21.18C196 20.37 195.61 19.9 195 19.9C194 19.9 193.85 20.7 193.85 21.9V25.56H191.41V21.32C191.41 20.44 191.15 19.9 190.49 19.9C189.61 19.9 189.23 20.4 189.23 21.9V25.54H186.8V18.1Z" fill="#1A1A1A"/>
<path d="M201.92 22.43C201.906 22.6544 201.939 22.8793 202.017 23.09C202.096 23.3007 202.218 23.4925 202.375 23.6529C202.533 23.8133 202.723 23.9387 202.932 24.0209C203.141 24.1031 203.365 24.1403 203.59 24.13C203.878 24.1445 204.164 24.0746 204.412 23.9289C204.661 23.7833 204.862 23.5682 204.99 23.31H207.28C207.038 24.0863 206.536 24.7557 205.859 25.2055C205.181 25.6553 204.37 25.8582 203.56 25.78C203.019 25.8292 202.473 25.7601 201.962 25.5777C201.45 25.3952 200.984 25.1036 200.595 24.7232C200.207 24.3427 199.907 23.8824 199.714 23.3743C199.521 22.8661 199.442 22.3221 199.48 21.78C199.479 21.2576 199.582 20.7401 199.783 20.2581C199.984 19.776 200.28 19.3391 200.653 18.973C201.025 18.6068 201.468 18.3189 201.953 18.126C202.439 17.9332 202.958 17.8393 203.48 17.85C206.15 17.85 207.48 19.85 207.38 22.4L201.92 22.43ZM204.92 21.06C204.923 20.668 204.773 20.2902 204.503 20.0065C204.232 19.7229 203.862 19.5556 203.47 19.54C203.062 19.5468 202.672 19.707 202.378 19.9888C202.083 20.2705 201.905 20.653 201.88 21.06H204.92Z" fill="#1A1A1A"/>
<path d="M208.43 15.29H210.88V25.57H208.43V15.29Z" fill="#1A1A1A"/>
<path d="M214.37 22.43C214.354 22.6548 214.386 22.8804 214.464 23.0918C214.542 23.3032 214.664 23.4957 214.822 23.6565C214.98 23.8172 215.17 23.9426 215.38 24.0242C215.59 24.1058 215.815 24.1419 216.04 24.13C216.327 24.1451 216.611 24.0754 216.859 23.9295C217.106 23.7837 217.305 23.5682 217.43 23.31H219.72C219.481 24.0884 218.98 24.76 218.302 25.2104C217.624 25.6607 216.81 25.862 216 25.78C215.458 25.8307 214.912 25.7628 214.398 25.5811C213.885 25.3993 213.418 25.1079 213.029 24.7273C212.639 24.3467 212.338 23.8859 212.145 23.3769C211.951 22.8679 211.871 22.323 211.91 21.78C211.909 21.2576 212.012 20.7401 212.213 20.2581C212.414 19.776 212.71 19.3391 213.083 18.973C213.455 18.6068 213.898 18.3189 214.383 18.126C214.869 17.9332 215.388 17.8393 215.91 17.85C218.59 17.85 219.91 19.85 219.81 22.4L214.37 22.43ZM217.37 21.06C217.372 20.6816 217.233 20.316 216.979 20.0349C216.726 19.7538 216.377 19.5773 216 19.54C215.593 19.5469 215.204 19.7075 214.911 19.9895C214.618 20.2715 214.443 20.6539 214.42 21.06H217.37Z" fill="#1A1A1A"/>
<path d="M222.73 23.11C222.725 23.2703 222.759 23.4294 222.829 23.5738C222.898 23.7183 223.002 23.8439 223.13 23.94C223.399 24.1194 223.717 24.2103 224.04 24.2C224.51 24.2 225.19 24 225.19 23.41C225.19 22.82 224.42 22.72 223.99 22.62C222.45 22.23 220.52 22.19 220.52 20.17C220.52 18.37 222.47 17.88 223.93 17.88C225.57 17.88 227.29 18.36 227.37 20.3H225.11C225.122 20.1737 225.1 20.0466 225.045 19.9321C224.99 19.8176 224.906 19.7201 224.8 19.65C224.562 19.518 224.292 19.4556 224.02 19.47C223.62 19.47 222.97 19.47 222.97 20.03C222.97 20.73 224.61 20.86 225.73 21.11C226.234 21.1598 226.703 21.3893 227.052 21.7565C227.401 22.1237 227.606 22.6041 227.63 23.11C227.63 25.11 225.73 25.77 224.05 25.77C222.37 25.77 220.47 25.18 220.4 23.1L222.73 23.11Z" fill="#1A1A1A"/>
<path d="M230.54 23.11C230.535 23.2703 230.569 23.4294 230.639 23.5738C230.708 23.7183 230.812 23.8439 230.94 23.94C231.206 24.118 231.52 24.2089 231.84 24.2C232.32 24.2 233 24 233 23.41C233 22.82 232.23 22.72 231.8 22.62C230.26 22.23 228.33 22.19 228.33 20.17C228.33 18.37 230.28 17.88 231.74 17.88C233.38 17.88 235.1 18.36 235.18 20.3H232.92C232.932 20.1737 232.91 20.0466 232.855 19.9321C232.8 19.8176 232.716 19.7201 232.61 19.65C232.372 19.518 232.102 19.4556 231.83 19.47C231.43 19.47 230.78 19.47 230.78 20.03C230.78 20.73 232.42 20.86 233.54 21.11C234.044 21.1598 234.513 21.3893 234.862 21.7565C235.211 22.1237 235.416 22.6041 235.44 23.11C235.44 25.11 233.54 25.77 231.86 25.77C230.18 25.77 228.28 25.18 228.2 23.1L230.54 23.11Z" fill="#1A1A1A"/>
<path d="M242.78 22.11C242.84 23.32 243.59 23.71 244.78 23.71C245.58 23.71 246.42 23.42 246.42 22.66C246.42 21.9 244.95 21.58 243.47 21.16C241.99 20.74 240.47 20.09 240.47 18.16C240.47 15.92 242.73 15.04 244.66 15.04C246.59 15.04 248.76 16.04 248.77 18.35H246C246 17.41 245.16 17.11 244.34 17.11C243.77 17.11 243.05 17.31 243.05 17.99C243.05 18.67 244.53 18.92 246.05 19.34C247.57 19.76 249.05 20.45 249.05 22.34C249.05 24.95 246.84 25.78 244.58 25.78C242.32 25.78 240.13 24.78 240.12 22.11H242.78Z" fill="#1A1A1A"/>
<path d="M252.1 22.43C252.086 22.6544 252.119 22.8793 252.197 23.09C252.276 23.3007 252.398 23.4925 252.555 23.6529C252.713 23.8133 252.903 23.9387 253.112 24.0209C253.321 24.1031 253.545 24.1403 253.77 24.13C254.058 24.1445 254.344 24.0746 254.592 23.9289C254.841 23.7832 255.042 23.5681 255.17 23.31H257.45C257.212 24.0866 256.712 24.7568 256.036 25.207C255.36 25.6571 254.548 25.8596 253.74 25.78C253.199 25.8292 252.653 25.7601 252.141 25.5776C251.63 25.3952 251.163 25.1036 250.775 24.7231C250.387 24.3427 250.087 23.8824 249.894 23.3742C249.701 22.866 249.622 22.3221 249.66 21.78C249.657 21.2572 249.759 20.7391 249.96 20.2564C250.161 19.7737 250.457 19.3363 250.83 18.9699C251.203 18.6034 251.645 18.3155 252.131 18.1232C252.618 17.9308 253.137 17.8379 253.66 17.85C256.34 17.85 257.66 19.85 257.56 22.4L252.1 22.43ZM255.1 21.06C255.103 20.6663 254.952 20.2871 254.679 20.0031C254.406 19.7192 254.034 19.553 253.64 19.54C253.234 19.5492 252.846 19.7106 252.554 19.9921C252.261 20.2736 252.085 20.6547 252.06 21.06H255.1Z" fill="#1A1A1A"/>
<path d="M258.59 18.1H261V19.41C261.175 18.9692 261.485 18.5952 261.885 18.3419C262.286 18.0885 262.757 17.9688 263.23 18C263.423 17.9802 263.617 17.9802 263.81 18V20.23C263.504 20.1437 263.188 20.0966 262.87 20.09C262.626 20.0669 262.381 20.0963 262.149 20.1763C261.918 20.2563 261.707 20.385 261.529 20.5538C261.352 20.7225 261.213 20.9273 261.122 21.1544C261.03 21.3815 260.989 21.6255 261 21.87V25.57H258.56L258.59 18.1Z" fill="#1A1A1A"/>
<path d="M269.26 25.57H266.44L264 18.1H266.55L267.86 23L269.25 18.06H271.73L269.26 25.57Z" fill="#1A1A1A"/>
<path d="M274.8 17.16H272.35V15.29H274.8V17.16ZM272.35 18.1H274.8V25.57H272.35V18.1Z" fill="#1A1A1A"/>
<path d="M281.07 20.83C281.049 20.5294 280.913 20.2486 280.689 20.047C280.465 19.8454 280.171 19.7389 279.87 19.75C278.51 19.75 278.29 20.92 278.29 21.96C278.29 23 278.71 23.91 279.74 23.91C279.917 23.9208 280.094 23.896 280.26 23.837C280.427 23.778 280.581 23.6861 280.711 23.5667C280.842 23.4472 280.947 23.3028 281.021 23.1419C281.094 22.981 281.135 22.8069 281.14 22.63H283.51C283.424 23.5422 282.982 24.3838 282.28 24.9732C281.579 25.5626 280.673 25.8523 279.76 25.78C279.25 25.8075 278.739 25.7297 278.261 25.5513C277.782 25.373 277.345 25.0979 276.977 24.7432C276.609 24.3886 276.319 23.962 276.123 23.49C275.927 23.018 275.831 22.5108 275.84 22C275.799 21.4673 275.871 20.9319 276.051 20.429C276.231 19.926 276.515 19.4668 276.886 19.0816C277.256 18.6963 277.703 18.3936 278.199 18.1934C278.694 17.9933 279.226 17.9001 279.76 17.92C281.61 17.92 283.27 18.92 283.44 20.87L281.07 20.83Z" fill="#1A1A1A"/>
<path d="M286.54 22.43C286.524 22.6548 286.556 22.8804 286.634 23.0918C286.712 23.3032 286.834 23.4957 286.992 23.6565C287.15 23.8172 287.34 23.9426 287.55 24.0242C287.76 24.1058 287.985 24.1419 288.21 24.13C288.497 24.1451 288.781 24.0754 289.029 23.9295C289.276 23.7837 289.475 23.5682 289.6 23.31H291.89C291.65 24.0855 291.15 24.7546 290.474 25.2046C289.798 25.6545 288.988 25.8577 288.18 25.78C287.638 25.8307 287.091 25.7628 286.578 25.5811C286.065 25.3993 285.598 25.1079 285.209 24.7273C284.819 24.3467 284.518 23.8859 284.325 23.3769C284.131 22.8679 284.051 22.323 284.09 21.78C284.089 21.2576 284.192 20.7401 284.393 20.2581C284.594 19.776 284.89 19.3391 285.263 18.973C285.635 18.6068 286.077 18.3189 286.563 18.126C287.049 17.9332 287.568 17.8393 288.09 17.85C290.77 17.85 292.09 19.85 291.99 22.4L286.54 22.43ZM289.54 21.06C289.543 20.668 289.393 20.2902 289.123 20.0065C288.852 19.7229 288.482 19.5556 288.09 19.54C287.683 19.5469 287.294 19.7075 287.001 19.9895C286.708 20.2715 286.533 20.6539 286.51 21.06H289.54Z" fill="#1A1A1A"/>
<path d="M294.89 23.11C294.886 23.2712 294.922 23.4308 294.993 23.5753C295.065 23.7198 295.17 23.8449 295.3 23.94C295.566 24.118 295.88 24.2089 296.2 24.2C296.68 24.2 297.35 24 297.35 23.41C297.35 22.82 296.59 22.72 296.16 22.62C294.62 22.23 292.69 22.19 292.69 20.17C292.69 18.37 294.63 17.88 296.1 17.88C297.74 17.88 299.46 18.36 299.54 20.3H297.28C297.292 20.1737 297.27 20.0466 297.215 19.9321C297.16 19.8176 297.076 19.7201 296.97 19.65C296.732 19.5195 296.462 19.4572 296.19 19.47C295.79 19.47 295.14 19.47 295.14 20.03C295.14 20.73 296.78 20.86 297.9 21.11C298.404 21.1598 298.873 21.3893 299.222 21.7565C299.571 22.1237 299.776 22.6041 299.8 23.11C299.8 25.11 297.9 25.77 296.22 25.77C294.54 25.77 292.63 25.18 292.56 23.1L294.89 23.11Z" fill="#1A1A1A"/>
<path d="M167.57 30.07H171.24C173.96 30.07 175.14 32.07 175.14 34.5C175.14 36.93 173.96 38.92 171.24 38.92H167.57V30.07ZM169.12 37.66H170.64C173.07 37.66 173.64 36.27 173.64 34.5C173.64 32.73 173.12 31.34 170.64 31.34H169.12V37.66Z" fill="#1A1A1A"/>
<path d="M177.21 36.08C177.183 36.3208 177.208 36.5647 177.282 36.7953C177.356 37.0259 177.479 37.2381 177.642 37.4177C177.804 37.5974 178.003 37.7404 178.225 37.8374C178.448 37.9343 178.688 37.9829 178.93 37.98C179.275 38.0123 179.621 37.923 179.908 37.7277C180.194 37.5324 180.404 37.2432 180.5 36.91H181.83C181.684 37.5593 181.313 38.1358 180.782 38.5369C180.251 38.9379 179.594 39.1375 178.93 39.1C178.492 39.1224 178.055 39.0486 177.648 38.8837C177.242 38.7188 176.877 38.4668 176.578 38.1455C176.28 37.8243 176.056 37.4415 175.921 37.0241C175.787 36.6068 175.745 36.1651 175.8 35.73C175.758 35.2856 175.813 34.8374 175.961 34.4162C176.109 33.9949 176.345 33.6105 176.655 33.2892C176.965 32.9679 177.341 32.7173 177.756 32.5546C178.172 32.3919 178.618 32.3208 179.064 32.3463C179.509 32.3718 179.944 32.4932 180.338 32.7023C180.733 32.9113 181.077 33.2031 181.349 33.5576C181.62 33.9121 181.811 34.321 181.91 34.7564C182.009 35.1917 182.012 35.6432 181.92 36.08H177.21ZM180.51 35.15C180.51 34.7124 180.336 34.2927 180.027 33.9833C179.717 33.6738 179.298 33.5 178.86 33.5C178.422 33.5 178.003 33.6738 177.693 33.9833C177.384 34.2927 177.21 34.7124 177.21 35.15H180.51Z" fill="#1A1A1A"/>
<path d="M182.79 32.52H184.13V33.38C184.34 33.0459 184.637 32.7759 184.99 32.5995C185.343 32.4232 185.737 32.3472 186.13 32.38C188.13 32.38 189.13 33.92 189.13 35.79C189.13 37.66 188.27 39.14 186.37 39.14C185.958 39.1653 185.547 39.0871 185.173 38.9124C184.799 38.7377 184.475 38.4722 184.23 38.14V41.34H182.82L182.79 32.52ZM185.95 33.46C184.76 33.46 184.15 34.36 184.15 35.73C184.15 37.1 184.81 38 186 38C187.29 38 187.77 36.86 187.77 35.75C187.77 34.64 187.11 33.46 186 33.46H185.95Z" fill="#1A1A1A"/>
<path d="M195.42 37.5C195.42 37.84 195.49 37.98 195.75 37.98C195.866 37.9884 195.983 37.9884 196.1 37.98V38.98C195.812 39.0768 195.513 39.134 195.21 39.15C194.64 39.15 194.21 38.95 194.12 38.36C193.503 38.8884 192.712 39.1698 191.9 39.15C191.632 39.176 191.361 39.1475 191.104 39.0662C190.847 38.9849 190.609 38.8525 190.404 38.6769C190.2 38.5013 190.033 38.2861 189.913 38.0443C189.794 37.8026 189.725 37.5392 189.71 37.27C189.71 35.68 190.98 35.42 192.17 35.27C193.17 35.08 194.09 35.19 194.09 34.36C194.09 33.53 193.34 33.5 192.77 33.5C191.97 33.5 191.42 33.82 191.35 34.5H189.94C190.04 32.86 191.44 32.37 192.85 32.37C194.1 32.37 195.42 32.88 195.42 34.23V37.5ZM194 35.71C193.447 35.9394 192.858 36.0714 192.26 36.1C191.65 36.2 191.11 36.42 191.11 37.16C191.11 37.9 191.91 37.98 192.41 37.98C192.91 37.98 194 37.66 194 36.77V35.71Z" fill="#1A1A1A"/>
<path d="M196.77 32.52H198.09V33.76C198.222 33.3548 198.477 33.0006 198.819 32.7463C199.161 32.492 199.574 32.35 200 32.34C200.176 32.3265 200.354 32.3265 200.53 32.34V33.7C200.33 33.7 200.12 33.64 199.92 33.64C198.92 33.64 198.19 34.42 198.19 35.83V38.88H196.78L196.77 32.52Z" fill="#1A1A1A"/>
<path d="M200.69 32.52H201.75V30.6H203.17V32.52H204.44V33.52H203.17V37C203.17 37.58 203.22 37.88 203.85 37.88C204.046 37.9048 204.244 37.9048 204.44 37.88V38.97C204.13 38.97 203.84 39.04 203.53 39.04C202.05 39.04 201.78 38.47 201.75 37.41V33.57H200.69V32.52Z" fill="#1A1A1A"/>
<path d="M205.19 32.52H206.53V33.41C206.73 33.0629 207.024 32.7789 207.377 32.5898C207.731 32.4007 208.13 32.3142 208.53 32.34C208.903 32.3128 209.276 32.4008 209.598 32.5921C209.92 32.7834 210.175 33.0689 210.33 33.41C210.543 33.0747 210.839 32.8 211.19 32.6126C211.54 32.4252 211.933 32.3313 212.33 32.34C212.623 32.2951 212.923 32.3203 213.204 32.4133C213.486 32.5063 213.741 32.6646 213.95 32.8752C214.159 33.0858 214.314 33.3428 214.405 33.6252C214.495 33.9076 214.518 34.2073 214.47 34.5V38.92H213.06V35.18C213.06 34.18 213 33.46 211.89 33.46C210.89 33.46 210.53 34.09 210.53 35.17V38.92H209.12V34.81C209.12 33.93 208.85 33.46 207.99 33.46C207.786 33.4695 207.587 33.5209 207.404 33.6111C207.221 33.7014 207.059 33.8284 206.927 33.9842C206.796 34.1401 206.698 34.3214 206.64 34.5169C206.582 34.7123 206.565 34.9176 206.59 35.12V38.92H205.18L205.19 32.52Z" fill="#1A1A1A"/>
<path d="M216.81 36.08C216.781 36.3212 216.805 36.5656 216.879 36.797C216.952 37.0283 217.075 37.2412 217.238 37.4212C217.401 37.6012 217.6 37.7443 217.823 37.8406C218.046 37.937 218.287 37.9846 218.53 37.98C218.874 38.0118 219.218 37.9222 219.503 37.7268C219.788 37.5314 219.996 37.2424 220.09 36.91H221.43C221.284 37.5593 220.913 38.1358 220.382 38.5369C219.851 38.9379 219.194 39.1375 218.53 39.1C216.53 39.1 215.4 37.69 215.4 35.73C215.358 35.2856 215.413 34.8374 215.561 34.4162C215.708 33.9949 215.945 33.6105 216.255 33.2892C216.565 32.9679 216.941 32.7173 217.356 32.5546C217.772 32.3919 218.218 32.3208 218.663 32.3463C219.109 32.3718 219.544 32.4932 219.938 32.7023C220.333 32.9113 220.677 33.2031 220.949 33.5576C221.22 33.9121 221.411 34.321 221.51 34.7564C221.608 35.1917 221.612 35.6432 221.52 36.08H216.81ZM220.11 35.15C220.11 34.7124 219.936 34.2927 219.627 33.9833C219.317 33.6738 218.898 33.5 218.46 33.5C218.022 33.5 217.603 33.6738 217.293 33.9833C216.984 34.2927 216.81 34.7124 216.81 35.15H220.11Z" fill="#1A1A1A"/>
<path d="M222.37 32.52H223.71V33.46C223.915 33.1117 224.207 32.8231 224.558 32.6231C224.909 32.4231 225.306 32.3186 225.71 32.32C226.014 32.2736 226.324 32.2976 226.617 32.3904C226.909 32.4831 227.177 32.642 227.398 32.8547C227.62 33.0675 227.789 33.3283 227.893 33.6171C227.998 33.9059 228.034 34.2148 228 34.52V38.92H226.59V34.92C226.59 33.92 226.17 33.48 225.34 33.48C225.126 33.4807 224.914 33.5257 224.717 33.6121C224.521 33.6985 224.344 33.8245 224.199 33.9822C224.053 34.1398 223.942 34.3258 223.872 34.5285C223.801 34.7311 223.774 34.9461 223.79 35.16V38.94H222.38L222.37 32.52Z" fill="#1A1A1A"/>
<path d="M228.56 32.52H229.62V30.6H231V32.52H232.27V33.52H231V37C231 37.58 231 37.88 231.68 37.88C231.876 37.9048 232.074 37.9048 232.27 37.88V38.97C231.96 38.97 231.66 39.04 231.35 39.04C229.88 39.04 229.61 38.47 229.58 37.41V33.57H228.52L228.56 32.52Z" fill="#1A1A1A"/>
<path d="M236 35.71C236.029 35.0764 236.244 34.4654 236.617 33.9526C236.991 33.4399 237.507 33.0481 238.101 32.8257C238.695 32.6033 239.341 32.5601 239.959 32.7016C240.577 32.843 241.141 33.1628 241.579 33.6214C242.017 34.0799 242.311 34.657 242.424 35.281C242.538 35.9051 242.465 36.5487 242.216 37.1321C241.967 37.7154 241.553 38.2128 241.024 38.5627C240.494 38.9125 239.874 39.0993 239.24 39.1C238.796 39.1221 238.352 39.0483 237.939 38.8836C237.525 38.719 237.152 38.4673 236.845 38.1457C236.538 37.8241 236.303 37.4401 236.157 37.0199C236.012 36.5996 235.958 36.1528 236 35.71ZM241.06 35.71C241.06 34.61 240.5 33.46 239.24 33.46C237.98 33.46 237.42 34.61 237.42 35.71C237.42 36.81 238 38 239.22 38C240.44 38 241 36.83 241 35.71H241.06Z" fill="#1A1A1A"/>
<path d="M242.67 32.52H243.72V32C243.72 30.37 244.58 30.09 245.49 30.09C245.826 30.0779 246.162 30.1081 246.49 30.18V31.28C246.277 31.2314 246.059 31.2079 245.84 31.21C245.45 31.21 245.14 31.35 245.14 31.88V32.54H246.35V33.54H245.14V38.89H243.73V33.57H242.68L242.67 32.52Z" fill="#1A1A1A"/>
<path d="M168.58 49C168.58 50.36 169.58 50.9 170.83 50.9C172.08 50.9 172.7 50.23 172.7 49.56C172.72 49.3224 172.659 49.0851 172.526 48.887C172.394 48.6889 172.197 48.5418 171.97 48.47C171.35 48.23 170.54 48.07 169.33 47.74C168.779 47.6784 168.271 47.4158 167.902 47.0025C167.533 46.5891 167.329 46.0541 167.33 45.5C167.33 43.72 168.97 42.89 170.56 42.89C172.41 42.89 173.96 43.89 173.96 45.72H172.41C172.34 44.58 171.57 44.16 170.5 44.16C169.78 44.16 168.88 44.42 168.88 45.31C168.88 45.93 169.3 46.31 169.93 46.45C170.07 46.45 172.03 46.99 172.48 47.13C172.976 47.2656 173.414 47.5601 173.726 47.9683C174.039 48.3765 174.209 48.8759 174.21 49.39C174.21 51.39 172.45 52.16 170.69 52.16C168.69 52.16 167.03 51.16 167 49H168.58Z" fill="#1A1A1A"/>
<path d="M174.88 48.76C174.909 48.1284 175.123 47.5193 175.496 47.0082C175.868 46.4971 176.382 46.1065 176.974 45.8849C177.566 45.6633 178.211 45.6203 178.827 45.7614C179.443 45.9025 180.005 46.2213 180.442 46.6784C180.879 47.1356 181.172 47.7109 181.285 48.333C181.397 48.9551 181.325 49.5967 181.077 50.1782C180.829 50.7597 180.415 51.2556 179.888 51.6043C179.36 51.9531 178.742 52.1393 178.11 52.14C177.667 52.1621 177.224 52.0886 176.812 51.9244C176.4 51.7603 176.028 51.5093 175.722 51.1887C175.416 50.868 175.182 50.4851 175.036 50.066C174.891 49.647 174.838 49.2015 174.88 48.76ZM179.93 48.76C179.93 47.66 179.37 46.51 178.11 46.51C176.85 46.51 176.29 47.66 176.29 48.76C176.29 49.86 176.85 51.03 178.11 51.03C179.37 51.03 179.93 49.88 179.93 48.76Z" fill="#1A1A1A"/>
<path d="M186.6 47.71C186.562 47.3587 186.388 47.0363 186.115 46.8119C185.842 46.5876 185.492 46.4792 185.14 46.51C184.41 46.51 183.38 46.89 183.38 48.84C183.38 49.9 183.85 51.03 185.08 51.03C185.472 51.0279 185.849 50.8752 186.132 50.6035C186.414 50.3318 186.582 49.9618 186.6 49.57H188C187.977 49.9314 187.883 50.2847 187.723 50.6097C187.564 50.9347 187.341 51.2249 187.069 51.4637C186.797 51.7025 186.48 51.8851 186.137 52.0012C185.794 52.1173 185.431 52.1644 185.07 52.14C184.64 52.158 184.212 52.0833 183.814 51.9212C183.415 51.759 183.057 51.5131 182.762 51.2002C182.467 50.8872 182.242 50.5145 182.104 50.1073C181.966 49.7 181.917 49.2679 181.96 48.84C181.96 46.9 183.01 45.39 185.12 45.39C185.462 45.3484 185.809 45.3758 186.141 45.4706C186.472 45.5654 186.781 45.7257 187.05 45.942C187.318 46.1582 187.541 46.4261 187.704 46.7298C187.867 47.0335 187.968 47.3668 188 47.71H186.6Z" fill="#1A1A1A"/>
<path d="M188.94 43.12H190.35V44.46H188.94V43.12ZM188.94 45.56H190.35V52H188.94V45.56Z" fill="#1A1A1A"/>
<path d="M197 50.55C197 50.89 197.07 51.03 197.33 51.03C197.446 51.0425 197.564 51.0425 197.68 51.03V52.03C197.392 52.1235 197.093 52.1774 196.79 52.19C196.22 52.19 195.79 52 195.7 51.41C195.083 51.9373 194.291 52.2154 193.48 52.19C193.212 52.216 192.942 52.1878 192.686 52.1071C192.43 52.0265 192.192 51.8949 191.988 51.7203C191.783 51.5458 191.616 51.3318 191.496 51.0912C191.376 50.8506 191.306 50.5883 191.29 50.32C191.29 48.72 192.56 48.46 193.75 48.32C194.75 48.13 195.67 48.24 195.67 47.41C195.67 46.58 194.92 46.55 194.35 46.55C193.55 46.55 193 46.87 192.93 47.55H191.52C191.62 45.9 193.02 45.42 194.43 45.42C195.68 45.42 197 45.93 197 47.28V50.55ZM195.59 48.76C195.037 48.9894 194.448 49.1213 193.85 49.15C193.24 49.24 192.7 49.47 192.7 50.21C192.7 50.95 193.5 51.03 194 51.03C194.5 51.03 195.59 50.71 195.59 49.81V48.76Z" fill="#1A1A1A"/>
<path d="M198.37 43.12H199.79V52H198.37V43.12Z" fill="#1A1A1A"/>
<path d="M205.49 49C205.49 50.36 206.49 50.9 207.73 50.9C208.97 50.9 209.6 50.23 209.6 49.56C209.62 49.3224 209.559 49.0851 209.426 48.887C209.293 48.6889 209.097 48.5418 208.87 48.47C208.25 48.23 207.45 48.07 206.23 47.74C205.679 47.6784 205.171 47.4158 204.802 47.0025C204.432 46.5891 204.229 46.0541 204.23 45.5C204.23 43.72 205.87 42.89 207.47 42.89C209.31 42.89 210.86 43.89 210.86 45.72H209.31C209.24 44.58 208.47 44.16 207.41 44.16C206.69 44.16 205.78 44.42 205.78 45.31C205.78 45.93 206.2 46.31 206.84 46.45C206.97 46.45 208.93 46.99 209.39 47.13C209.884 47.2675 210.319 47.5627 210.63 47.9708C210.94 48.3788 211.109 48.8772 211.11 49.39C211.11 51.39 209.35 52.16 207.59 52.16C205.59 52.16 203.94 51.16 203.9 49H205.49Z" fill="#1A1A1A"/>
<path d="M213.19 49.13C213.161 49.3712 213.185 49.6156 213.259 49.847C213.332 50.0783 213.455 50.2912 213.618 50.4712C213.781 50.6513 213.981 50.7943 214.203 50.8907C214.426 50.9871 214.667 51.0346 214.91 51.03C215.249 51.064 215.589 50.9801 215.873 50.7925C216.157 50.6049 216.368 50.325 216.47 50H217.81C217.662 50.6475 217.29 51.2217 216.759 51.6208C216.228 52.0198 215.573 52.218 214.91 52.18C214.471 52.204 214.033 52.1312 213.625 51.967C213.218 51.8028 212.851 51.551 212.552 51.2296C212.252 50.9081 212.027 50.5248 211.892 50.1067C211.757 49.6886 211.715 49.246 211.77 48.81C211.729 48.3657 211.785 47.9178 211.934 47.497C212.082 47.0762 212.32 46.6924 212.63 46.3719C212.94 46.0513 213.316 45.8015 213.732 45.6396C214.148 45.4776 214.594 45.4074 215.039 45.4336C215.485 45.4598 215.919 45.5818 216.313 45.7914C216.707 46.001 217.051 46.2931 217.322 46.6478C217.592 47.0026 217.783 47.4116 217.881 47.8469C217.979 48.2822 217.982 48.7335 217.89 49.17L213.19 49.13ZM216.48 48.2C216.498 47.9732 216.468 47.7452 216.394 47.5303C216.319 47.3154 216.201 47.1182 216.046 46.9512C215.892 46.7842 215.704 46.651 215.496 46.5598C215.288 46.4687 215.063 46.4217 214.835 46.4217C214.608 46.4217 214.382 46.4687 214.174 46.5598C213.966 46.651 213.778 46.7842 213.624 46.9512C213.469 47.1182 213.351 47.3154 213.276 47.5303C213.202 47.7452 213.172 47.9732 213.19 48.2H216.48Z" fill="#1A1A1A"/>
<path d="M218.74 45.56H220.07V46.8C220.209 46.3958 220.468 46.044 220.814 45.7919C221.159 45.5398 221.573 45.3995 222 45.39C222.176 45.377 222.354 45.377 222.53 45.39V46.75C222.33 46.75 222.12 46.69 221.92 46.69C220.92 46.69 220.19 47.47 220.19 48.88V51.88H218.77L218.74 45.56Z" fill="#1A1A1A"/>
<path d="M222.67 45.56H224.21L225.83 50.48L227.39 45.56H228.85L226.59 52H225L222.67 45.56Z" fill="#1A1A1A"/>
<path d="M229.52 43.12H230.93V44.46H229.52V43.12ZM229.52 45.56H230.93V52H229.52V45.56Z" fill="#1A1A1A"/>
<path d="M236.51 47.71C236.472 47.3587 236.298 47.0363 236.025 46.8119C235.752 46.5876 235.402 46.4792 235.05 46.51C234.32 46.51 233.29 46.89 233.29 48.84C233.29 49.9 233.76 51.03 234.99 51.03C235.383 51.0303 235.761 50.8784 236.044 50.6062C236.328 50.334 236.495 49.9626 236.51 49.57H237.92C237.898 49.931 237.806 50.2841 237.647 50.609C237.488 50.9339 237.267 51.2242 236.995 51.4631C236.724 51.702 236.408 51.8848 236.065 52.001C235.723 52.1172 235.361 52.1644 235 52.14C234.57 52.158 234.142 52.0833 233.744 51.9212C233.345 51.759 232.986 51.5131 232.692 51.2002C232.397 50.8872 232.172 50.5145 232.034 50.1073C231.896 49.7 231.847 49.2679 231.89 48.84C231.89 46.9 232.94 45.39 235.05 45.39C235.392 45.3484 235.739 45.3758 236.071 45.4706C236.402 45.5654 236.711 45.7257 236.98 45.942C237.248 46.1582 237.471 46.4261 237.634 46.7298C237.797 47.0335 237.898 47.3668 237.93 47.71H236.51Z" fill="#1A1A1A"/>
<path d="M239.94 49.13C239.911 49.3712 239.935 49.6156 240.009 49.847C240.082 50.0783 240.205 50.2912 240.368 50.4712C240.531 50.6513 240.731 50.7943 240.953 50.8907C241.176 50.9871 241.417 51.0346 241.66 51.03C241.999 51.064 242.339 50.9801 242.623 50.7925C242.907 50.6049 243.118 50.325 243.22 50H244.56C244.412 50.6475 244.04 51.2217 243.509 51.6208C242.978 52.0198 242.323 52.218 241.66 52.18C241.221 52.204 240.783 52.1312 240.375 51.967C239.968 51.8028 239.601 51.551 239.302 51.2296C239.002 50.9081 238.777 50.5248 238.642 50.1067C238.507 49.6886 238.465 49.246 238.52 48.81C238.479 48.3657 238.535 47.9178 238.684 47.497C238.832 47.0762 239.07 46.6924 239.38 46.3719C239.69 46.0513 240.066 45.8015 240.482 45.6396C240.898 45.4776 241.344 45.4074 241.789 45.4336C242.235 45.4598 242.669 45.5818 243.063 45.7914C243.457 46.001 243.801 46.2931 244.072 46.6478C244.342 47.0026 244.533 47.4116 244.631 47.8469C244.729 48.2822 244.732 48.7335 244.64 49.17L239.94 49.13ZM243.23 48.2C243.248 47.9732 243.218 47.7452 243.144 47.5303C243.069 47.3154 242.951 47.1182 242.796 46.9512C242.642 46.7842 242.454 46.651 242.246 46.5598C242.038 46.4687 241.813 46.4217 241.585 46.4217C241.358 46.4217 241.133 46.4687 240.924 46.5598C240.716 46.651 240.528 46.7842 240.374 46.9512C240.219 47.1182 240.101 47.3154 240.026 47.5303C239.952 47.7452 239.922 47.9732 239.94 48.2H243.23Z" fill="#1A1A1A"/>
<path d="M246.57 49.91C246.65 50.73 247.27 51.03 248.02 51.03C248.55 51.03 249.48 50.92 249.45 50.19C249.42 49.46 248.38 49.36 247.35 49.12C246.32 48.88 245.3 48.53 245.3 47.23C245.3 45.93 246.81 45.39 247.97 45.39C249.13 45.39 250.47 45.94 250.65 47.39H249.17C249.05 46.72 248.49 46.54 247.87 46.54C247.46 46.54 246.71 46.64 246.71 47.19C246.71 47.89 247.71 47.99 248.79 48.19C249.87 48.39 250.86 48.8 250.86 50.06C250.86 51.59 249.32 52.14 248 52.14C246.39 52.14 245.18 51.43 245.16 49.91H246.57Z" fill="#1A1A1A"/>
</g>
<defs>
<clipPath id="clip0_293_43601">
<rect width="300" height="52" fill="white"/>
</clipPath>
</defs>
</svg>
