<svg width="147" height="28" viewBox="0 0 147 28" fill="none" xmlns="http://www.w3.org/2000/svg">
<path d="M146.155 11.7342L147 10.6241V7.24954L144.465 3.875H136.019L133.484 7.24954V5.00231L132.639 3.875H129.26L128.415 5.00231V7.24954L126.725 9.49923L125.037 7.24954V5.00231L124.19 3.875H120.811L119.966 5.00231L119.121 3.875H115.742L114.897 5.00231V9.50169L110.673 3.87746H107.293L106.448 5.00477V20.7502L107.293 21.875H110.673L111.519 20.7502V16.2508L115.742 21.8725H119.121L119.966 20.7477V11.7489L124.189 17.3707V20.7452L125.035 21.8701H128.415L129.26 20.7452V17.3707L133.482 11.7489V18.498L136.017 21.8701H144.464L146.998 18.498V15.1235L146.153 13.9962H141.929V15.1235H138.551V10.6241H141.929V11.7342H146.155Z" fill="#031553"/>
<path d="M146.397 4.63556C146.477 4.63556 146.545 4.62572 146.545 4.50265C146.545 4.39927 146.469 4.38697 146.407 4.38697H146.279V4.63556H146.397ZM146.281 5.11799H146.175V4.26636H146.418C146.571 4.26636 146.651 4.33774 146.651 4.51003C146.651 4.6651 146.58 4.72664 146.484 4.7414L146.664 5.11553H146.545L146.381 4.75125H146.283V5.11553H146.281V5.11799ZM146.394 4.04237C146.144 4.04237 145.95 4.30328 145.95 4.67741C145.95 5.02692 146.12 5.31244 146.394 5.31244C146.641 5.31244 146.835 5.054 146.835 4.67741C146.835 4.30082 146.641 4.04237 146.394 4.04237ZM146.394 5.44782C146.063 5.44782 145.826 5.11799 145.826 4.67987C145.826 4.21713 146.089 3.91192 146.394 3.91192C146.699 3.91192 146.959 4.21713 146.959 4.67987C146.959 5.14015 146.699 5.44782 146.394 5.44782Z" fill="#031553"/>
<path d="M32.4445 20.5701V4.32302H36.0398L39.9541 16.7399L43.9086 4.32302H47.4823V20.5701H44.9306V7.8298L40.9946 20.5701H38.8981L34.9931 7.90728V20.5701H32.4414H32.4445Z" fill="#031553"/>
<path d="M52.0996 24.279C51.4183 24.279 50.8052 24.1644 50.2601 23.932V22.1803L51.3347 22.214C51.7682 22.2376 52.1213 22.2106 52.3938 22.1365C52.6663 22.0624 52.8769 21.958 53.0286 21.8266C53.1804 21.6952 53.2918 21.5571 53.3631 21.4122C53.4343 21.2674 53.4931 21.1394 53.5334 21.035L53.8121 20.1827L49.6501 8.95831H52.1584L54.9889 17.1711L57.8193 8.95831H60.2781L55.8776 21.0046C55.5463 21.8805 55.1901 22.5576 54.8092 23.0326C54.4283 23.5076 54.0103 23.8343 53.5582 24.0162C53.106 24.1948 52.6198 24.2857 52.0965 24.2857L52.0996 24.279Z" fill="#031553"/>
<path d="M66.8927 4.32302H76.6629L76.6537 6.63729H69.4444V11.313H75.8082V13.5936H69.4444V20.5701H66.8927V4.32302Z" fill="#031553"/>
<path d="M81.6209 4.33652V6.92028H79.1311V4.33652H81.6209ZM81.5899 8.95495V20.5701H79.1745V8.95495H81.5899Z" fill="#031553"/>
<path d="M87.7865 20.7385C87.099 20.7385 86.5478 20.6442 86.1328 20.4589C85.721 20.2736 85.4113 20.021 85.2038 19.7077C84.9963 19.3944 84.8632 19.0407 84.8012 18.6466C84.7393 18.2524 84.7083 17.8516 84.7083 17.4406V3.875H87.1672V17.1206C87.1672 17.6225 87.2632 18.0133 87.4521 18.2895C87.641 18.5657 87.9506 18.7274 88.378 18.7712L88.9137 18.7948V20.5128C88.7279 20.5735 88.539 20.624 88.347 20.6711C88.155 20.7149 87.9692 20.7385 87.7896 20.7385H87.7865Z" fill="#031553"/>
<path d="M92.9829 15.3924C92.9767 16.0527 93.0727 16.6355 93.2709 17.1441C93.4722 17.6528 93.7664 18.0537 94.1596 18.34C94.5529 18.6297 95.036 18.7712 95.6151 18.7712C96.1942 18.7712 96.7207 18.6264 97.1604 18.34C97.597 18.0503 97.8881 17.6124 98.0337 17.0195H100.338C100.214 17.828 99.9165 18.5152 99.4489 19.0744C98.9813 19.637 98.4146 20.0648 97.7488 20.3545C97.083 20.6475 96.3924 20.7924 95.6771 20.7924C94.6427 20.7924 93.7354 20.5532 92.955 20.0782C92.1746 19.6033 91.5646 18.9228 91.1279 18.0402C90.6913 17.1576 90.4714 16.1032 90.4714 14.8838C90.4714 13.6643 90.6696 12.6335 91.0691 11.7105C91.4686 10.7841 92.0446 10.0565 92.8002 9.52423C93.5558 8.99198 94.46 8.72586 95.5222 8.72586C96.5844 8.72586 97.4608 8.9684 98.1823 9.45686C98.9008 9.94532 99.4458 10.6224 99.8143 11.4949C100.183 12.3674 100.366 13.3881 100.366 14.557V15.3891H92.9798L92.9829 15.3924ZM92.9829 13.6946H97.9934C97.9934 13.1321 97.9036 12.6268 97.724 12.172C97.5444 11.7206 97.2719 11.3602 96.9034 11.094C96.5349 10.8279 96.0703 10.6965 95.5129 10.6965C94.9555 10.6965 94.4972 10.8414 94.1194 11.1345C93.7416 11.4275 93.4536 11.8014 93.2616 12.263C93.0696 12.7245 92.9767 13.1994 92.9829 13.6946Z" fill="#031553"/>
<path d="M17.9612 1.86807C18.353 1.86807 19.2836 2.0446 22.4535 3.29919C25.8995 4.66306 26.5382 5.24518 26.7909 5.45532C27.0437 5.66547 27.1828 6.05845 27.0868 6.48926C26.9908 6.92007 26.2404 9.48809 24.9004 13.3843C23.5623 17.2804 22.5612 19.8043 22.381 20.1763C22.2007 20.5483 21.8559 20.7542 21.5307 20.7563C21.5229 20.7563 21.5131 20.7563 21.5033 20.7563C21.1604 20.7563 20.3082 20.687 16.9327 19.3525C13.4689 17.9823 12.8322 17.4507 12.5873 17.2195C12.3405 16.9883 12.2034 16.5932 12.2915 16.1856C12.3797 15.7779 13.1477 13.1594 14.4857 9.26533C15.8238 5.37126 16.8406 2.80324 17.011 2.45229C17.1834 2.10344 17.5263 1.8996 17.8613 1.87228C17.8907 1.87017 17.922 1.86807 17.9573 1.86807H17.9612ZM17.9573 0.5C17.8907 0.5 17.828 0.502101 17.7614 0.508406C16.964 0.573552 16.2431 1.07581 15.8806 1.81554C15.6455 2.29257 14.5798 5.03292 13.2867 8.7925C11.9565 12.6614 11.1591 15.3555 11.0475 15.8745C10.8574 16.753 11.1239 17.6608 11.743 18.2471C12.2288 18.7052 13.1398 19.3105 16.4879 20.6365C19.8028 21.9479 20.8822 22.1244 21.4994 22.1244H21.5366C22.3653 22.116 23.1215 21.6116 23.5094 20.8046C23.7386 20.3297 24.7633 17.7239 26.0915 13.8571C27.3963 10.0597 28.1996 7.35087 28.321 6.80869C28.5287 5.87983 28.2309 4.92155 27.5609 4.37095L27.5374 4.35204C27.1671 4.04522 26.3991 3.40637 22.8884 2.01728C19.5226 0.687033 18.5293 0.502101 17.9553 0.502101L17.9573 0.5Z" fill="#11D4B1"/>
<path d="M3.31286 6.07738C3.18748 6.07738 3.0621 6.02694 2.9661 5.92397L1.56925 4.4256C1.37725 4.21965 1.37725 3.88762 1.56925 3.68167C1.76124 3.47572 2.07078 3.47572 2.26278 3.68167L3.65963 5.18004C3.85162 5.38598 3.85162 5.71802 3.65963 5.92397C3.56363 6.02694 3.43825 6.07738 3.31286 6.07738Z" fill="#11D4B1"/>
<path d="M2.46849 8.26922H0.48978C0.219421 8.26922 0 8.03386 0 7.74385C0 7.45384 0.219421 7.21847 0.48978 7.21847H2.46849C2.73885 7.21847 2.95827 7.45384 2.95827 7.74385C2.95827 8.03386 2.73885 8.26922 2.46849 8.26922Z" fill="#11D4B1"/>
<path d="M5.35627 5.17164C5.08592 5.17164 4.86649 4.93627 4.86649 4.64626V2.52375C4.86649 2.23375 5.08592 1.99838 5.35627 1.99838C5.62663 1.99838 5.84605 2.23375 5.84605 2.52375V4.64626C5.84605 4.93627 5.62663 5.17164 5.35627 5.17164Z" fill="#11D4B1"/>
<path d="M12.4718 4.56218C13.1007 4.56218 14.2644 4.66936 16.5605 5.05604C20.1888 5.66757 20.9195 6.11939 21.2055 6.2749C21.4916 6.43041 21.6973 6.80028 21.6797 7.2626C21.662 7.72493 21.3779 10.5115 20.753 14.7839C20.1261 19.0562 19.5912 21.8554 19.4796 22.2736C19.3698 22.6939 19.0662 22.9797 18.7469 23.0574C18.6195 23.0869 18.4177 23.1289 17.9906 23.1289C17.3422 23.1289 16.1804 23.0343 13.9823 22.6645C10.3344 22.0487 9.6154 21.6515 9.33329 21.4708C9.05117 21.2901 8.84351 20.9181 8.85918 20.4831C8.87485 20.0481 9.1648 17.2048 9.78976 12.9345C10.4147 8.6643 10.9594 5.81678 11.0651 5.4217C11.1709 5.02661 11.4746 4.74291 11.7979 4.63784C11.9174 4.60001 12.1015 4.56218 12.4698 4.56218H12.4718ZM12.4698 3.19411C12.0388 3.19411 11.7175 3.23404 11.4315 3.32651C10.6674 3.57028 10.0582 4.22805 9.83874 5.03922C9.69376 5.57721 9.1315 8.60336 8.52809 12.7202C7.90705 16.9589 7.60143 19.8779 7.58183 20.4306C7.55049 21.3426 7.96974 22.1916 8.67698 22.6434C9.23925 23.0028 10.2462 23.4168 13.7805 24.0136C15.7043 24.3372 17.0796 24.4949 17.9867 24.4949C18.5137 24.4949 18.8056 24.4423 19.0211 24.3898C19.8263 24.1965 20.4709 23.5282 20.704 22.6434C20.8451 22.1097 21.3877 19.2306 22.0088 14.994C22.6181 10.833 22.9276 7.89726 22.9511 7.31935C22.9903 6.35056 22.5299 5.46162 21.7796 5.05393L21.7541 5.03922C21.3348 4.80806 20.4611 4.32892 16.7564 3.70477C14.7189 3.36223 13.3162 3.19411 12.4698 3.19411Z" fill="#04A487"/>
<path d="M11.1258 6.2665C7.13511 6.2665 6.30445 6.53129 5.79312 6.80238C5.08196 7.18065 4.58042 7.94349 4.48247 8.79039C4.41782 9.3641 4.30027 12.5584 4.30027 16.8811C4.30027 21.2039 4.41586 24.3351 4.48051 24.9383C4.57846 25.8566 5.11134 26.6363 5.86756 26.9746C6.47881 27.2478 7.53869 27.5 11.1219 27.5C14.7051 27.5 15.7513 27.2499 16.3704 26.9788C17.1325 26.6447 17.6673 25.8629 17.7653 24.9404C17.826 24.3709 17.9455 21.33 17.9455 16.8832C17.9455 12.4365 17.826 9.45867 17.7653 8.86184C17.6654 7.88675 17.0874 7.07137 16.292 6.78557L16.2646 6.77506C15.814 6.61114 14.8775 6.2665 11.1219 6.2665H11.1258Z" fill="url(#paint0_radial_1620_5801)"/>
<path d="M9.24901 13.7289C10.4002 13.7289 11.3335 12.7278 11.3335 11.4929C11.3335 10.258 10.4002 9.25692 9.24901 9.25692C8.09777 9.25692 7.16451 10.258 7.16451 11.4929C7.16451 12.7278 8.09777 13.7289 9.24901 13.7289Z" fill="#031553"/>
<defs>
<radialGradient id="paint0_radial_1620_5801" cx="0" cy="0" r="1" gradientUnits="userSpaceOnUse" gradientTransform="translate(131.509 3.45279) scale(206.285 26.1182)">
<stop offset="0.21" stop-color="#8195DC"/>
<stop offset="0.39" stop-color="#6D90DD"/>
<stop offset="0.66" stop-color="#568ADF"/>
<stop offset="0.73" stop-color="#4E81DF"/>
<stop offset="0.84" stop-color="#3A6BDF"/>
<stop offset="0.99" stop-color="#1946DF"/>
<stop offset="1" stop-color="#1642DF"/>
</radialGradient>
</defs>
</svg>
