<svg width="235" height="54" viewBox="0 0 235 54" fill="none" xmlns="http://www.w3.org/2000/svg">
<g clip-path="url(#clip0_225_13885)">
<path d="M0.439941 42H2.85994V45.38H5.99994V42H8.41994V51.28H5.99994V47.45H2.85994V51.27H0.439941V42Z" fill="#1A1A1A"/>
<path d="M12.9999 44.33C13.7068 44.326 14.399 44.532 14.9887 44.9219C15.5784 45.3118 16.0391 45.8679 16.3124 46.5199C16.5856 47.1719 16.6592 47.8903 16.5237 48.5841C16.3882 49.278 16.0498 49.9159 15.5513 50.4172C15.0529 50.9185 14.4168 51.2605 13.7238 51.3999C13.0307 51.5393 12.3119 51.4697 11.6584 51.2001C11.0049 50.9305 10.4461 50.473 10.053 49.8855C9.6598 49.2979 9.44991 48.6069 9.44989 47.9C9.43327 47.4284 9.51358 46.9584 9.68584 46.5191C9.8581 46.0798 10.1187 45.6804 10.4514 45.3458C10.7841 45.0112 11.182 44.7484 11.6203 44.5737C12.0587 44.399 12.5282 44.316 12.9999 44.33ZM12.9999 49.77C13.9999 49.77 14.3499 48.77 14.3499 47.9C14.3499 47.03 14.0599 46 12.9999 46C11.9399 46 11.6999 47 11.6999 47.9C11.6999 48.8 11.9999 49.77 12.9999 49.77Z" fill="#1A1A1A"/>
<path d="M24.18 51.27H22V50.35C21.7796 50.6814 21.483 50.9551 21.135 51.1483C20.787 51.3414 20.3978 51.4483 20 51.46C18.06 51.46 17.5 50.35 17.5 48.58V44.52H19.71V48.43C19.71 49.33 20.1 49.64 20.8 49.64C21.28 49.64 22.01 49.33 22.01 48.14V44.52H24.22L24.18 51.27Z" fill="#1A1A1A"/>
<path d="M27.2101 49.05C27.2081 49.1954 27.2406 49.3391 27.3049 49.4695C27.3692 49.5999 27.4635 49.7131 27.5801 49.8C27.8214 49.9632 28.1091 50.0438 28.4001 50.03C28.8301 50.03 29.4001 49.85 29.4001 49.32C29.4001 48.79 28.7101 48.69 28.3201 48.6C26.9301 48.25 25.1801 48.21 25.1801 46.39C25.1801 44.77 26.9401 44.33 28.2701 44.33C29.6001 44.33 31.2701 44.76 31.3701 46.51H29.3701C29.381 46.397 29.3607 46.2831 29.3113 46.1808C29.2619 46.0785 29.1854 45.9918 29.0901 45.93C28.8743 45.8072 28.6281 45.7483 28.3801 45.76C28.0201 45.76 27.3801 45.76 27.3801 46.26C27.3801 46.9 28.8701 47.02 29.8801 47.26C30.3379 47.3054 30.7639 47.5144 31.0799 47.8488C31.3959 48.1832 31.5806 48.6204 31.6001 49.08C31.6001 50.89 29.8801 51.48 28.3601 51.48C26.8401 51.48 25.1201 50.95 25.0601 49.07L27.2101 49.05Z" fill="#1A1A1A"/>
<path d="M34.7998 43.68H32.5898V42H34.7998V43.68ZM32.5898 44.52H34.7998V51.27H32.5898V44.52Z" fill="#1A1A1A"/>
<path d="M36.0898 44.52H38.2298V45.44C38.4661 45.0963 38.7827 44.8155 39.1522 44.622C39.5216 44.4286 39.9328 44.3283 40.3498 44.33C42.5998 44.33 42.7798 45.96 42.7798 46.94V51.27H40.5998V48C40.5998 47.07 40.6998 46.14 39.4898 46.14C38.6598 46.14 38.2998 46.84 38.2998 47.58V51.26H36.0898V44.52Z" fill="#1A1A1A"/>
<path d="M50.6002 50.45C50.6002 51.55 50.3902 53.63 47.2302 53.63C45.6602 53.63 44.2302 53.28 43.9202 51.48H46.1302C46.1377 51.6014 46.1767 51.7187 46.2433 51.8204C46.3099 51.9221 46.4019 52.0046 46.5102 52.06C46.7611 52.1722 47.036 52.2203 47.3102 52.2C48.3702 52.2 48.4702 51.46 48.4702 50.63V50C48.2807 50.3045 48.0172 50.5559 47.7041 50.7308C47.3911 50.9057 47.0388 50.9983 46.6802 51C44.6802 51 43.6802 49.55 43.6802 47.65C43.6802 45.75 44.7302 44.35 46.6802 44.35C47.0444 44.3359 47.4054 44.4217 47.7244 44.5979C48.0434 44.7742 48.3082 45.0342 48.4902 45.35V44.5H50.6002V50.45ZM47.1802 46C46.1802 46 45.9002 46.85 45.9002 47.69C45.9002 48.53 46.2602 49.27 47.1702 49.27C48.0802 49.27 48.5102 48.54 48.5102 47.7C48.5102 46.86 48.1702 46 47.1802 46Z" fill="#1A1A1A"/>
<path d="M55.6802 42H60.0902C61.8202 42 63.4502 42.79 63.4502 45C63.4502 47.21 62.1302 48.19 60.0902 48.19H58.0902V51.29H55.6802V42ZM58.1002 46.3H59.7302C60.4802 46.3 61.0302 45.99 61.0302 45.15C61.0456 44.9785 61.0219 44.8057 60.961 44.6446C60.9 44.4835 60.8033 44.3383 60.6782 44.22C60.5531 44.1016 60.4028 44.0131 60.2386 43.9612C60.0744 43.9092 59.9006 43.8951 59.7302 43.92H58.1002V46.3Z" fill="#1A1A1A"/>
<path d="M64.1899 44.52H66.3399V45.7C66.4878 45.2954 66.7623 44.9493 67.1226 44.7132C67.483 44.4772 67.9099 44.3638 68.3399 44.39C68.5127 44.3702 68.6872 44.3702 68.8599 44.39V46.39C68.5874 46.3078 68.3046 46.264 68.0199 46.26C67.8022 46.243 67.5834 46.2721 67.3778 46.3455C67.1721 46.4189 66.9843 46.535 66.8267 46.686C66.669 46.8371 66.545 47.0198 66.4629 47.2221C66.3807 47.4244 66.3422 47.6418 66.3499 47.86V51.2H64.1899V44.52Z" fill="#1A1A1A"/>
<path d="M71.3602 48.43C71.3412 48.6358 71.3668 48.8432 71.4351 49.0382C71.5035 49.2333 71.613 49.4113 71.7562 49.5602C71.8995 49.7092 72.0731 49.8255 72.2653 49.9014C72.4575 49.9773 72.6638 50.0109 72.8702 50C73.1295 50.0131 73.387 49.95 73.6109 49.8185C73.8348 49.687 74.0153 49.4929 74.1302 49.26H76.2002C75.9826 49.9618 75.5294 50.567 74.9173 50.9733C74.3051 51.3796 73.5714 51.5621 72.8402 51.49C72.354 51.5341 71.864 51.4726 71.4038 51.3099C70.9435 51.1471 70.5239 50.8869 70.1735 50.5469C69.8231 50.207 69.5503 49.7954 69.3737 49.3403C69.1971 48.8852 69.1208 48.3973 69.1502 47.91C69.1486 47.4357 69.2424 46.966 69.426 46.5287C69.6095 46.0914 69.879 45.6954 70.2185 45.3643C70.5581 45.0332 70.9606 44.7736 71.4024 44.6011C71.8442 44.4286 72.3161 44.3466 72.7902 44.36C75.2102 44.36 76.4202 46.18 76.3102 48.46L71.3602 48.43ZM74.1002 47.2C74.1056 46.8443 73.9716 46.5007 73.7267 46.2428C73.4818 45.9848 73.1456 45.833 72.7902 45.82C72.4216 45.827 72.0694 45.9732 71.8042 46.2292C71.5389 46.4851 71.3803 46.8319 71.3602 47.2H74.1002Z" fill="#1A1A1A"/>
<path d="M78.9101 49.05C78.9081 49.1954 78.9406 49.3391 79.0049 49.4695C79.0692 49.5999 79.1635 49.7131 79.2801 49.8C79.522 49.9619 79.8092 50.0424 80.1001 50.03C80.5301 50.03 81.1001 49.85 81.1001 49.32C81.1001 48.79 80.4101 48.69 80.0201 48.6C78.6301 48.25 76.8901 48.21 76.8901 46.39C76.8901 44.77 78.6401 44.33 79.9701 44.33C81.3001 44.33 82.9701 44.76 83.0701 46.51H81.0701C81.081 46.397 81.0607 46.2831 81.0113 46.1808C80.9619 46.0785 80.8854 45.9918 80.7901 45.93C80.5743 45.8072 80.3281 45.7483 80.0801 45.76C79.7201 45.76 79.1401 45.76 79.1401 46.26C79.1401 46.9 80.6201 47.02 81.6301 47.26C82.0879 47.3054 82.5139 47.5144 82.8299 47.8488C83.1459 48.1832 83.3306 48.6204 83.3501 49.08C83.3501 50.89 81.6301 51.48 80.1101 51.48C78.5901 51.48 76.8701 50.95 76.8101 49.07L78.9101 49.05Z" fill="#1A1A1A"/>
<path d="M86.0499 48.43C86.0311 48.6349 86.0564 48.8414 86.1242 49.0357C86.1919 49.23 86.3005 49.4075 86.4427 49.5563C86.5848 49.705 86.7572 49.8216 86.9481 49.8982C87.1391 49.9747 87.3443 50.0094 87.5499 50C87.8108 50.0151 88.0705 49.953 88.2964 49.8214C88.5222 49.6898 88.7043 49.4945 88.8198 49.26H90.8798C90.6643 49.961 90.213 50.5659 89.6025 50.9723C88.992 51.3787 88.2597 51.5616 87.5298 51.49C87.0433 51.5358 86.5526 51.4756 86.0916 51.3134C85.6306 51.1513 85.2102 50.8911 84.8594 50.5508C84.5087 50.2105 84.2359 49.7982 84.0599 49.3423C83.8838 48.8864 83.8088 48.3977 83.8398 47.91C83.8383 47.4357 83.9321 46.966 84.1156 46.5287C84.2991 46.0914 84.5687 45.6954 84.9082 45.3643C85.2477 45.0332 85.6503 44.7736 86.0921 44.6011C86.5339 44.4286 87.0058 44.3466 87.4799 44.36C89.8999 44.36 91.0998 46.18 90.9998 48.46L86.0499 48.43ZM88.7898 47.2C88.7928 46.8451 88.6579 46.5029 88.4135 46.2455C88.1692 45.9881 87.8344 45.8355 87.4799 45.82C87.1113 45.827 86.7591 45.9732 86.4938 46.2292C86.2286 46.4851 86.07 46.8319 86.0499 47.2H88.7898Z" fill="#1A1A1A"/>
<path d="M91.9101 44.52H94.0501V45.7C94.1979 45.2954 94.4724 44.9493 94.8328 44.7132C95.1932 44.4772 95.6201 44.3638 96.0501 44.39C96.2229 44.3702 96.3973 44.3702 96.5701 44.39V46.39C96.2943 46.307 96.0081 46.2632 95.7201 46.26C95.5032 46.2444 95.2855 46.2747 95.081 46.3488C94.8766 46.4228 94.6901 46.5391 94.5335 46.69C94.3769 46.8409 94.2539 47.0231 94.1723 47.2246C94.0908 47.4262 94.0525 47.6427 94.0601 47.86V51.2H91.8501L91.9101 44.52Z" fill="#1A1A1A"/>
<path d="M101.56 51.27H99L96.75 44.52H99.05L100.3 49L101.55 44.54H103.8L101.56 51.27Z" fill="#1A1A1A"/>
<path d="M104 46.6C103.995 46.2375 104.085 45.88 104.261 45.5627C104.436 45.2453 104.691 44.9791 105 44.79C105.668 44.4636 106.407 44.3057 107.15 44.33C108.74 44.33 110.29 44.68 110.29 46.59V49.59C110.246 50.1789 110.335 50.7702 110.55 51.32H108.33C108.257 51.1138 108.213 50.8984 108.2 50.68C107.905 50.9631 107.554 51.1828 107.171 51.3256C106.787 51.4683 106.379 51.5311 105.97 51.51C105.683 51.5535 105.391 51.5342 105.112 51.4534C104.834 51.3725 104.576 51.2321 104.358 51.0419C104.139 50.8516 103.964 50.6161 103.845 50.3516C103.727 50.0871 103.667 49.7999 103.67 49.51C103.67 47.32 106.07 47.51 107.6 47.17C107.98 47.09 108.18 46.96 108.18 46.55C108.18 46.14 107.57 45.85 107.12 45.85C106.862 45.8184 106.602 45.8884 106.395 46.0452C106.188 46.202 106.05 46.4332 106.01 46.69L104 46.6ZM106.86 50.1C107.86 50.1 108.26 49.5 108.21 48.1C107.768 48.269 107.308 48.3897 106.84 48.46C106.35 48.58 105.93 48.79 105.93 49.32C105.93 49.85 106.39 50.1 106.89 50.1H106.86Z" fill="#1A1A1A"/>
<path d="M115.6 46H114.24V49C114.24 49.53 114.55 49.65 115.03 49.65C115.21 49.65 115.41 49.65 115.6 49.65V51.28C115.2 51.28 114.8 51.34 114.4 51.34C112.51 51.34 112.03 50.8 112.03 48.96V46H110.91V44.52H112V42.52H114.21V44.52H115.57L115.6 46Z" fill="#1A1A1A"/>
<path d="M118.74 43.68H116.53V42H118.74V43.68ZM116.53 44.52H118.74V51.27H116.53V44.52Z" fill="#1A1A1A"/>
<path d="M123.24 44.33C123.947 44.3261 124.639 44.5321 125.229 44.9219C125.819 45.3118 126.279 45.8679 126.552 46.5199C126.826 47.1719 126.899 47.8903 126.764 48.5841C126.628 49.278 126.29 49.9159 125.791 50.4172C125.293 50.9185 124.657 51.2605 123.964 51.3999C123.271 51.5393 122.552 51.4697 121.899 51.2001C121.245 50.9305 120.686 50.473 120.293 49.8855C119.9 49.298 119.69 48.6069 119.69 47.9C119.675 47.4288 119.756 46.9594 119.929 46.5208C120.102 46.0821 120.362 45.6834 120.695 45.3491C121.027 45.0148 121.424 44.7519 121.862 44.5767C122.3 44.4014 122.769 44.3175 123.24 44.33ZM123.24 49.77C124.24 49.77 124.6 48.77 124.6 47.9C124.6 47.03 124.27 46 123.24 46C122.21 46 121.9 47 121.9 47.88C121.9 48.76 122.22 49.77 123.24 49.77Z" fill="#1A1A1A"/>
<path d="M127.72 44.52H129.87V45.44C130.108 45.0961 130.427 44.8154 130.798 44.622C131.169 44.4286 131.582 44.3284 132 44.33C134.25 44.33 134.43 45.96 134.43 46.94V51.27H132.22V48C132.22 47.07 132.33 46.14 131.12 46.14C130.29 46.14 129.92 46.84 129.92 47.58V51.26H127.71L127.72 44.52Z" fill="#1A1A1A"/>
<path d="M145 50.49C144.263 51.1399 143.313 51.4959 142.33 51.49C141.939 51.5157 141.547 51.4621 141.178 51.3323C140.809 51.2025 140.469 50.9993 140.181 50.7349C139.892 50.4704 139.66 50.1502 139.498 49.7937C139.336 49.4371 139.249 49.0514 139.24 48.66C139.284 48.0528 139.507 47.4722 139.881 46.9917C140.254 46.5111 140.762 46.1521 141.34 45.96C140.853 45.4866 140.56 44.8481 140.52 44.17C140.539 43.8406 140.623 43.5182 140.767 43.2215C140.912 42.9247 141.113 42.6595 141.361 42.441C141.608 42.2226 141.896 42.0552 142.208 41.9486C142.52 41.842 142.851 41.7983 143.18 41.82C143.512 41.7983 143.845 41.8442 144.159 41.9549C144.473 42.0656 144.761 42.2389 145.006 42.4642C145.251 42.6895 145.447 42.9622 145.584 43.2657C145.72 43.5692 145.794 43.8972 145.8 44.23C145.787 44.7251 145.631 45.2059 145.351 45.6142C145.07 46.0224 144.678 46.3405 144.22 46.53L145.22 47.68C145.403 47.4074 145.519 47.0957 145.56 46.77H147.45C147.376 47.6162 147.025 48.4143 146.45 49.04L148.4 51.3H145.6L145 50.49ZM142.45 47.38C141.99 47.59 141.37 48.04 141.37 48.6C141.393 48.9024 141.534 49.1838 141.762 49.3838C141.99 49.5838 142.287 49.6865 142.59 49.67C143.065 49.5935 143.501 49.3614 143.83 49.01L142.45 47.38ZM143.99 44.07C143.99 43.8711 143.911 43.6803 143.77 43.5396C143.63 43.399 143.439 43.32 143.24 43.32C143.041 43.32 142.85 43.399 142.71 43.5396C142.569 43.6803 142.49 43.8711 142.49 44.07C142.49 44.58 142.85 44.88 143.14 45.24C143.54 44.94 143.94 44.63 143.94 44.07H143.99Z" fill="#1A1A1A"/>
<path d="M152.54 42H156.54C159.39 42 161.09 43.73 161.09 46.6C161.09 49.6 159.36 51.28 156.54 51.28H152.54V42ZM154.96 49.2H156.1C157.93 49.2 158.66 48.44 158.66 46.59C158.702 46.246 158.664 45.897 158.549 45.5699C158.435 45.2429 158.246 44.9466 157.999 44.704C157.751 44.4614 157.451 44.2789 157.122 44.1707C156.793 44.0625 156.443 44.0315 156.1 44.08H155L154.96 49.2Z" fill="#1A1A1A"/>
<path d="M164 48.43C163.982 48.6314 164.006 48.8345 164.071 49.0259C164.137 49.2173 164.242 49.3927 164.38 49.5408C164.517 49.689 164.685 49.8064 164.871 49.8855C165.057 49.9646 165.258 50.0036 165.46 50C165.719 50.0131 165.977 49.95 166.201 49.8185C166.425 49.687 166.605 49.4929 166.72 49.26H168.78C168.564 49.961 168.113 50.5659 167.503 50.9723C166.892 51.3787 166.16 51.5616 165.43 51.49C164.943 51.5358 164.453 51.4756 163.992 51.3134C163.531 51.1513 163.11 50.8911 162.76 50.5508C162.409 50.2105 162.136 49.7982 161.96 49.3423C161.784 48.8864 161.709 48.3977 161.74 47.91C161.738 47.4357 161.832 46.966 162.016 46.5287C162.199 46.0914 162.469 45.6954 162.808 45.3643C163.148 45.0332 163.55 44.7736 163.992 44.6011C164.434 44.4286 164.906 44.3466 165.38 44.36C167.8 44.36 169.01 46.18 168.9 48.46L164 48.43ZM166.74 47.2C166.743 46.8451 166.608 46.5029 166.364 46.2455C166.119 45.9881 165.785 45.8355 165.43 45.82C165.061 45.827 164.709 45.9732 164.444 46.2292C164.179 46.4851 164.02 46.8319 164 47.2H166.74Z" fill="#1A1A1A"/>
<path d="M173.65 51.27H171.1L168.85 44.52H171.15L172.39 49L173.64 44.54H175.89L173.65 51.27Z" fill="#1A1A1A"/>
<path d="M178.07 48.43C178.053 48.6354 178.079 48.8421 178.148 49.0364C178.217 49.2307 178.327 49.408 178.47 49.5566C178.613 49.7052 178.786 49.8216 178.977 49.898C179.168 49.9745 179.374 50.0092 179.58 50C179.839 50.0131 180.097 49.95 180.321 49.8185C180.545 49.687 180.725 49.4929 180.84 49.26H182.91C182.693 49.96 182.241 50.5638 181.631 50.9699C181.021 51.376 180.29 51.5597 179.56 51.49C179.073 51.5356 178.582 51.4753 178.12 51.3132C177.659 51.1512 177.238 50.8911 176.887 50.551C176.535 50.2109 176.261 49.7988 176.084 49.3429C175.907 48.887 175.83 48.3982 175.86 47.91C175.858 47.4357 175.952 46.966 176.136 46.5287C176.319 46.0914 176.589 45.6954 176.928 45.3643C177.268 45.0332 177.67 44.7736 178.112 44.6011C178.554 44.4286 179.026 44.3466 179.5 44.36C181.92 44.36 183.13 46.18 183.03 48.46L178.07 48.43ZM180.82 47.2C180.82 46.8442 180.683 46.5019 180.437 46.2448C180.191 45.9877 179.855 45.8355 179.5 45.82C179.131 45.827 178.779 45.9732 178.514 46.2292C178.249 46.4851 178.09 46.8319 178.07 47.2H180.82Z" fill="#1A1A1A"/>
<path d="M184 42H186.21V51.28H184V42Z" fill="#1A1A1A"/>
<path d="M190.66 44.33C191.367 44.3261 192.059 44.5321 192.649 44.9219C193.238 45.3118 193.699 45.8679 193.972 46.5199C194.246 47.1719 194.319 47.8903 194.184 48.5841C194.048 49.278 193.71 49.9159 193.211 50.4172C192.713 50.9185 192.077 51.2605 191.384 51.3999C190.691 51.5393 189.972 51.4697 189.318 51.2001C188.665 50.9305 188.106 50.473 187.713 49.8855C187.32 49.298 187.11 48.6069 187.11 47.9C187.095 47.4288 187.176 46.9594 187.349 46.5208C187.522 46.0821 187.782 45.6834 188.115 45.3491C188.447 45.0148 188.844 44.7519 189.282 44.5767C189.72 44.4014 190.189 44.3175 190.66 44.33ZM190.66 49.77C191.66 49.77 192.02 48.77 192.02 47.9C192.02 47.03 191.69 46 190.66 46C189.63 46 189.32 47 189.32 47.88C189.32 48.76 189.64 49.77 190.66 49.77Z" fill="#1A1A1A"/>
<path d="M195.14 44.52H197.25V45.3C197.448 44.9874 197.723 44.7311 198.049 44.5559C198.374 44.3807 198.74 44.2926 199.11 44.3C201.23 44.3 202.11 46.12 202.11 48.01C202.11 49.9 201.17 51.43 199.26 51.43C198.889 51.4471 198.519 51.372 198.184 51.2115C197.849 51.0509 197.559 50.8099 197.34 50.51V53.51H195.13L195.14 44.52ZM197.27 47.82C197.27 49.01 197.61 49.82 198.61 49.82C199.61 49.82 199.94 48.82 199.94 47.82C199.94 46.82 199.6 46.02 198.63 46.02C198 46 197.27 46.43 197.27 47.82Z" fill="#1A1A1A"/>
<path d="M203.12 44.52H205.26V45.44C205.46 45.1027 205.743 44.823 206.083 44.6284C206.423 44.4338 206.808 44.331 207.2 44.33C207.606 44.2776 208.018 44.3548 208.377 44.5506C208.736 44.7463 209.024 45.0506 209.2 45.42C209.431 45.075 209.746 44.7941 210.115 44.6035C210.484 44.4129 210.895 44.3188 211.31 44.33C213.45 44.33 213.69 45.95 213.69 47.24V51.24H211.48V47.24C211.48 46.52 211.12 46.09 210.55 46.09C209.6 46.09 209.55 46.81 209.55 47.91V51.21H207.34V47.43C207.34 46.64 207.11 46.15 206.51 46.15C205.72 46.15 205.38 46.6 205.38 47.98V51.27H203.17L203.12 44.52Z" fill="#1A1A1A"/>
<path d="M216.79 48.43C216.771 48.6358 216.796 48.8432 216.865 49.0382C216.933 49.2333 217.043 49.4113 217.186 49.5602C217.329 49.7092 217.503 49.8255 217.695 49.9014C217.887 49.9773 218.094 50.0109 218.3 50C218.559 50.0131 218.817 49.95 219.041 49.8185C219.264 49.687 219.445 49.4929 219.56 49.26H221.63C221.412 49.9618 220.959 50.567 220.347 50.9733C219.735 51.3796 219.001 51.5621 218.27 51.49C217.784 51.5341 217.294 51.4726 216.833 51.3099C216.373 51.1471 215.954 50.8869 215.603 50.5469C215.253 50.207 214.98 49.7954 214.803 49.3403C214.627 48.8852 214.551 48.3973 214.58 47.91C214.578 47.4357 214.672 46.966 214.856 46.5287C215.039 46.0914 215.309 45.6954 215.648 45.3643C215.988 45.0332 216.39 44.7736 216.832 44.6011C217.274 44.4286 217.746 44.3466 218.22 44.36C220.64 44.36 221.85 46.18 221.74 48.46L216.79 48.43ZM219.53 47.2C219.535 46.8443 219.401 46.5007 219.156 46.2428C218.911 45.9848 218.575 45.833 218.22 45.82C217.851 45.827 217.499 45.9732 217.234 46.2292C216.969 46.4851 216.81 46.8319 216.79 47.2H219.53Z" fill="#1A1A1A"/>
<path d="M222.61 44.52H224.76V45.44C224.995 45.097 225.31 44.8166 225.677 44.6232C226.045 44.4297 226.455 44.3291 226.87 44.33C229.12 44.33 229.31 45.96 229.31 46.94V51.27H227.1V48C227.1 47.07 227.2 46.14 225.99 46.14C225.16 46.14 224.79 46.84 224.79 47.58V51.26H222.58L222.61 44.52Z" fill="#1A1A1A"/>
<path d="M234.56 46H233.2V49C233.2 49.53 233.51 49.65 233.99 49.65C234.17 49.65 234.37 49.65 234.56 49.65V51.28C234.16 51.28 233.76 51.34 233.35 51.34C231.47 51.34 230.99 50.8 230.99 48.96V46H229.87V44.52H231V42.52H233.21V44.52H234.57L234.56 46Z" fill="#1A1A1A"/>
<path d="M166.33 15.59L168.46 13.48V7.09996L162.07 0.709961H140.78L134.4 7.09996V2.83996L132.27 0.709961H123.75L121.62 2.83996V7.09996L117.37 11.36L113.11 7.09996V2.83996L110.98 0.709961H102.46L100.33 2.83996L98.2 0.709961H89.69L87.56 2.83996V11.36L76.91 0.709961H68.4L66.27 2.83996V32.65L68.4 34.78H76.91L79.04 32.65V24.13L89.69 34.78H98.2L100.33 32.65V15.61L110.98 26.26V32.65L113.11 34.78H121.62L123.75 32.65V26.26L134.4 15.61V28.39L140.78 34.78H162.07L168.46 28.39V22L166.33 19.87H155.69V22H147.17V13.48H155.69V15.59H166.33Z" fill="#1A1A1A"/>
<path d="M167.23 1.58999H167.37C167.53 1.58999 167.67 1.52999 167.67 1.39999C167.67 1.26999 167.58 1.19999 167.39 1.19999H167.23V1.56999V1.58999ZM167.23 2.29999H166.94V0.99999C167.103 0.985722 167.267 0.985722 167.43 0.99999C167.58 0.983787 167.732 1.01904 167.86 1.09999C167.914 1.13425 167.956 1.18448 167.981 1.24376C168.005 1.30304 168.011 1.36845 167.997 1.43097C167.982 1.4935 167.949 1.55006 167.901 1.59287C167.853 1.63568 167.794 1.66262 167.73 1.66999C167.86 1.66999 167.92 1.80999 167.96 1.97999C167.979 2.08614 168.009 2.19002 168.05 2.28999H167.74C167.69 2.19282 167.656 2.08809 167.64 1.97999C167.64 1.84999 167.54 1.78999 167.37 1.78999H167.23V2.28999V2.29999ZM166.45 1.63999C166.45 1.90521 166.555 2.15956 166.743 2.3471C166.93 2.53463 167.185 2.63999 167.45 2.63999C167.715 2.63999 167.969 2.53463 168.157 2.3471C168.345 2.15956 168.45 1.90521 168.45 1.63999C168.45 1.37477 168.345 1.12042 168.157 0.932883C167.969 0.745347 167.715 0.639989 167.45 0.639989C167.185 0.639989 166.93 0.745347 166.743 0.932883C166.555 1.12042 166.45 1.37477 166.45 1.63999ZM168.74 1.63999C168.741 1.81016 168.708 1.97888 168.643 2.13612C168.578 2.29335 168.482 2.43591 168.361 2.5553C168.24 2.6747 168.096 2.76851 167.937 2.83116C167.779 2.89381 167.61 2.92402 167.44 2.91999C167.263 2.93567 167.085 2.91436 166.916 2.85742C166.748 2.80047 166.594 2.70912 166.463 2.5892C166.332 2.46928 166.227 2.3234 166.155 2.16084C166.084 1.99828 166.047 1.82261 166.047 1.64499C166.047 1.46737 166.084 1.29169 166.155 1.12914C166.227 0.966579 166.332 0.820701 166.463 0.700778C166.594 0.580855 166.748 0.489514 166.916 0.432565C167.085 0.375616 167.263 0.354306 167.44 0.36999C167.609 0.36599 167.778 0.395883 167.935 0.457913C168.093 0.519944 168.236 0.612858 168.357 0.731189C168.479 0.84952 168.575 0.990879 168.64 1.14695C168.706 1.30302 168.74 1.47066 168.74 1.63999Z" fill="#1A1A1A"/>
</g>
<defs>
<clipPath id="clip0_225_13885">
<rect width="235" height="54" fill="white"/>
</clipPath>
</defs>
</svg>
