<svg width="500" height="102" viewBox="0 0 500 102" fill="none" xmlns="http://www.w3.org/2000/svg">
<path d="M388.763 86.0284C351.061 82.8756 312.958 85.4767 275.257 87.3684C237.956 89.2601 200.735 92.413 163.434 93.8318C127.657 95.1717 91.239 95.1717 56.3447 86.7378C42.5474 83.4273 -8.63102 70.5794 12.3858 47.5635C18.9636 40.3907 28.9105 36.3708 37.975 33.2968C47.0395 30.2227 56.3447 28.0946 65.6498 25.9664C80.7306 22.4982 95.7311 18.9512 110.972 16.5078C129.182 13.5914 147.551 11.4632 166.001 10.0444C238.678 4.36924 312.557 6.73389 384.833 15.956C399.513 17.8477 414.272 19.6606 428.872 22.2617C442.589 24.7052 456.547 27.8581 469.061 34.1638C474.916 37.0802 480.451 40.706 485.184 45.1988C490.077 49.8493 494.81 58.362 487.35 63.0913C480.371 67.5053 471.146 68.9241 463.124 70.1853C454.381 71.4464 445.637 72.3135 436.894 73.417C427.829 74.5205 418.765 75.624 409.7 76.491C403.604 77.1216 403.363 86.5014 409.7 86.0284C428.872 84.6096 447.963 81.2991 466.895 78.2251C480.933 75.9393 503.794 70.6582 499.463 51.8987C496.254 38.0261 479.89 29.2769 467.697 24.1535C453.98 18.4783 439.38 15.5619 424.701 13.3549C350.099 2.24105 275.016 -2.3306 199.612 1.13755C161.83 2.87162 124.128 6.89153 87.0677 14.3796C75.0352 16.8231 62.9224 19.5818 50.9701 22.4982C40.1409 25.1781 29.2314 28.331 19.3647 33.4544C11.0221 37.7896 2.3587 44.4106 0.433494 54.0268C-2.13345 66.7171 7.0915 76.0969 17.7603 81.6144C32.1192 89.0236 48.7241 93.1224 64.5268 96.1176C82.8162 99.5858 101.427 101.32 120.117 101.793C159.824 102.896 199.452 99.3493 238.999 96.9058C278.786 94.3835 318.654 93.0436 358.522 90.9942C368.709 90.4425 378.817 89.8119 388.924 88.9448C390.689 88.7872 390.689 86.1861 388.763 86.0284Z" fill="#B3F1E6"/>
</svg>
