<svg width="272" height="98" viewBox="0 0 272 98" fill="none" xmlns="http://www.w3.org/2000/svg">
<g clip-path="url(#clip0_70_16757)">
<path d="M256.075 69.9879L259.052 67.0506V58.1214L250.122 49.1921H220.365L211.436 58.1214V52.1751L208.459 49.1921H196.554L193.577 52.1751V58.1214L187.624 64.0742L181.678 58.1214V52.1751L178.695 49.1921H166.79L163.813 52.1751L160.837 49.1921H148.931L145.955 52.1751V64.0807L131.073 49.1987H119.167L116.191 52.1816V93.8447L119.167 96.8212H131.073L134.056 93.8447V81.9391L148.931 96.8146H160.837L163.813 93.8382V70.027L178.689 84.9025V93.8317L181.672 96.8081H193.577L196.554 93.8317V84.9025L211.429 70.027V87.8854L220.358 96.8081H250.116L259.045 87.8854V78.9562L256.069 75.9733H241.187V78.9562H229.288V67.0506H241.187V69.9879H256.069H256.075Z" fill="#FCFCFC"/>
<path d="M256.929 51.2047C257.209 51.2047 257.45 51.1786 257.45 50.853C257.45 50.5794 257.183 50.5469 256.961 50.5469H256.512V51.2047H256.929ZM256.518 52.4812H256.147V50.2277H257C257.541 50.2277 257.821 50.4166 257.821 50.8725C257.821 51.2828 257.573 51.4456 257.235 51.4847L257.866 52.4747H257.45L256.87 51.5108H256.525V52.4747H256.518V52.4812ZM256.915 49.635C256.036 49.635 255.352 50.3254 255.352 51.3154C255.352 52.2402 255.952 52.9957 256.915 52.9957C257.788 52.9957 258.472 52.3119 258.472 51.3154C258.472 50.3189 257.788 49.635 256.915 49.635ZM256.915 53.3539C255.75 53.3539 254.916 52.4812 254.916 51.3219C254.916 50.0975 255.841 49.2899 256.915 49.2899C257.99 49.2899 258.908 50.0975 258.908 51.3219C258.908 52.5398 257.99 53.3539 256.915 53.3539Z" fill="#FCFCFC"/>
<path d="M116.197 32.278V0.866211H123.759L131.991 24.8728L140.308 0.866211H147.824V32.278H142.457V7.64616L134.179 32.278H129.77L121.557 7.79596V32.278H116.191H116.197Z" fill="#FCFCFC"/>
<path d="M157.535 39.4488C156.102 39.4488 154.812 39.2273 153.666 38.778V35.3912L155.926 35.4564C156.838 35.5019 157.58 35.4498 158.154 35.3066C158.727 35.1633 159.17 34.9614 159.489 34.7074C159.808 34.4534 160.042 34.1863 160.192 33.9063C160.342 33.6262 160.466 33.3787 160.55 33.1768L161.136 31.5291L152.383 9.828H157.659L163.611 25.7065L169.564 9.828H174.735L165.481 33.1182C164.784 34.8116 164.035 36.1207 163.234 37.039C162.432 37.9573 161.553 38.5891 160.602 38.9408C159.651 39.286 158.629 39.4618 157.528 39.4618L157.535 39.4488Z" fill="#FCFCFC"/>
<path d="M188.647 0.866211H209.195L209.176 5.34059H194.014V14.3805H207.398V18.7898H194.014V32.278H188.647V0.866211Z" fill="#FCFCFC"/>
<path d="M219.623 0.892334V5.88775H214.386V0.892334H219.623ZM219.557 9.82155V32.2781H214.477V9.82155H219.557Z" fill="#FCFCFC"/>
<path d="M232.59 32.6037C231.144 32.6037 229.984 32.4213 229.112 32.0631C228.245 31.7049 227.594 31.2164 227.158 30.6107C226.721 30.005 226.441 29.3212 226.311 28.5592C226.181 27.7972 226.116 27.0221 226.116 26.2275V0H231.287V25.6088C231.287 26.5792 231.489 27.3347 231.886 27.8688C232.283 28.4029 232.935 28.7155 233.834 28.8001L234.96 28.8457V32.1673C234.57 32.2846 234.172 32.3823 233.768 32.4734C233.365 32.5581 232.974 32.6037 232.596 32.6037H232.59Z" fill="#FCFCFC"/>
<path d="M243.518 22.2677C243.505 23.5443 243.707 24.671 244.124 25.6545C244.547 26.6379 245.166 27.4129 245.993 27.9665C246.82 28.5267 247.836 28.8002 249.054 28.8002C250.272 28.8002 251.379 28.5201 252.304 27.9665C253.223 27.4064 253.835 26.5598 254.141 25.4135H258.986C258.726 26.9766 258.101 28.3052 257.117 29.3864C256.134 30.474 254.942 31.3012 253.542 31.8613C252.141 32.4279 250.689 32.708 249.185 32.708C247.009 32.708 245.101 32.2455 243.46 31.3272C241.818 30.4089 240.535 29.0933 239.617 27.3869C238.699 25.6805 238.236 23.642 238.236 21.2843C238.236 18.9266 238.653 16.9337 239.493 15.1491C240.333 13.3581 241.545 11.9513 243.134 10.9222C244.723 9.89318 246.625 9.37866 248.859 9.37866C251.093 9.37866 252.936 9.84759 254.453 10.792C255.964 11.7363 257.111 13.0454 257.886 14.7323C258.661 16.4191 259.045 18.3925 259.045 20.6525V22.2612H243.512L243.518 22.2677ZM243.518 18.9852H254.056C254.056 17.8976 253.867 16.9206 253.49 16.0414C253.112 15.1687 252.539 14.4718 251.764 13.9572C250.989 13.4427 250.012 13.1887 248.839 13.1887C247.667 13.1887 246.703 13.4688 245.909 14.0354C245.114 14.602 244.508 15.325 244.104 16.2172C243.701 17.1095 243.505 18.0278 243.518 18.9852Z" fill="#FCFCFC"/>
<path d="M59.7105 14.1005C61.0131 14.1005 64.1067 14.6476 74.6446 18.5358C86.1008 22.7627 88.2241 24.5668 89.0642 25.2181C89.9044 25.8694 90.3668 27.0873 90.0477 28.4224C89.7285 29.7576 87.2341 37.7164 82.7793 49.7913C78.3309 61.8663 75.0028 69.6883 74.4036 70.8411C73.8044 71.9939 72.6582 72.6321 71.577 72.6387C71.551 72.6387 71.5184 72.6387 71.4858 72.6387C70.3461 72.6387 67.513 72.4237 56.2912 68.288C44.7763 64.0416 42.6596 62.3938 41.8455 61.6774C41.0249 60.961 40.569 59.7366 40.8621 58.4731C41.1552 57.2095 43.7082 49.0944 48.1565 37.026C52.6049 24.9576 55.9851 16.9988 56.5517 15.9111C57.1248 14.83 58.2646 14.1982 59.3783 14.1135C59.476 14.107 59.5802 14.1005 59.6974 14.1005H59.7105ZM59.6974 9.8606C59.476 9.8606 59.2676 9.86711 59.0462 9.88665C56.3954 10.0885 53.9986 11.6451 52.7937 13.9377C52.0122 15.4161 48.4692 23.909 44.1706 35.5606C39.7484 47.5509 37.0976 55.9005 36.7264 57.5091C36.0946 60.2315 36.9804 63.0451 39.0384 64.8622C40.6537 66.282 43.6822 68.1578 54.8128 72.2674C65.8326 76.3315 69.4212 76.8786 71.4728 76.8786H71.5966C74.3515 76.8525 76.8655 75.2894 78.1551 72.7885C78.9171 71.3165 82.3233 63.2405 86.7391 51.2567C91.0767 39.4879 93.747 31.0927 94.1508 29.4124C94.8412 26.5337 93.8512 23.5638 91.6238 21.8574L91.5456 21.7988C90.3147 20.8479 87.7616 18.868 76.0905 14.5629C64.9013 10.4402 61.5992 9.86711 59.6909 9.86711L59.6974 9.8606Z" fill="#11D4B1"/>
<path d="M11.0135 27.1459C10.5967 27.1459 10.1798 26.9896 9.8607 26.6704L5.21698 22.0267C4.57871 21.3884 4.57871 20.3594 5.21698 19.7211C5.85525 19.0829 6.88429 19.0829 7.52256 19.7211L12.1663 24.3648C12.8045 25.0031 12.8045 26.0322 12.1663 26.6704C11.8471 26.9896 11.4303 27.1459 11.0135 27.1459Z" fill="#11D4B1"/>
<path d="M8.20628 33.9388H1.62823C0.729447 33.9388 0 33.2094 0 32.3106C0 31.4118 0.729447 30.6824 1.62823 30.6824H8.20628C9.10507 30.6824 9.83452 31.4118 9.83452 32.3106C9.83452 33.2094 9.10507 33.9388 8.20628 33.9388Z" fill="#11D4B1"/>
<path d="M17.8065 24.3388C16.9077 24.3388 16.1782 23.6093 16.1782 22.7106V16.1325C16.1782 15.2337 16.9077 14.5043 17.8065 14.5043C18.7052 14.5043 19.4347 15.2337 19.4347 16.1325V22.7106C19.4347 23.6093 18.7052 24.3388 17.8065 24.3388Z" fill="#11D4B1"/>
<path d="M41.4614 22.4501C43.5521 22.4501 47.4208 22.7823 55.0539 23.9807C67.1158 25.8759 69.5452 27.2762 70.496 27.7582C71.4469 28.2401 72.1308 29.3864 72.0722 30.8192C72.0136 32.2521 71.0692 40.8882 68.9916 54.129C66.9074 67.3698 65.1294 76.045 64.7582 77.341C64.3934 78.6436 63.3839 79.5294 62.3223 79.7704C61.899 79.8615 61.2282 79.9918 59.8083 79.9918C57.6526 79.9918 53.7904 79.6987 46.4829 78.5524C34.3558 76.6442 31.9656 75.4132 31.0277 74.8531C30.0899 74.293 29.3995 73.1402 29.4516 71.792C29.5037 70.4439 30.4676 61.6319 32.5452 48.3976C34.6229 35.1633 36.4334 26.3383 36.7851 25.1139C37.1368 23.8895 38.1463 23.0102 39.221 22.6846C39.6183 22.5674 40.2305 22.4501 41.4549 22.4501H41.4614ZM41.4549 18.2102C40.0221 18.2102 38.9539 18.334 38.0031 18.6205C35.463 19.376 33.4375 21.4146 32.7081 23.9286C32.2261 25.5959 30.3569 34.9745 28.3509 47.7333C26.2863 60.8699 25.2703 69.9163 25.2052 71.6292C25.101 74.4558 26.4947 77.087 28.8459 78.4873C30.7151 79.601 34.0627 80.8841 45.8121 82.7337C52.2077 83.7367 56.7798 84.2252 59.7953 84.2252C61.5473 84.2252 62.5177 84.0624 63.2341 83.8996C65.9109 83.3004 68.0537 81.2293 68.8287 78.4873C69.2977 76.833 71.1017 67.9103 73.1663 54.7803C75.1919 41.8847 76.2209 32.7861 76.2991 30.9951C76.4293 27.9926 74.8988 25.2377 72.4043 23.9741L72.3197 23.9286C70.9259 23.2121 68.0211 21.7272 55.7052 19.7928C48.9318 18.7312 44.2685 18.2102 41.4549 18.2102Z" fill="#04A487"/>
<path d="M36.9869 27.7321C23.7201 27.7321 20.9586 28.5527 19.2587 29.3929C16.8946 30.5652 15.2272 32.9294 14.9016 35.5541C14.6867 37.3321 14.2959 47.2317 14.2959 60.6288C14.2959 74.0259 14.6802 83.7302 14.8951 85.5994C15.2207 88.4455 16.9922 90.8618 19.5062 91.9104C21.5383 92.7571 25.0618 93.5386 36.9739 93.5386C48.886 93.5386 52.3639 92.7636 54.422 91.9234C56.9555 90.8879 58.7336 88.4651 59.0592 85.6059C59.2611 83.8409 59.6584 74.4167 59.6584 60.6353C59.6584 46.854 59.2611 37.6252 59.0592 35.7755C58.7271 32.7535 56.8058 30.2265 54.1615 29.3407L54.0703 29.3082C52.5723 28.8002 49.4592 27.7321 36.9739 27.7321H36.9869Z" fill="url(#paint0_radial_70_16757)"/>
<path d="M30.7476 50.8594C34.5748 50.8594 37.6774 47.7569 37.6774 43.9297C37.6774 40.1025 34.5748 36.9999 30.7476 36.9999C26.9204 36.9999 23.8179 40.1025 23.8179 43.9297C23.8179 47.7569 26.9204 50.8594 30.7476 50.8594Z" fill="#031553"/>
</g>
<defs>
<radialGradient id="paint0_radial_70_16757" cx="0" cy="0" r="1" gradientUnits="userSpaceOnUse" gradientTransform="translate(54.8779 34.9288) scale(63.6573 63.6573)">
<stop offset="0.21" stop-color="#8195DC"/>
<stop offset="0.39" stop-color="#6D90DD"/>
<stop offset="0.66" stop-color="#568ADF"/>
<stop offset="0.73" stop-color="#4E81DF"/>
<stop offset="0.84" stop-color="#3A6BDF"/>
<stop offset="0.99" stop-color="#1946DF"/>
<stop offset="1" stop-color="#1642DF"/>
</radialGradient>
<clipPath id="clip0_70_16757">
<rect width="271.436" height="97.0153" fill="white"/>
</clipPath>
</defs>
</svg>
