<?xml version="1.0" encoding="UTF-8" standalone="no"?>
<svg
   id="a"
   viewBox="0 0 397.75 148.64"
   version="1.1"
   sodipodi:docname="my-file-logo.svg"
   inkscape:version="1.3.2 (091e20e, 2023-11-25)"
   xmlns:inkscape="http://www.inkscape.org/namespaces/inkscape"
   xmlns:sodipodi="http://sodipodi.sourceforge.net/DTD/sodipodi-0.dtd"
   xmlns="http://www.w3.org/2000/svg"
   xmlns:svg="http://www.w3.org/2000/svg">
  <sodipodi:namedview
     id="namedview19"
     pagecolor="#ffffff"
     bordercolor="#000000"
     borderopacity="0.25"
     inkscape:showpageshadow="2"
     inkscape:pageopacity="0.0"
     inkscape:pagecheckerboard="0"
     inkscape:deskcolor="#d1d1d1"
     showgrid="false"
     inkscape:zoom="1.5877287"
     inkscape:cx="208.78881"
     inkscape:cy="71.800678"
     inkscape:window-width="1464"
     inkscape:window-height="671"
     inkscape:window-x="0"
     inkscape:window-y="38"
     inkscape:window-maximized="0"
     inkscape:current-layer="g15" />
  <defs
     id="defs7">
    <style
       id="style1">.c{fill:url(#b);}.d{fill:#031553;}.e{fill:#11d4b1;}.f{fill:#04a487;}</style>
    <radialGradient
       id="b"
       cx="84.26"
       cy="53.63"
       fx="84.26"
       fy="53.63"
       r="97.74"
       gradientTransform="matrix(1, 0, 0, 1, 0, 0)"
       gradientUnits="userSpaceOnUse">
      <stop
         offset=".21"
         stop-color="#8195dc"
         id="stop1" />
      <stop
         offset=".39"
         stop-color="#6d90dd"
         id="stop2" />
      <stop
         offset=".66"
         stop-color="#568adf"
         id="stop3" />
      <stop
         offset=".73"
         stop-color="#4e81df"
         id="stop4" />
      <stop
         offset=".84"
         stop-color="#3a6bdf"
         id="stop5" />
      <stop
         offset=".99"
         stop-color="#1946df"
         id="stop6" />
      <stop
         offset="1"
         stop-color="#1642df"
         id="stop7" />
    </radialGradient>
  </defs>
  <g
     id="g15"
     transform="matrix(1.0459416,0,0,1.0459416,-18.273268,47.867118)">
    <g
       id="g14"
       transform="translate(-10.838989,-6.6238264)">
      <path
         class="d"
         d="M 178.41,49.56 V 1.33 h 11.61 l 12.64,36.86 12.77,-36.86 h 11.54 v 48.23 h -8.24 V 11.74 l -12.71,37.82 h -6.77 L 186.64,11.97 v 37.59 h -8.24 z"
         id="path9" />
      <path
         class="d"
         d="m 241.88,60.57 c -2.2,0 -4.18,-0.34 -5.94,-1.03 v -5.2 l 3.47,0.1 c 1.4,0.07 2.54,-0.01 3.42,-0.23 0.88,-0.22 1.56,-0.53 2.05,-0.92 0.49,-0.39 0.85,-0.8 1.08,-1.23 0.23,-0.43 0.42,-0.81 0.55,-1.12 l 0.9,-2.53 -13.44,-33.32 h 8.1 l 9.14,24.38 9.14,-24.38 h 7.94 l -14.21,35.76 c -1.07,2.6 -2.22,4.61 -3.45,6.02 -1.23,1.41 -2.58,2.38 -4.04,2.92 -1.46,0.53 -3.03,0.8 -4.72,0.8 z"
         id="path10" />
      <path
         class="d"
         d="m 289.65,1.33 h 31.55 l -0.03,6.87 h -23.28 v 13.88 h 20.55 v 6.77 h -20.55 v 20.71 h -8.24 z"
         id="path11" />
      <path
         class="d"
         d="m 337.21,1.37 v 7.67 h -8.04 V 1.37 Z m -0.1,13.71 v 34.48 h -7.8 V 15.08 Z"
         id="path12" />
      <path
         class="d"
         d="m 357.12,50.06 c -2.22,0 -4,-0.28 -5.34,-0.83 -1.33,-0.55 -2.33,-1.3 -3,-2.23 -0.67,-0.93 -1.1,-1.98 -1.3,-3.15 -0.2,-1.17 -0.3,-2.36 -0.3,-3.58 V 0 h 7.94 v 39.32 c 0,1.49 0.31,2.65 0.92,3.47 0.61,0.82 1.61,1.3 2.99,1.43 l 1.73,0.07 v 5.1 c -0.6,0.18 -1.21,0.33 -1.83,0.47 -0.62,0.13 -1.22,0.2 -1.8,0.2 z"
         id="path13" />
      <path
         class="d"
         d="m 373.9,34.19 c -0.02,1.96 0.29,3.69 0.93,5.2 0.65,1.51 1.6,2.7 2.87,3.55 1.27,0.86 2.83,1.28 4.7,1.28 1.87,0 3.57,-0.43 4.99,-1.28 1.41,-0.86 2.35,-2.16 2.82,-3.92 h 7.44 c -0.4,2.4 -1.36,4.44 -2.87,6.1 -1.51,1.67 -3.34,2.94 -5.49,3.8 -2.15,0.87 -4.38,1.3 -6.69,1.3 -3.34,0 -6.27,-0.71 -8.79,-2.12 -2.52,-1.41 -4.49,-3.43 -5.9,-6.05 -1.41,-2.62 -2.12,-5.75 -2.12,-9.37 0,-3.62 0.64,-6.68 1.93,-9.42 1.29,-2.75 3.15,-4.91 5.59,-6.49 2.44,-1.58 5.36,-2.37 8.79,-2.37 3.43,0 6.26,0.72 8.59,2.17 2.32,1.45 4.08,3.46 5.27,6.05 1.19,2.59 1.78,5.62 1.78,9.09 v 2.47 h -23.85 z m 0,-5.04 h 16.18 c 0,-1.67 -0.29,-3.17 -0.87,-4.52 -0.58,-1.34 -1.46,-2.41 -2.65,-3.2 -1.19,-0.79 -2.69,-1.18 -4.49,-1.18 -1.8,0 -3.28,0.43 -4.5,1.3 -1.22,0.87 -2.15,1.98 -2.77,3.35 -0.62,1.37 -0.92,2.78 -0.9,4.25 z"
         id="path14" />
    </g>
  </g>
  <g
     id="g19">
    <path
       class="e"
       d="M91.68,21.65c2,0,6.75,.84,22.93,6.81,17.59,6.49,20.85,9.26,22.14,10.26s2,2.87,1.51,4.92c-.49,2.05-4.32,14.27-11.16,32.81-6.83,18.54-11.94,30.55-12.86,32.32-.92,1.77-2.68,2.75-4.34,2.76-.04,0-.09,0-.14,0-1.75,0-6.1-.33-23.33-6.68-17.68-6.52-20.93-9.05-22.18-10.15-1.26-1.1-1.96-2.98-1.51-4.92s4.37-14.4,11.2-32.93,12.02-30.75,12.89-32.42c.88-1.66,2.63-2.63,4.34-2.76,.15-.01,.31-.02,.49-.02m0-6.51c-.34,0-.66,.01-1,.04-4.07,.31-7.75,2.7-9.6,6.22-1.2,2.27-6.64,15.31-13.24,33.2-6.79,18.41-10.86,31.23-11.43,33.7-.97,4.18,.39,8.5,3.55,11.29,2.48,2.18,7.13,5.06,24.22,11.37,16.92,6.24,22.43,7.08,25.58,7.08h.19c4.23-.04,8.09-2.44,10.07-6.28,1.17-2.26,6.4-14.66,13.18-33.06,6.66-18.07,10.76-30.96,11.38-33.54,1.06-4.42-.46-8.98-3.88-11.6l-.12-.09c-1.89-1.46-5.81-4.5-23.73-11.11-17.18-6.33-22.25-7.21-25.18-7.21h0Z"
       id="path15" />
    <path
       class="e"
       d="M16.91,41.68c-.64,0-1.28-.24-1.77-.73l-7.13-7.13c-.98-.98-.98-2.56,0-3.54,.98-.98,2.56-.98,3.54,0l7.13,7.13c.98,.98,.98,2.56,0,3.54-.49,.49-1.13,.73-1.77,.73Z"
       id="path16" />
    <path
       class="e"
       d="M12.6,52.11H2.5c-1.38,0-2.5-1.12-2.5-2.5s1.12-2.5,2.5-2.5H12.6c1.38,0,2.5,1.12,2.5,2.5s-1.12,2.5-2.5,2.5Z"
       id="path17" />
    <path
       class="e"
       d="M27.34,37.37c-1.38,0-2.5-1.12-2.5-2.5v-10.1c0-1.38,1.12-2.5,2.5-2.5s2.5,1.12,2.5,2.5v10.1c0,1.38-1.12,2.5-2.5,2.5Z"
       id="path18" />
    <path
       class="f"
       d="M63.66,34.47c3.21,0,9.15,.51,20.87,2.35,18.52,2.91,22.25,5.06,23.71,5.8,1.46,.74,2.51,2.5,2.42,4.7-.09,2.2-1.54,15.46-4.73,35.79-3.2,20.33-5.93,33.65-6.5,35.64-.56,2-2.11,3.36-3.74,3.73-.65,.14-1.68,.34-3.86,.34-3.31,0-9.24-.45-20.46-2.21-18.62-2.93-22.29-4.82-23.73-5.68-1.44-.86-2.5-2.63-2.42-4.7,.08-2.07,1.56-15.6,4.75-35.92,3.19-20.32,5.97-33.87,6.51-35.75s2.09-3.23,3.74-3.73c.61-.18,1.55-.36,3.43-.36m0-6.51h0c-2.2,0-3.84,.19-5.3,.63-3.9,1.16-7.01,4.29-8.13,8.15-.74,2.56-3.61,16.96-6.69,36.55-3.17,20.17-4.73,34.06-4.83,36.69-.16,4.34,1.98,8.38,5.59,10.53,2.87,1.71,8.01,3.68,26.05,6.52,9.82,1.54,16.84,2.29,21.47,2.29,2.69,0,4.18-.25,5.28-.5,4.11-.92,7.4-4.1,8.59-8.31,.72-2.54,3.49-16.24,6.66-36.4,3.11-19.8,4.69-33.77,4.81-36.52,.2-4.61-2.15-8.84-5.98-10.78l-.13-.07c-2.14-1.1-6.6-3.38-25.51-6.35-10.4-1.63-17.56-2.43-21.88-2.43h0Z"
       id="path19" />
    <path
       class="c"
       d="M56.79,42.58c-20.37,0-24.61,1.26-27.22,2.55-3.63,1.8-6.19,5.43-6.69,9.46-.33,2.73-.93,17.93-.93,38.5s.59,35.47,.92,38.34c.5,4.37,3.22,8.08,7.08,9.69,3.12,1.3,8.53,2.5,26.82,2.5s23.63-1.19,26.79-2.48c3.89-1.59,6.62-5.31,7.12-9.7,.31-2.71,.92-17.18,.92-38.34s-.61-35.33-.92-38.17c-.51-4.64-3.46-8.52-7.52-9.88l-.14-.05c-2.3-.78-7.08-2.42-26.25-2.42h0Z"
       id="myFileLogo" />
    <circle
       class="d"
       cx="47.21"
       cy="67.45"
       r="10.64"
       id="circle19" />
  </g>
</svg>
