<?xml version="1.0" encoding="UTF-8" standalone="no"?>
<svg
   width="272"
   height="98"
   viewBox="0 0 272 98"
   fill="none"
   version="1.1"
   id="svg21"
   sodipodi:docname="my-file-logo-white.svg"
   inkscape:version="1.3.2 (091e20e, 2023-11-25)"
   xmlns:inkscape="http://www.inkscape.org/namespaces/inkscape"
   xmlns:sodipodi="http://sodipodi.sourceforge.net/DTD/sodipodi-0.dtd"
   xmlns="http://www.w3.org/2000/svg"
   xmlns:svg="http://www.w3.org/2000/svg">
  <sodipodi:namedview
     id="namedview21"
     pagecolor="#ffffff"
     bordercolor="#000000"
     borderopacity="0.25"
     inkscape:showpageshadow="2"
     inkscape:pageopacity="0.0"
     inkscape:pagecheckerboard="0"
     inkscape:deskcolor="#d1d1d1"
     inkscape:zoom="7.4781532"
     inkscape:cx="214.95949"
     inkscape:cy="26.477126"
     inkscape:window-width="2560"
     inkscape:window-height="1387"
     inkscape:window-x="0"
     inkscape:window-y="25"
     inkscape:window-maximized="0"
     inkscape:current-layer="svg21" />
  <g
     clip-path="url(#clip0_70_16757)"
     id="g15">
    <path
       d="M256.929 51.2047C257.209 51.2047 257.45 51.1786 257.45 50.853C257.45 50.5794 257.183 50.5469 256.961 50.5469H256.512V51.2047H256.929ZM256.518 52.4812H256.147V50.2277H257C257.541 50.2277 257.821 50.4166 257.821 50.8725C257.821 51.2828 257.573 51.4456 257.235 51.4847L257.866 52.4747H257.45L256.87 51.5108H256.525V52.4747H256.518V52.4812ZM256.915 49.635C256.036 49.635 255.352 50.3254 255.352 51.3154C255.352 52.2402 255.952 52.9957 256.915 52.9957C257.788 52.9957 258.472 52.3119 258.472 51.3154C258.472 50.3189 257.788 49.635 256.915 49.635ZM256.915 53.3539C255.75 53.3539 254.916 52.4812 254.916 51.3219C254.916 50.0975 255.841 49.2899 256.915 49.2899C257.99 49.2899 258.908 50.0975 258.908 51.3219C258.908 52.5398 257.99 53.3539 256.915 53.3539Z"
       fill="#FCFCFC"
       id="path2" />
    <path
       d="M 111.65042,59.290017 V 27.878228 h 7.562 l 8.232,24.006589 8.317,-24.006589 h 7.516 v 31.411789 h -5.367 v -24.63184 l -8.278,24.63184 h -4.409 l -8.213,-24.48204 v 24.48204 h -5.366 z"
       fill="#fcfcfc"
       id="path3" />
    <path
       d="m 152.98842,66.460817 c -1.433,0 -2.723,-0.2215 -3.869,-0.6708 v -3.3868 l 2.26,0.0652 c 0.912,0.0455 1.654,-0.0066 2.228,-0.1498 0.573,-0.1433 1.016,-0.3452 1.335,-0.5992 0.319,-0.254 0.553,-0.5211 0.703,-0.8011 0.15,-0.2801 0.274,-0.5276 0.358,-0.7295 l 0.586,-1.6477 -8.753,-21.7011 h 5.276 l 5.952,15.8785 5.953,-15.8785 h 5.171 l -9.254,23.2902 c -0.697,1.6934 -1.446,3.0025 -2.247,3.9208 -0.802,0.9183 -1.681,1.5501 -2.632,1.9018 -0.951,0.3452 -1.973,0.521 -3.074,0.521 z"
       fill="#fcfcfc"
       id="path4" />
    <path
       d="m 184.10042,27.878228 h 20.548 l -0.019,4.474379 h -15.162 v 9.03991 h 13.384 v 4.4093 h -13.384 v 13.4882 h -5.367 z"
       fill="#fcfcfc"
       id="path5" />
    <path
       d="m 215.07642,27.904351 v 4.995416 h -5.237 v -4.995416 z m -0.066,8.929216 v 22.45655 h -5.08 v -22.45655 z"
       fill="#fcfcfc"
       id="path6" />
    <path
       d="m 228.04342,59.615717 c -1.446,0 -2.606,-0.1824 -3.478,-0.5406 -0.867,-0.3582 -1.518,-0.8467 -1.954,-1.4524 -0.437,-0.6057 -0.717,-1.2895 -0.847,-2.0515 -0.13,-0.762 -0.195,-1.5371 -0.195,-2.3317 v -26.2275 h 5.171 v 25.6088 c 0,0.9704 0.202,1.7259 0.599,2.26 0.397,0.5341 1.049,0.8467 1.948,0.9313 l 1.126,0.0456 v 3.3216 c -0.39,0.1173 -0.788,0.215 -1.192,0.3061 -0.403,0.0847 -0.794,0.1303 -1.172,0.1303 z"
       fill="#fcfcfc"
       id="path7" />
    <path
       d="m 238.97142,49.279717 c -0.013,1.2766 0.189,2.4033 0.606,3.3868 0.423,0.9834 1.042,1.7584 1.869,2.312 0.827,0.5602 1.843,0.8337 3.061,0.8337 1.218,0 2.325,-0.2801 3.25,-0.8337 0.919,-0.5601 1.531,-1.4067 1.837,-2.553 h 4.845 c -0.26,1.5631 -0.885,2.8917 -1.869,3.9729 -0.983,1.0876 -2.175,1.9148 -3.575,2.4749 -1.401,0.5666 -2.853,0.8467 -4.357,0.8467 -2.176,0 -4.084,-0.4625 -5.725,-1.3808 -1.642,-0.9183 -2.925,-2.2339 -3.843,-3.9403 -0.918,-1.7064 -1.381,-3.7449 -1.381,-6.1026 0,-2.3577 0.417,-4.3506 1.257,-6.1352 0.84,-1.791 2.052,-3.1978 3.641,-4.2269 1.589,-1.02902 3.491,-1.54354 5.725,-1.54354 2.234,0 4.077,0.46893 5.594,1.41334 1.511,0.9443 2.658,2.2534 3.433,3.9403 0.775,1.6868 1.159,3.6602 1.159,5.9202 v 1.6087 h -15.533 z m 0,-3.2825 h 10.538 c 0,-1.0876 -0.189,-2.0646 -0.566,-2.9438 -0.378,-0.8727 -0.951,-1.5696 -1.726,-2.0842 -0.775,-0.5145 -1.752,-0.7685 -2.925,-0.7685 -1.172,0 -2.136,0.2801 -2.93,0.8467 -0.795,0.5666 -1.401,1.2896 -1.805,2.1818 -0.403,0.8923 -0.599,1.8106 -0.586,2.768 z"
       fill="#fcfcfc"
       id="path8" />
    <path
       d="M59.7105 14.1005C61.0131 14.1005 64.1067 14.6476 74.6446 18.5358C86.1008 22.7627 88.2241 24.5668 89.0642 25.2181C89.9044 25.8694 90.3668 27.0873 90.0477 28.4224C89.7285 29.7576 87.2341 37.7164 82.7793 49.7913C78.3309 61.8663 75.0028 69.6883 74.4036 70.8411C73.8044 71.9939 72.6582 72.6321 71.577 72.6387C71.551 72.6387 71.5184 72.6387 71.4858 72.6387C70.3461 72.6387 67.513 72.4237 56.2912 68.288C44.7763 64.0416 42.6596 62.3938 41.8455 61.6774C41.0249 60.961 40.569 59.7366 40.8621 58.4731C41.1552 57.2095 43.7082 49.0944 48.1565 37.026C52.6049 24.9576 55.9851 16.9988 56.5517 15.9111C57.1248 14.83 58.2646 14.1982 59.3783 14.1135C59.476 14.107 59.5802 14.1005 59.6974 14.1005H59.7105ZM59.6974 9.8606C59.476 9.8606 59.2676 9.86711 59.0462 9.88665C56.3954 10.0885 53.9986 11.6451 52.7937 13.9377C52.0122 15.4161 48.4692 23.909 44.1706 35.5606C39.7484 47.5509 37.0976 55.9005 36.7264 57.5091C36.0946 60.2315 36.9804 63.0451 39.0384 64.8622C40.6537 66.282 43.6822 68.1578 54.8128 72.2674C65.8326 76.3315 69.4212 76.8786 71.4728 76.8786H71.5966C74.3515 76.8525 76.8655 75.2894 78.1551 72.7885C78.9171 71.3165 82.3233 63.2405 86.7391 51.2567C91.0767 39.4879 93.747 31.0927 94.1508 29.4124C94.8412 26.5337 93.8512 23.5638 91.6238 21.8574L91.5456 21.7988C90.3147 20.8479 87.7616 18.868 76.0905 14.5629C64.9013 10.4402 61.5992 9.86711 59.6909 9.86711L59.6974 9.8606Z"
       fill="#11D4B1"
       id="path9" />
    <path
       d="M11.0135 27.1459C10.5967 27.1459 10.1798 26.9896 9.8607 26.6704L5.21698 22.0267C4.57871 21.3884 4.57871 20.3594 5.21698 19.7211C5.85525 19.0829 6.88429 19.0829 7.52256 19.7211L12.1663 24.3648C12.8045 25.0031 12.8045 26.0322 12.1663 26.6704C11.8471 26.9896 11.4303 27.1459 11.0135 27.1459Z"
       fill="#11D4B1"
       id="path10" />
    <path
       d="M8.20628 33.9388H1.62823C0.729447 33.9388 0 33.2094 0 32.3106C0 31.4118 0.729447 30.6824 1.62823 30.6824H8.20628C9.10507 30.6824 9.83452 31.4118 9.83452 32.3106C9.83452 33.2094 9.10507 33.9388 8.20628 33.9388Z"
       fill="#11D4B1"
       id="path11" />
    <path
       d="M17.8065 24.3388C16.9077 24.3388 16.1782 23.6093 16.1782 22.7106V16.1325C16.1782 15.2337 16.9077 14.5043 17.8065 14.5043C18.7052 14.5043 19.4347 15.2337 19.4347 16.1325V22.7106C19.4347 23.6093 18.7052 24.3388 17.8065 24.3388Z"
       fill="#11D4B1"
       id="path12" />
    <path
       d="M41.4614 22.4501C43.5521 22.4501 47.4208 22.7823 55.0539 23.9807C67.1158 25.8759 69.5452 27.2762 70.496 27.7582C71.4469 28.2401 72.1308 29.3864 72.0722 30.8192C72.0136 32.2521 71.0692 40.8882 68.9916 54.129C66.9074 67.3698 65.1294 76.045 64.7582 77.341C64.3934 78.6436 63.3839 79.5294 62.3223 79.7704C61.899 79.8615 61.2282 79.9918 59.8083 79.9918C57.6526 79.9918 53.7904 79.6987 46.4829 78.5524C34.3558 76.6442 31.9656 75.4132 31.0277 74.8531C30.0899 74.293 29.3995 73.1402 29.4516 71.792C29.5037 70.4439 30.4676 61.6319 32.5452 48.3976C34.6229 35.1633 36.4334 26.3383 36.7851 25.1139C37.1368 23.8895 38.1463 23.0102 39.221 22.6846C39.6183 22.5674 40.2305 22.4501 41.4549 22.4501H41.4614ZM41.4549 18.2102C40.0221 18.2102 38.9539 18.334 38.0031 18.6205C35.463 19.376 33.4375 21.4146 32.7081 23.9286C32.2261 25.5959 30.3569 34.9745 28.3509 47.7333C26.2863 60.8699 25.2703 69.9163 25.2052 71.6292C25.101 74.4558 26.4947 77.087 28.8459 78.4873C30.7151 79.601 34.0627 80.8841 45.8121 82.7337C52.2077 83.7367 56.7798 84.2252 59.7953 84.2252C61.5473 84.2252 62.5177 84.0624 63.2341 83.8996C65.9109 83.3004 68.0537 81.2293 68.8287 78.4873C69.2977 76.833 71.1017 67.9103 73.1663 54.7803C75.1919 41.8847 76.2209 32.7861 76.2991 30.9951C76.4293 27.9926 74.8988 25.2377 72.4043 23.9741L72.3197 23.9286C70.9259 23.2121 68.0211 21.7272 55.7052 19.7928C48.9318 18.7312 44.2685 18.2102 41.4549 18.2102Z"
       fill="#04A487"
       id="path13" />
    <path
       d="M36.9869 27.7321C23.7201 27.7321 20.9586 28.5527 19.2587 29.3929C16.8946 30.5652 15.2272 32.9294 14.9016 35.5541C14.6867 37.3321 14.2959 47.2317 14.2959 60.6288C14.2959 74.0259 14.6802 83.7302 14.8951 85.5994C15.2207 88.4455 16.9922 90.8618 19.5062 91.9104C21.5383 92.7571 25.0618 93.5386 36.9739 93.5386C48.886 93.5386 52.3639 92.7636 54.422 91.9234C56.9555 90.8879 58.7336 88.4651 59.0592 85.6059C59.2611 83.8409 59.6584 74.4167 59.6584 60.6353C59.6584 46.854 59.2611 37.6252 59.0592 35.7755C58.7271 32.7535 56.8058 30.2265 54.1615 29.3407L54.0703 29.3082C52.5723 28.8002 49.4592 27.7321 36.9739 27.7321H36.9869Z"
       fill="url(#paint0_radial_70_16757)"
       id="path14" />
    <path
       d="M30.7476 50.8594C34.5748 50.8594 37.6774 47.7569 37.6774 43.9297C37.6774 40.1025 34.5748 36.9999 30.7476 36.9999C26.9204 36.9999 23.8179 40.1025 23.8179 43.9297C23.8179 47.7569 26.9204 50.8594 30.7476 50.8594Z"
       fill="#031553"
       id="path15" />
  </g>
  <defs
     id="defs21">
    <radialGradient
       id="paint0_radial_70_16757"
       cx="0"
       cy="0"
       r="1"
       gradientUnits="userSpaceOnUse"
       gradientTransform="translate(54.8779 34.9288) scale(63.6573 63.6573)">
      <stop
         offset="0.21"
         stop-color="#8195DC"
         id="stop15" />
      <stop
         offset="0.39"
         stop-color="#6D90DD"
         id="stop16" />
      <stop
         offset="0.66"
         stop-color="#568ADF"
         id="stop17" />
      <stop
         offset="0.73"
         stop-color="#4E81DF"
         id="stop18" />
      <stop
         offset="0.84"
         stop-color="#3A6BDF"
         id="stop19" />
      <stop
         offset="0.99"
         stop-color="#1946DF"
         id="stop20" />
      <stop
         offset="1"
         stop-color="#1642DF"
         id="stop21" />
    </radialGradient>
    <clipPath
       id="clip0_70_16757">
      <rect
         width="271.436"
         height="97.0153"
         fill="white"
         id="rect21" />
    </clipPath>
  </defs>
</svg>
