<svg width="331" height="61" viewBox="0 0 331 61" fill="none" xmlns="http://www.w3.org/2000/svg">
<g clip-path="url(#clip0_296_48092)">
<path d="M178.349 26.5145L182.142 22.7719V11.3859L170.756 0H132.814L121.428 11.3859V3.80086L117.635 0H102.457L98.6643 3.80086V11.3859L91.0709 18.9793L83.4858 11.3859V3.80086L79.685 0H64.5065L60.714 3.80086L56.9214 0H41.7429L37.9504 3.80086V18.9793L18.971 0H3.79254L0 3.80086V56.9214L3.79254 60.714H18.971L22.7719 56.9214V41.7429L41.7429 60.714H56.9214L60.714 56.9214V26.5644L79.685 45.5355V56.9214L83.4858 60.714H98.6643L102.457 56.9214V45.5355L121.428 26.5644V49.3363L132.814 60.714H170.756L182.142 49.3363V37.9504L178.349 34.1495H159.37V37.9504H144.2V22.7719H159.37V26.5145H178.349Z" fill="#FCFCFC"/>
<path d="M179.439 2.56165C179.796 2.56165 180.104 2.52838 180.104 2.11253C180.104 1.76322 179.763 1.72163 179.48 1.72163H178.907V2.56165H179.439ZM178.915 4.19178H178.441V1.32242H179.53C180.221 1.32242 180.578 1.56361 180.578 2.1458C180.578 2.66977 180.262 2.87769 179.83 2.92759L180.636 4.19178H180.104L179.364 2.96086H178.923V4.19178H178.915ZM179.422 0.565572C178.299 0.565572 177.426 1.44717 177.426 2.71135C177.426 3.89236 178.191 4.85713 179.422 4.85713C180.537 4.85713 181.41 3.98385 181.41 2.71135C181.41 1.44717 180.537 0.565572 179.422 0.565572ZM179.422 5.30625C177.933 5.30625 176.869 4.19178 176.869 2.71135C176.869 1.14776 178.05 0.116455 179.422 0.116455C180.778 0.116455 181.959 1.14776 181.959 2.71135C181.967 4.26663 180.786 5.30625 179.422 5.30625Z" fill="#FCFCFC"/>
<path d="M197.366 0.336154H201.743L205.049 10.0451H205.089L208.218 0.336154H212.594V14.4547H209.683V4.44911H209.643L206.178 14.4547H203.782L200.317 4.54798H200.277V14.4547H197.366V0.336154Z" fill="#FCFCFC"/>
<path d="M214.915 7.37564C214.955 6.71651 215.12 6.16943 215.41 5.73441C215.701 5.29938 216.07 4.95005 216.519 4.6864C216.968 4.42275 217.47 4.23819 218.024 4.13273C218.592 4.01409 219.159 3.95476 219.727 3.95476C220.242 3.95476 220.763 3.99431 221.291 4.07341C221.819 4.13932 222.301 4.27774 222.737 4.48866C223.173 4.69958 223.529 4.99619 223.806 5.37848C224.084 5.74759 224.222 6.24194 224.222 6.86152V12.1807C224.222 12.6421 224.249 13.0837 224.301 13.5055C224.354 13.9274 224.447 14.2437 224.579 14.4547H221.727C221.674 14.2965 221.628 14.1383 221.588 13.9801C221.562 13.8087 221.542 13.6373 221.529 13.466C221.08 13.9274 220.552 14.2503 219.945 14.4349C219.338 14.6194 218.717 14.7117 218.084 14.7117C217.595 14.7117 217.14 14.6524 216.717 14.5338C216.295 14.4151 215.925 14.2306 215.608 13.9801C215.291 13.7296 215.041 13.4132 214.856 13.031C214.684 12.6487 214.598 12.1939 214.598 11.6666C214.598 11.0865 214.697 10.612 214.895 10.2428C215.107 9.86055 215.371 9.55735 215.688 9.33325C216.018 9.10914 216.387 8.94436 216.796 8.8389C217.219 8.72026 217.641 8.62798 218.064 8.56207C218.486 8.49615 218.902 8.44342 219.311 8.40387C219.72 8.36433 220.084 8.30501 220.4 8.22591C220.717 8.14682 220.968 8.03476 221.153 7.88976C221.338 7.73157 221.423 7.50746 221.41 7.21745C221.41 6.91425 221.357 6.67696 221.252 6.50559C221.159 6.32103 221.027 6.18262 220.856 6.09034C220.697 5.98488 220.506 5.91896 220.282 5.8926C220.07 5.85305 219.839 5.83328 219.588 5.83328C219.034 5.83328 218.598 5.95192 218.282 6.18921C217.965 6.42649 217.78 6.82197 217.727 7.37564H214.915ZM221.41 9.45189C221.291 9.55735 221.14 9.64304 220.955 9.70895C220.783 9.76168 220.592 9.80782 220.381 9.84736C220.183 9.88691 219.971 9.91987 219.747 9.94623C219.522 9.9726 219.298 10.0056 219.074 10.0451C218.862 10.0847 218.651 10.1374 218.44 10.2033C218.242 10.2692 218.064 10.3615 217.905 10.4801C217.76 10.5856 217.641 10.724 217.549 10.8954C217.456 11.0668 217.41 11.2843 217.41 11.5479C217.41 11.7984 217.456 12.0093 217.549 12.1807C217.641 12.352 217.767 12.4905 217.925 12.5959C218.084 12.6882 218.268 12.7541 218.48 12.7937C218.691 12.8332 218.909 12.853 219.133 12.853C219.687 12.853 220.117 12.7607 220.42 12.5762C220.724 12.3916 220.948 12.1741 221.093 11.9236C221.239 11.66 221.324 11.3963 221.351 11.1327C221.39 10.869 221.41 10.6581 221.41 10.4999V9.45189Z" fill="#FCFCFC"/>
<path d="M231.454 15.7202C231.15 16.5507 230.728 17.1439 230.187 17.4998C229.646 17.8558 228.893 18.0337 227.929 18.0337C227.639 18.0337 227.349 18.0205 227.058 17.9942C226.781 17.981 226.497 17.9612 226.207 17.9349V15.6213C226.471 15.6477 226.741 15.6741 227.019 15.7004C227.296 15.7268 227.573 15.7334 227.85 15.7202C228.22 15.6806 228.49 15.5356 228.662 15.2852C228.847 15.0347 228.939 14.7579 228.939 14.4547C228.939 14.2306 228.9 14.0196 228.82 13.8219L225.236 4.2316H228.226L230.543 11.2315H230.583L232.82 4.2316H235.731L231.454 15.7202Z" fill="#FCFCFC"/>
<path d="M239.168 9.35302C239.168 9.76168 239.208 10.1637 239.287 10.5592C239.366 10.9415 239.498 11.2909 239.683 11.6072C239.881 11.9104 240.138 12.1543 240.455 12.3389C240.772 12.5234 241.168 12.6157 241.643 12.6157C242.118 12.6157 242.515 12.5234 242.831 12.3389C243.161 12.1543 243.419 11.9104 243.604 11.6072C243.802 11.2909 243.94 10.9415 244.019 10.5592C244.099 10.1637 244.138 9.76168 244.138 9.35302C244.138 8.94436 244.099 8.54229 244.019 8.14682C243.94 7.75134 243.802 7.402 243.604 7.0988C243.419 6.7956 243.161 6.55173 242.831 6.36717C242.515 6.16943 242.118 6.07056 241.643 6.07056C241.168 6.07056 240.772 6.16943 240.455 6.36717C240.138 6.55173 239.881 6.7956 239.683 7.0988C239.498 7.402 239.366 7.75134 239.287 8.14682C239.208 8.54229 239.168 8.94436 239.168 9.35302ZM236.356 9.35302C236.356 8.5357 236.482 7.79748 236.732 7.13835C236.983 6.46604 237.34 5.89919 237.802 5.4378C238.264 4.96323 238.818 4.60071 239.465 4.35024C240.112 4.08659 240.838 3.95476 241.643 3.95476C242.449 3.95476 243.175 4.08659 243.821 4.35024C244.482 4.60071 245.043 4.96323 245.505 5.4378C245.967 5.89919 246.323 6.46604 246.574 7.13835C246.825 7.79748 246.95 8.5357 246.95 9.35302C246.95 10.1703 246.825 10.9086 246.574 11.5677C246.323 12.2268 245.967 12.7937 245.505 13.2682C245.043 13.7296 244.482 14.0856 243.821 14.336C243.175 14.5865 242.449 14.7117 241.643 14.7117C240.838 14.7117 240.112 14.5865 239.465 14.336C238.818 14.0856 238.264 13.7296 237.802 13.2682C237.34 12.7937 236.983 12.2268 236.732 11.5677C236.482 10.9086 236.356 10.1703 236.356 9.35302Z" fill="#FCFCFC"/>
<path d="M248.778 4.2316H251.452V6.12989H251.491C251.623 5.8135 251.801 5.52349 252.026 5.25984C252.25 4.983 252.508 4.75231 252.798 4.56775C253.089 4.37001 253.399 4.21842 253.729 4.11296C254.059 4.0075 254.402 3.95476 254.759 3.95476C254.943 3.95476 255.148 3.98772 255.372 4.05363V6.66378C255.24 6.63741 255.082 6.61764 254.897 6.60446C254.712 6.57809 254.534 6.56491 254.363 6.56491C253.848 6.56491 253.412 6.6506 253.056 6.82197C252.699 6.99334 252.409 7.23063 252.184 7.53383C251.973 7.82384 251.821 8.16659 251.729 8.56207C251.636 8.95754 251.59 9.38598 251.59 9.84736V14.4547H248.778V4.2316Z" fill="#FCFCFC"/>
<path d="M256.752 0.336154H259.564V3.36155C259.577 3.79657 259.511 4.20523 259.366 4.58753C259.234 4.96982 259.042 5.30598 258.792 5.59599C258.541 5.88601 258.237 6.12989 257.881 6.32762C257.538 6.51218 257.161 6.63082 256.752 6.68355V5.37848C257.254 5.20711 257.597 4.95664 257.782 4.62708C257.967 4.28433 258.059 3.86908 258.059 3.38132H256.752V0.336154Z" fill="#FCFCFC"/>
<path d="M262.695 11.1327C262.695 11.4359 262.754 11.6995 262.873 11.9236C263.005 12.1345 263.17 12.3125 263.368 12.4575C263.566 12.5893 263.79 12.6882 264.041 12.7541C264.305 12.82 264.576 12.853 264.853 12.853C265.051 12.853 265.256 12.8332 265.467 12.7937C265.691 12.7409 265.889 12.6684 266.061 12.5762C266.246 12.4707 266.398 12.3389 266.516 12.1807C266.635 12.0093 266.695 11.7984 266.695 11.5479C266.695 11.1261 266.411 10.8097 265.843 10.5988C265.289 10.3878 264.51 10.1769 263.507 9.96601C263.097 9.87373 262.695 9.76827 262.299 9.64963C261.916 9.5178 261.573 9.35302 261.269 9.15528C260.965 8.94436 260.721 8.6873 260.536 8.3841C260.351 8.06772 260.259 7.68543 260.259 7.23722C260.259 6.57809 260.384 6.03761 260.635 5.61577C260.899 5.19392 261.242 4.86436 261.665 4.62708C262.087 4.37661 262.563 4.20523 263.091 4.11296C263.619 4.0075 264.16 3.95476 264.714 3.95476C265.269 3.95476 265.804 4.0075 266.318 4.11296C266.846 4.21842 267.315 4.39638 267.724 4.64685C268.134 4.89732 268.47 5.23347 268.734 5.65531C269.011 6.06397 269.176 6.58468 269.229 7.21745H266.556C266.516 6.67696 266.312 6.31444 265.942 6.12989C265.572 5.93215 265.137 5.83328 264.635 5.83328C264.477 5.83328 264.305 5.84646 264.12 5.87283C263.936 5.88601 263.764 5.92556 263.606 5.99147C263.46 6.05738 263.335 6.15625 263.229 6.28808C263.124 6.40672 263.071 6.5715 263.071 6.78242C263.071 7.03289 263.163 7.23722 263.348 7.39541C263.533 7.5536 263.771 7.68543 264.061 7.79089C264.365 7.88317 264.708 7.96885 265.091 8.04795C265.473 8.12704 265.863 8.21273 266.259 8.30501C266.668 8.39728 267.064 8.50934 267.447 8.64116C267.843 8.77299 268.193 8.95095 268.497 9.17505C268.8 9.38598 269.044 9.65622 269.229 9.98578C269.414 10.3022 269.506 10.6976 269.506 11.1722C269.506 11.8445 269.368 12.4114 269.091 12.8728C268.827 13.321 268.477 13.6835 268.041 13.9603C267.605 14.2372 267.104 14.4283 266.536 14.5338C265.982 14.6524 265.414 14.7117 264.833 14.7117C264.239 14.7117 263.658 14.6524 263.091 14.5338C262.523 14.4151 262.015 14.2174 261.566 13.9405C261.13 13.6637 260.767 13.3012 260.477 12.853C260.2 12.3916 260.048 11.8182 260.021 11.1327H262.695Z" fill="#FCFCFC"/>
<path d="M279.455 7.45473C279.455 8.04795 279.522 8.62798 279.654 9.19483C279.799 9.7485 280.023 10.2494 280.327 10.6976C280.63 11.1458 281.026 11.5084 281.515 11.7852C282.003 12.0489 282.597 12.1807 283.297 12.1807C283.997 12.1807 284.591 12.0489 285.079 11.7852C285.568 11.5084 285.964 11.1458 286.267 10.6976C286.571 10.2494 286.789 9.7485 286.921 9.19483C287.066 8.62798 287.139 8.04795 287.139 7.45473C287.139 6.83515 287.066 6.23535 286.921 5.65531C286.789 5.07528 286.571 4.56116 286.267 4.11296C285.964 3.65157 285.568 3.28905 285.079 3.0254C284.591 2.74856 283.997 2.61014 283.297 2.61014C282.597 2.61014 282.003 2.74856 281.515 3.0254C281.026 3.28905 280.63 3.65157 280.327 4.11296C280.023 4.56116 279.799 5.07528 279.654 5.65531C279.522 6.23535 279.455 6.83515 279.455 7.45473ZM276.347 7.45473C276.347 6.40013 276.505 5.42462 276.822 4.52821C277.139 3.61861 277.594 2.82766 278.188 2.15535C278.782 1.48304 279.508 0.955734 280.366 0.573441C281.238 0.191147 282.215 0 283.297 0C284.393 0 285.37 0.191147 286.228 0.573441C287.086 0.955734 287.812 1.48304 288.406 2.15535C289 2.82766 289.455 3.61861 289.772 4.52821C290.089 5.42462 290.248 6.40013 290.248 7.45473C290.248 8.48297 290.089 9.4453 289.772 10.3417C289.455 11.2249 289 11.9961 288.406 12.6552C287.812 13.3144 287.086 13.8351 286.228 14.2174C285.37 14.5865 284.393 14.771 283.297 14.771C282.215 14.771 281.238 14.5865 280.366 14.2174C279.508 13.8351 278.782 13.3144 278.188 12.6552C277.594 11.9961 277.139 11.2249 276.822 10.3417C276.505 9.4453 276.347 8.48297 276.347 7.45473Z" fill="#FCFCFC"/>
<path d="M298.689 6.11011H295.501V14.4547H292.689V6.11011H291.006V4.2316H292.689V3.44064C292.689 2.53105 292.973 1.78623 293.541 1.2062C294.109 0.626171 294.967 0.336154 296.115 0.336154C296.366 0.336154 296.617 0.349337 296.868 0.375703C297.118 0.388885 297.363 0.402067 297.6 0.41525V2.51128C297.257 2.47173 296.914 2.45195 296.571 2.45195C296.188 2.45195 295.911 2.54423 295.739 2.72879C295.581 2.90016 295.501 3.19677 295.501 3.61861V4.2316H298.689V3.44064C298.689 2.53105 298.973 1.78623 299.541 1.2062C300.109 0.626171 300.967 0.336154 302.115 0.336154C302.366 0.336154 302.617 0.349337 302.868 0.375703C303.118 0.388885 303.363 0.402067 303.6 0.41525V2.51128C303.257 2.47173 302.914 2.45195 302.571 2.45195C302.188 2.45195 301.911 2.54423 301.739 2.72879C301.581 2.90016 301.501 3.19677 301.501 3.61861V4.2316H303.442V6.11011H301.501V14.4547H298.689V6.11011ZM307.561 2.64969H304.749V0.336154H307.561V2.64969ZM304.749 4.2316H307.561V14.4547H304.749V4.2316Z" fill="#FCFCFC"/>
<path d="M316.74 7.83043C316.555 6.65719 315.862 6.07056 314.661 6.07056C314.212 6.07056 313.836 6.17602 313.532 6.38695C313.228 6.58468 312.978 6.84833 312.78 7.1779C312.595 7.49428 312.463 7.85021 312.383 8.24569C312.304 8.62798 312.265 9.01027 312.265 9.39257C312.265 9.76168 312.304 10.1374 312.383 10.5197C312.463 10.902 312.588 11.2513 312.76 11.5677C312.945 11.8709 313.189 12.1214 313.492 12.3191C313.796 12.5168 314.166 12.6157 314.601 12.6157C315.275 12.6157 315.789 12.4311 316.146 12.062C316.515 11.6797 316.746 11.1722 316.839 10.5394H319.552C319.367 11.8973 318.839 12.9321 317.968 13.6439C317.096 14.3558 315.981 14.7117 314.621 14.7117C313.855 14.7117 313.149 14.5865 312.502 14.336C311.869 14.0724 311.327 13.7099 310.879 13.2485C310.43 12.7871 310.08 12.24 309.829 11.6072C309.578 10.9613 309.453 10.256 309.453 9.49144C309.453 8.70048 309.565 7.96885 309.789 7.29654C310.027 6.61105 310.37 6.02442 310.819 5.53667C311.268 5.03573 311.816 4.64685 312.463 4.37001C313.11 4.09318 313.849 3.95476 314.681 3.95476C315.288 3.95476 315.869 4.03386 316.423 4.19205C316.991 4.35024 317.492 4.59412 317.928 4.92368C318.377 5.24006 318.74 5.64213 319.017 6.12989C319.294 6.60446 319.453 7.17131 319.492 7.83043H316.74Z" fill="#FCFCFC"/>
<path d="M328.031 8.24569C327.899 7.53383 327.662 6.99334 327.318 6.62423C326.988 6.25512 326.48 6.07056 325.794 6.07056C325.345 6.07056 324.969 6.14966 324.665 6.30785C324.375 6.45286 324.137 6.63741 323.952 6.86152C323.78 7.08562 323.655 7.32291 323.576 7.57338C323.51 7.82384 323.47 8.04795 323.457 8.24569H328.031ZM323.457 10.0253C323.497 10.9349 323.728 11.5941 324.15 12.0027C324.573 12.4114 325.18 12.6157 325.972 12.6157C326.54 12.6157 327.028 12.4773 327.437 12.2004C327.846 11.9104 328.097 11.6072 328.19 11.2909H330.665C330.269 12.5168 329.662 13.3935 328.843 13.9208C328.025 14.4481 327.035 14.7117 325.873 14.7117C325.068 14.7117 324.342 14.5865 323.695 14.336C323.048 14.0724 322.5 13.7033 322.051 13.2287C321.602 12.7541 321.252 12.1873 321.002 11.5281C320.764 10.869 320.645 10.144 320.645 9.35302C320.645 8.58843 320.771 7.87657 321.021 7.21745C321.272 6.55832 321.629 5.99147 322.091 5.5169C322.553 5.02914 323.101 4.64685 323.734 4.37001C324.381 4.09318 325.094 3.95476 325.873 3.95476C326.744 3.95476 327.503 4.12614 328.15 4.46888C328.797 4.79845 329.325 5.24665 329.734 5.8135C330.157 6.38035 330.46 7.0263 330.645 7.75134C330.83 8.47638 330.896 9.23438 330.843 10.0253H323.457Z" fill="#FCFCFC"/>
<path d="M197.683 27.5932H196V25.7147H197.683V24.9238C197.683 24.0142 197.967 23.2694 198.535 22.6893C199.102 22.1093 199.96 21.8193 201.109 21.8193C201.36 21.8193 201.611 21.8325 201.861 21.8588C202.112 21.872 202.356 21.8852 202.594 21.8984V23.9944C202.264 23.9549 201.921 23.9351 201.564 23.9351C201.181 23.9351 200.904 24.0274 200.733 24.2119C200.574 24.3833 200.495 24.6799 200.495 25.1017V25.7147H202.436V27.5932H200.495V35.9378H197.683V27.5932Z" fill="#FCFCFC"/>
<path d="M206.159 30.8362C206.159 31.2448 206.198 31.6469 206.277 32.0424C206.357 32.4247 206.489 32.774 206.673 33.0904C206.871 33.3936 207.129 33.6374 207.446 33.822C207.762 34.0066 208.158 34.0988 208.634 34.0988C209.109 34.0988 209.505 34.0066 209.822 33.822C210.152 33.6374 210.409 33.3936 210.594 33.0904C210.792 32.774 210.931 32.4247 211.01 32.0424C211.089 31.6469 211.129 31.2448 211.129 30.8362C211.129 30.4275 211.089 30.0254 211.01 29.63C210.931 29.2345 210.792 28.8851 210.594 28.5819C210.409 28.2787 210.152 28.0349 209.822 27.8503C209.505 27.6526 209.109 27.5537 208.634 27.5537C208.158 27.5537 207.762 27.6526 207.446 27.8503C207.129 28.0349 206.871 28.2787 206.673 28.5819C206.489 28.8851 206.357 29.2345 206.277 29.63C206.198 30.0254 206.159 30.4275 206.159 30.8362ZM203.347 30.8362C203.347 30.0188 203.472 29.2806 203.723 28.6215C203.974 27.9492 204.33 27.3823 204.792 26.9209C205.254 26.4464 205.809 26.0838 206.456 25.8334C207.102 25.5697 207.828 25.4379 208.634 25.4379C209.439 25.4379 210.165 25.5697 210.812 25.8334C211.472 26.0838 212.033 26.4464 212.495 26.9209C212.957 27.3823 213.314 27.9492 213.564 28.6215C213.815 29.2806 213.941 30.0188 213.941 30.8362C213.941 31.6535 213.815 32.3917 213.564 33.0508C213.314 33.71 212.957 34.2768 212.495 34.7514C212.033 35.2128 211.472 35.5687 210.812 35.8192C210.165 36.0696 209.439 36.1949 208.634 36.1949C207.828 36.1949 207.102 36.0696 206.456 35.8192C205.809 35.5687 205.254 35.2128 204.792 34.7514C204.33 34.2768 203.974 33.71 203.723 33.0508C203.472 32.3917 203.347 31.6535 203.347 30.8362Z" fill="#FCFCFC"/>
<path d="M215.769 25.7147H218.442V27.613H218.482C218.614 27.2966 218.792 27.0066 219.016 26.743C219.241 26.4661 219.498 26.2354 219.789 26.0509C220.079 25.8532 220.389 25.7016 220.719 25.5961C221.049 25.4906 221.393 25.4379 221.749 25.4379C221.934 25.4379 222.138 25.4709 222.363 25.5368V28.1469C222.231 28.1206 222.072 28.1008 221.888 28.0876C221.703 28.0612 221.525 28.048 221.353 28.048C220.838 28.048 220.403 28.1337 220.046 28.3051C219.69 28.4765 219.399 28.7138 219.175 29.017C218.964 29.307 218.812 29.6497 218.719 30.0452C218.627 30.4407 218.581 30.8691 218.581 31.3305V35.9378H215.769V25.7147Z" fill="#FCFCFC"/>
<path d="M229.274 21.8193H239.848V24.4294H232.382V27.4548H239.234V29.8672H232.382V33.3277H240.006V35.9378H229.274V21.8193Z" fill="#FCFCFC"/>
<path d="M248.787 29.3136C248.602 28.1403 247.909 27.5537 246.708 27.5537C246.259 27.5537 245.883 27.6592 245.579 27.8701C245.276 28.0678 245.025 28.3315 244.827 28.661C244.642 28.9774 244.51 29.3333 244.431 29.7288C244.351 30.1111 244.312 30.4934 244.312 30.8757C244.312 31.2448 244.351 31.6205 244.431 32.0028C244.51 32.3851 244.635 32.7344 244.807 33.0508C244.992 33.354 245.236 33.6045 245.54 33.8022C245.843 34 246.213 34.0988 246.648 34.0988C247.322 34.0988 247.837 33.9143 248.193 33.5452C248.563 33.1629 248.794 32.6553 248.886 32.0226H251.599C251.414 33.3804 250.886 34.4152 250.015 35.1271C249.144 35.8389 248.028 36.1949 246.668 36.1949C245.903 36.1949 245.196 36.0696 244.549 35.8192C243.916 35.5555 243.375 35.193 242.926 34.7316C242.477 34.2702 242.127 33.7231 241.876 33.0904C241.625 32.4444 241.5 31.7392 241.5 30.9746C241.5 30.1836 241.612 29.452 241.837 28.7797C242.074 28.0942 242.417 27.5076 242.866 27.0198C243.315 26.5189 243.863 26.13 244.51 25.8532C245.157 25.5763 245.896 25.4379 246.728 25.4379C247.335 25.4379 247.916 25.517 248.47 25.6752C249.038 25.8334 249.54 26.0773 249.975 26.4068C250.424 26.7232 250.787 27.1253 251.064 27.613C251.342 28.0876 251.5 28.6544 251.54 29.3136H248.787Z" fill="#FCFCFC"/>
<path d="M255.682 30.8362C255.682 31.2448 255.722 31.6469 255.801 32.0424C255.88 32.4247 256.012 32.774 256.197 33.0904C256.395 33.3936 256.653 33.6374 256.97 33.822C257.286 34.0066 257.682 34.0988 258.158 34.0988C258.633 34.0988 259.029 34.0066 259.346 33.822C259.676 33.6374 259.933 33.3936 260.118 33.0904C260.316 32.774 260.455 32.4247 260.534 32.0424C260.613 31.6469 260.653 31.2448 260.653 30.8362C260.653 30.4275 260.613 30.0254 260.534 29.63C260.455 29.2345 260.316 28.8851 260.118 28.5819C259.933 28.2787 259.676 28.0349 259.346 27.8503C259.029 27.6526 258.633 27.5537 258.158 27.5537C257.682 27.5537 257.286 27.6526 256.97 27.8503C256.653 28.0349 256.395 28.2787 256.197 28.5819C256.012 28.8851 255.88 29.2345 255.801 29.63C255.722 30.0254 255.682 30.4275 255.682 30.8362ZM252.871 30.8362C252.871 30.0188 252.996 29.2806 253.247 28.6215C253.498 27.9492 253.854 27.3823 254.316 26.9209C254.778 26.4464 255.333 26.0838 255.979 25.8334C256.626 25.5697 257.352 25.4379 258.158 25.4379C258.963 25.4379 259.689 25.5697 260.336 25.8334C260.996 26.0838 261.557 26.4464 262.019 26.9209C262.481 27.3823 262.838 27.9492 263.088 28.6215C263.339 29.2806 263.465 30.0188 263.465 30.8362C263.465 31.6535 263.339 32.3917 263.088 33.0508C262.838 33.71 262.481 34.2768 262.019 34.7514C261.557 35.2128 260.996 35.5687 260.336 35.8192C259.689 36.0696 258.963 36.1949 258.158 36.1949C257.352 36.1949 256.626 36.0696 255.979 35.8192C255.333 35.5687 254.778 35.2128 254.316 34.7514C253.854 34.2768 253.498 33.71 253.247 33.0508C252.996 32.3917 252.871 31.6535 252.871 30.8362Z" fill="#FCFCFC"/>
<path d="M265.293 25.7147H267.966V27.1385H268.025C268.382 26.5452 268.844 26.1168 269.412 25.8532C269.979 25.5763 270.56 25.4379 271.154 25.4379C271.907 25.4379 272.521 25.5434 272.996 25.7543C273.484 25.952 273.867 26.2354 274.144 26.6046C274.421 26.9605 274.613 27.4021 274.719 27.9294C274.837 28.4435 274.897 29.017 274.897 29.6497V35.9378H272.085V30.1638C272.085 29.3202 271.953 28.694 271.689 28.2853C271.425 27.8635 270.956 27.6526 270.283 27.6526C269.517 27.6526 268.963 27.8833 268.62 28.3447C268.276 28.7929 268.105 29.5377 268.105 30.5791V35.9378H265.293V25.7147Z" fill="#FCFCFC"/>
<path d="M279.526 30.8362C279.526 31.2448 279.565 31.6469 279.645 32.0424C279.724 32.4247 279.856 32.774 280.041 33.0904C280.239 33.3936 280.496 33.6374 280.813 33.822C281.13 34.0066 281.526 34.0988 282.001 34.0988C282.476 34.0988 282.872 34.0066 283.189 33.822C283.519 33.6374 283.777 33.3936 283.962 33.0904C284.16 32.774 284.298 32.4247 284.377 32.0424C284.457 31.6469 284.496 31.2448 284.496 30.8362C284.496 30.4275 284.457 30.0254 284.377 29.63C284.298 29.2345 284.16 28.8851 283.962 28.5819C283.777 28.2787 283.519 28.0349 283.189 27.8503C282.872 27.6526 282.476 27.5537 282.001 27.5537C281.526 27.5537 281.13 27.6526 280.813 27.8503C280.496 28.0349 280.239 28.2787 280.041 28.5819C279.856 28.8851 279.724 29.2345 279.645 29.63C279.565 30.0254 279.526 30.4275 279.526 30.8362ZM276.714 30.8362C276.714 30.0188 276.839 29.2806 277.09 28.6215C277.341 27.9492 277.698 27.3823 278.16 26.9209C278.622 26.4464 279.176 26.0838 279.823 25.8334C280.47 25.5697 281.196 25.4379 282.001 25.4379C282.806 25.4379 283.532 25.5697 284.179 25.8334C284.839 26.0838 285.4 26.4464 285.862 26.9209C286.325 27.3823 286.681 27.9492 286.932 28.6215C287.183 29.2806 287.308 30.0188 287.308 30.8362C287.308 31.6535 287.183 32.3917 286.932 33.0508C286.681 33.71 286.325 34.2768 285.862 34.7514C285.4 35.2128 284.839 35.5687 284.179 35.8192C283.532 36.0696 282.806 36.1949 282.001 36.1949C281.196 36.1949 280.47 36.0696 279.823 35.8192C279.176 35.5687 278.622 35.2128 278.16 34.7514C277.698 34.2768 277.341 33.71 277.09 33.0508C276.839 32.3917 276.714 31.6535 276.714 30.8362Z" fill="#FCFCFC"/>
<path d="M289.215 25.7147H291.869V27.0989H291.909C292.278 26.5716 292.72 26.1629 293.235 25.8729C293.763 25.5829 294.364 25.4379 295.037 25.4379C295.684 25.4379 296.272 25.5631 296.8 25.8136C297.341 26.0641 297.75 26.5057 298.027 27.1385C298.331 26.6902 298.74 26.2948 299.255 25.952C299.783 25.6093 300.404 25.4379 301.116 25.4379C301.658 25.4379 302.159 25.5038 302.621 25.6356C303.083 25.7675 303.479 25.9784 303.809 26.2684C304.139 26.5584 304.397 26.9407 304.582 27.4153C304.767 27.8767 304.859 28.4369 304.859 29.0961V35.9378H302.047V30.1441C302.047 29.8013 302.034 29.4784 302.007 29.1752C301.981 28.872 301.908 28.6083 301.79 28.3842C301.671 28.1601 301.493 27.9821 301.255 27.8503C301.031 27.7185 300.72 27.6526 300.324 27.6526C299.928 27.6526 299.605 27.7317 299.354 27.8899C299.116 28.0349 298.925 28.2326 298.78 28.4831C298.648 28.7204 298.555 28.9972 298.503 29.3136C298.463 29.6168 298.443 29.9266 298.443 30.2429V35.9378H295.631V30.2034C295.631 29.9002 295.625 29.6036 295.611 29.3136C295.598 29.0104 295.539 28.7335 295.433 28.4831C295.341 28.2326 295.176 28.0349 294.938 27.8899C294.714 27.7317 294.377 27.6526 293.928 27.6526C293.796 27.6526 293.618 27.6855 293.394 27.7514C293.182 27.8042 292.971 27.9162 292.76 28.0876C292.562 28.2458 292.39 28.4831 292.245 28.7995C292.1 29.1027 292.027 29.5047 292.027 30.0057V35.9378H289.215V25.7147Z" fill="#FCFCFC"/>
<path d="M309.973 24.1328H307.161V21.8193H309.973V24.1328ZM307.161 25.7147H309.973V35.9378H307.161V25.7147Z" fill="#FCFCFC"/>
<path d="M319.157 29.3136C318.972 28.1403 318.279 27.5537 317.078 27.5537C316.629 27.5537 316.253 27.6592 315.949 27.8701C315.646 28.0678 315.395 28.3315 315.197 28.661C315.012 28.9774 314.88 29.3333 314.801 29.7288C314.721 30.1111 314.682 30.4934 314.682 30.8757C314.682 31.2448 314.721 31.6205 314.801 32.0028C314.88 32.3851 315.005 32.7344 315.177 33.0508C315.362 33.354 315.606 33.6045 315.91 33.8022C316.213 34 316.583 34.0988 317.019 34.0988C317.692 34.0988 318.207 33.9143 318.563 33.5452C318.933 33.1629 319.164 32.6553 319.256 32.0226H321.969C321.784 33.3804 321.256 34.4152 320.385 35.1271C319.514 35.8389 318.398 36.1949 317.038 36.1949C316.273 36.1949 315.566 36.0696 314.92 35.8192C314.286 35.5555 313.745 35.193 313.296 34.7316C312.847 34.2702 312.497 33.7231 312.246 33.0904C311.995 32.4444 311.87 31.7392 311.87 30.9746C311.87 30.1836 311.982 29.452 312.207 28.7797C312.444 28.0942 312.788 27.5076 313.236 27.0198C313.685 26.5189 314.233 26.13 314.88 25.8532C315.527 25.5763 316.266 25.4379 317.098 25.4379C317.705 25.4379 318.286 25.517 318.84 25.6752C319.408 25.8334 319.91 26.0773 320.345 26.4068C320.794 26.7232 321.157 27.1253 321.434 27.613C321.712 28.0876 321.87 28.6544 321.91 29.3136H319.157Z" fill="#FCFCFC"/>
<path d="M199.861 50.421C199.861 51.0142 199.927 51.5943 200.059 52.1611C200.205 52.7148 200.429 53.2157 200.733 53.6639C201.036 54.1121 201.432 54.4746 201.921 54.7515C202.409 55.0151 203.003 55.1469 203.703 55.1469C204.403 55.1469 204.997 55.0151 205.485 54.7515C205.974 54.4746 206.37 54.1121 206.673 53.6639C206.977 53.2157 207.195 52.7148 207.327 52.1611C207.472 51.5943 207.544 51.0142 207.544 50.421C207.544 49.8014 207.472 49.2016 207.327 48.6216C207.195 48.0416 206.977 47.5274 206.673 47.0792C206.37 46.6178 205.974 46.2553 205.485 45.9917C204.997 45.7148 204.403 45.5764 203.703 45.5764C203.003 45.5764 202.409 45.7148 201.921 45.9917C201.432 46.2553 201.036 46.6178 200.733 47.0792C200.429 47.5274 200.205 48.0416 200.059 48.6216C199.927 49.2016 199.861 49.8014 199.861 50.421ZM196.752 50.421C196.752 49.3664 196.911 48.3909 197.228 47.4945C197.545 46.5849 198 45.7939 198.594 45.1216C199.188 44.4493 199.914 43.922 200.772 43.5397C201.644 43.1574 202.62 42.9663 203.703 42.9663C204.799 42.9663 205.776 43.1574 206.634 43.5397C207.492 43.922 208.218 44.4493 208.812 45.1216C209.406 45.7939 209.861 46.5849 210.178 47.4945C210.495 48.3909 210.653 49.3664 210.653 50.421C210.653 51.4492 210.495 52.4116 210.178 53.308C209.861 54.1912 209.406 54.9624 208.812 55.6215C208.218 56.2806 207.492 56.8014 206.634 57.1837C205.776 57.5528 204.799 57.7373 203.703 57.7373C202.62 57.7373 201.644 57.5528 200.772 57.1837C199.914 56.8014 199.188 56.2806 198.594 55.6215C198 54.9624 197.545 54.1912 197.228 53.308C196.911 52.4116 196.752 51.4492 196.752 50.421Z" fill="#FCFCFC"/>
<path d="M217.65 55.582C218.112 55.582 218.495 55.4897 218.798 55.3051C219.115 55.1206 219.366 54.8833 219.551 54.5933C219.749 54.2901 219.887 53.9407 219.967 53.5453C220.046 53.1498 220.085 52.7477 220.085 52.3391C220.085 51.9304 220.039 51.5283 219.947 51.1329C219.868 50.7374 219.729 50.3881 219.531 50.0849C219.333 49.7685 219.075 49.518 218.759 49.3334C218.455 49.1357 218.079 49.0368 217.63 49.0368C217.168 49.0368 216.778 49.1357 216.462 49.3334C216.158 49.518 215.907 49.7619 215.709 50.0651C215.524 50.3683 215.392 50.7176 215.313 51.1131C215.234 51.5086 215.194 51.9172 215.194 52.3391C215.194 52.7477 215.234 53.1498 215.313 53.5453C215.406 53.9407 215.544 54.2901 215.729 54.5933C215.927 54.8833 216.184 55.1206 216.501 55.3051C216.818 55.4897 217.201 55.582 217.65 55.582ZM212.481 47.1979H215.155V48.5029H215.194C215.538 47.9493 215.973 47.5472 216.501 47.2967C217.029 47.0463 217.61 46.921 218.244 46.921C219.049 46.921 219.742 47.0726 220.323 47.3758C220.904 47.679 221.386 48.0811 221.769 48.582C222.151 49.083 222.435 49.6696 222.62 50.3419C222.805 51.001 222.897 51.6931 222.897 52.4182C222.897 53.1037 222.805 53.7628 222.62 54.3955C222.435 55.0283 222.151 55.5886 221.769 56.0763C221.399 56.5641 220.93 56.953 220.363 57.243C219.808 57.533 219.155 57.678 218.402 57.678C217.769 57.678 217.181 57.5528 216.64 57.3023C216.112 57.0386 215.676 56.6564 215.333 56.1554H215.293V61H212.481V47.1979Z" fill="#FCFCFC"/>
<path d="M229.755 55.582C230.217 55.582 230.6 55.4897 230.904 55.3051C231.221 55.1206 231.471 54.8833 231.656 54.5933C231.854 54.2901 231.993 53.9407 232.072 53.5453C232.151 53.1498 232.191 52.7477 232.191 52.3391C232.191 51.9304 232.145 51.5283 232.052 51.1329C231.973 50.7374 231.834 50.3881 231.636 50.0849C231.438 49.7685 231.181 49.518 230.864 49.3334C230.56 49.1357 230.184 49.0368 229.735 49.0368C229.273 49.0368 228.884 49.1357 228.567 49.3334C228.263 49.518 228.013 49.7619 227.815 50.0651C227.63 50.3683 227.498 50.7176 227.419 51.1131C227.339 51.5086 227.3 51.9172 227.3 52.3391C227.3 52.7477 227.339 53.1498 227.419 53.5453C227.511 53.9407 227.65 54.2901 227.834 54.5933C228.032 54.8833 228.29 55.1206 228.607 55.3051C228.924 55.4897 229.306 55.582 229.755 55.582ZM224.587 47.1979H227.26V48.5029H227.3C227.643 47.9493 228.079 47.5472 228.607 47.2967C229.135 47.0463 229.716 46.921 230.349 46.921C231.155 46.921 231.848 47.0726 232.428 47.3758C233.009 47.679 233.491 48.0811 233.874 48.582C234.257 49.083 234.541 49.6696 234.725 50.3419C234.91 51.001 235.003 51.6931 235.003 52.4182C235.003 53.1037 234.91 53.7628 234.725 54.3955C234.541 55.0283 234.257 55.5886 233.874 56.0763C233.504 56.5641 233.036 56.953 232.468 57.243C231.914 57.533 231.26 57.678 230.508 57.678C229.874 57.678 229.287 57.5528 228.745 57.3023C228.217 57.0386 227.782 56.6564 227.438 56.1554H227.399V61H224.587V47.1979Z" fill="#FCFCFC"/>
<path d="M239.187 52.3193C239.187 52.728 239.227 53.13 239.306 53.5255C239.385 53.9078 239.517 54.2571 239.702 54.5735C239.9 54.8767 240.158 55.1206 240.474 55.3051C240.791 55.4897 241.187 55.582 241.663 55.582C242.138 55.582 242.534 55.4897 242.851 55.3051C243.181 55.1206 243.438 54.8767 243.623 54.5735C243.821 54.2571 243.96 53.9078 244.039 53.5255C244.118 53.13 244.158 52.728 244.158 52.3193C244.158 51.9106 244.118 51.5086 244.039 51.1131C243.96 50.7176 243.821 50.3683 243.623 50.0651C243.438 49.7619 243.181 49.518 242.851 49.3334C242.534 49.1357 242.138 49.0368 241.663 49.0368C241.187 49.0368 240.791 49.1357 240.474 49.3334C240.158 49.518 239.9 49.7619 239.702 50.0651C239.517 50.3683 239.385 50.7176 239.306 51.1131C239.227 51.5086 239.187 51.9106 239.187 52.3193ZM236.375 52.3193C236.375 51.502 236.501 50.7638 236.752 50.1046C237.003 49.4323 237.359 48.8655 237.821 48.4041C238.283 47.9295 238.838 47.567 239.484 47.3165C240.131 47.0529 240.857 46.921 241.663 46.921C242.468 46.921 243.194 47.0529 243.841 47.3165C244.501 47.567 245.062 47.9295 245.524 48.4041C245.986 48.8655 246.342 49.4323 246.593 50.1046C246.844 50.7638 246.969 51.502 246.969 52.3193C246.969 53.1366 246.844 53.8748 246.593 54.534C246.342 55.1931 245.986 55.7599 245.524 56.2345C245.062 56.6959 244.501 57.0518 243.841 57.3023C243.194 57.5528 242.468 57.678 241.663 57.678C240.857 57.678 240.131 57.5528 239.484 57.3023C238.838 57.0518 238.283 56.6959 237.821 56.2345C237.359 55.7599 237.003 55.1931 236.752 54.534C236.501 53.8748 236.375 53.1366 236.375 52.3193Z" fill="#FCFCFC"/>
<path d="M248.798 47.1979H251.471V49.0962H251.511C251.643 48.7798 251.821 48.4898 252.045 48.2261C252.27 47.9493 252.527 47.7186 252.818 47.534C253.108 47.3363 253.418 47.1847 253.748 47.0792C254.078 46.9738 254.421 46.921 254.778 46.921C254.963 46.921 255.167 46.954 255.392 47.0199V49.6301C255.26 49.6037 255.101 49.5839 254.917 49.5707C254.732 49.5444 254.553 49.5312 254.382 49.5312C253.867 49.5312 253.431 49.6169 253.075 49.7882C252.719 49.9596 252.428 50.1969 252.204 50.5001C251.992 50.7901 251.841 51.1329 251.748 51.5283C251.656 51.9238 251.61 52.3522 251.61 52.8136V57.4209H248.798V47.1979Z" fill="#FCFCFC"/>
<path d="M260.059 47.1979H262.118V49.0764H260.059V54.1385C260.059 54.6131 260.138 54.9294 260.296 55.0876C260.455 55.2458 260.771 55.3249 261.247 55.3249C261.405 55.3249 261.557 55.3183 261.702 55.3051C261.847 55.292 261.986 55.2722 262.118 55.2458V57.4209C261.88 57.4605 261.616 57.4869 261.326 57.5C261.035 57.5132 260.752 57.5198 260.474 57.5198C260.039 57.5198 259.623 57.4869 259.227 57.4209C258.844 57.3682 258.501 57.2562 258.197 57.0848C257.907 56.9134 257.676 56.6695 257.504 56.3532C257.332 56.0368 257.247 55.6215 257.247 55.1074V49.0764H255.544V47.1979H257.247V44.1329H260.059V47.1979Z" fill="#FCFCFC"/>
<path d="M273.06 57.4209H270.386V55.9972H270.327C269.971 56.5904 269.509 57.0189 268.941 57.2825C268.373 57.5462 267.792 57.678 267.198 57.678C266.446 57.678 265.825 57.5791 265.337 57.3814C264.862 57.1837 264.485 56.9068 264.208 56.5509C263.931 56.1818 263.733 55.7402 263.614 55.226C263.509 54.6987 263.456 54.1187 263.456 53.4859V47.1979H266.268V52.9718C266.268 53.8155 266.4 54.4483 266.664 54.8701C266.928 55.2788 267.396 55.4831 268.07 55.4831C268.835 55.4831 269.39 55.259 269.733 54.8108C270.076 54.3494 270.248 53.598 270.248 52.5566V47.1979H273.06V57.4209Z" fill="#FCFCFC"/>
<path d="M275.194 47.1979H277.867V48.6216H277.926C278.283 48.0284 278.745 47.5999 279.313 47.3363C279.88 47.0595 280.461 46.921 281.055 46.921C281.808 46.921 282.421 47.0265 282.897 47.2374C283.385 47.4352 283.768 47.7186 284.045 48.0877C284.322 48.4436 284.514 48.8852 284.619 49.4125C284.738 49.9267 284.798 50.5001 284.798 51.1329V57.4209H281.986V51.647C281.986 50.8033 281.854 50.1771 281.59 49.7685C281.326 49.3466 280.857 49.1357 280.184 49.1357C279.418 49.1357 278.864 49.3664 278.52 49.8278C278.177 50.276 278.006 51.0208 278.006 52.0622V57.4209H275.194V47.1979Z" fill="#FCFCFC"/>
<path d="M289.823 45.616H287.011V43.3024H289.823V45.616ZM287.011 47.1979H289.823V57.4209H287.011V47.1979Z" fill="#FCFCFC"/>
<path d="M295.601 47.1979H297.661V49.0764H295.601V54.1385C295.601 54.6131 295.68 54.9294 295.839 55.0876C295.997 55.2458 296.314 55.3249 296.789 55.3249C296.948 55.3249 297.1 55.3183 297.245 55.3051C297.39 55.292 297.529 55.2722 297.661 55.2458V57.4209C297.423 57.4605 297.159 57.4869 296.869 57.5C296.578 57.5132 296.294 57.5198 296.017 57.5198C295.581 57.5198 295.166 57.4869 294.77 57.4209C294.387 57.3682 294.044 57.2562 293.74 57.0848C293.449 56.9134 293.218 56.6695 293.047 56.3532C292.875 56.0368 292.789 55.6215 292.789 55.1074V49.0764H291.086V47.1979H292.789V44.1329H295.601V47.1979Z" fill="#FCFCFC"/>
<path d="M304.048 58.6865C303.744 59.517 303.322 60.1102 302.781 60.4661C302.239 60.822 301.487 61 300.523 61C300.233 61 299.942 60.9868 299.652 60.9605C299.375 60.9473 299.091 60.9275 298.801 60.9011V58.5876C299.065 58.614 299.335 58.6403 299.612 58.6667C299.89 58.6931 300.167 58.6996 300.444 58.6865C300.814 58.6469 301.084 58.5019 301.256 58.2514C301.441 58.001 301.533 57.7241 301.533 57.4209C301.533 57.1968 301.494 56.9859 301.414 56.7882L297.83 47.1979H300.82L303.137 54.1978H303.177L305.414 47.1979H308.325L304.048 58.6865Z" fill="#FCFCFC"/>
</g>
<defs>
<clipPath id="clip0_296_48092">
<rect width="331" height="61" fill="white"/>
</clipPath>
</defs>
</svg>
