<svg width="43" height="16" viewBox="0 0 43 16" fill="none" xmlns="http://www.w3.org/2000/svg">
<g clip-path="url(#clip0_82_9499)">
<path d="M41.4731 1.3576C41.5077 1.28066 41.5539 1.2191 41.6116 1.16909C41.6693 1.11908 41.7347 1.07676 41.8117 1.04983C41.8886 1.0229 41.9656 1.00751 42.0463 1.00751C42.1271 1.00751 42.2041 1.01905 42.281 1.04983C42.358 1.07676 42.4234 1.11908 42.4811 1.16909C42.5388 1.22295 42.5811 1.28451 42.6196 1.3576C42.6542 1.43455 42.6696 1.51534 42.6696 1.60383C42.6696 1.69231 42.6504 1.7808 42.6196 1.85389C42.5888 1.92699 42.5388 1.99239 42.4811 2.04241C42.4234 2.09627 42.358 2.13474 42.281 2.16167C42.2041 2.1886 42.1271 2.20399 42.0463 2.20399C41.9656 2.20399 41.8886 2.19245 41.8117 2.16167C41.7347 2.13474 41.6693 2.09627 41.6116 2.04241C41.5539 1.98855 41.5116 1.92699 41.4731 1.85389C41.4346 1.7808 41.4231 1.69616 41.4231 1.60383C41.4231 1.51149 41.4423 1.4307 41.4731 1.3576ZM41.6232 1.79619C41.6462 1.85389 41.6809 1.90775 41.7193 1.94623C41.7578 1.98855 41.8078 2.02317 41.8655 2.04241C41.9232 2.06164 41.9809 2.07703 42.0425 2.07703C42.1041 2.07703 42.1618 2.06549 42.2195 2.04241C42.2772 2.01932 42.3195 1.9847 42.3657 1.94623C42.4041 1.90391 42.4426 1.85389 42.4618 1.79619C42.4811 1.73848 42.4965 1.67692 42.4965 1.60767C42.4965 1.53842 42.4849 1.47687 42.4618 1.41916C42.4388 1.36145 42.4041 1.31144 42.3657 1.26912C42.3272 1.2268 42.2772 1.19217 42.2195 1.17294C42.1618 1.1537 42.1041 1.13831 42.0425 1.13831C41.9809 1.13831 41.9194 1.14985 41.8655 1.17294C41.8117 1.19602 41.7655 1.23065 41.7193 1.26912C41.6809 1.30759 41.6424 1.36145 41.6232 1.41916C41.6001 1.47687 41.5885 1.53842 41.5885 1.60767C41.5885 1.67692 41.6001 1.73848 41.6232 1.79619ZM42.054 1.26527C42.1387 1.26527 42.2041 1.27681 42.2464 1.30759C42.2887 1.33837 42.3156 1.39223 42.3156 1.46148C42.3156 1.49226 42.3118 1.51919 42.3041 1.54227C42.2964 1.56535 42.281 1.58074 42.2656 1.59613C42.2464 1.60767 42.231 1.62306 42.2079 1.62691C42.1848 1.6346 42.1656 1.63845 42.1387 1.63845L42.3195 1.93469H42.1771L42.0156 1.64614H41.9309V1.93469H41.8001V1.26912H42.0579L42.054 1.26527ZM42.054 1.54227C42.0925 1.54227 42.1233 1.53842 42.1502 1.52303C42.1771 1.50764 42.1848 1.48841 42.1848 1.44224C42.1848 1.42301 42.1848 1.41146 42.1733 1.39992C42.1618 1.38838 42.1541 1.38069 42.1425 1.37299C42.131 1.36915 42.1156 1.3653 42.1002 1.36145C42.0848 1.3576 42.0694 1.36145 42.0502 1.36145H41.9348V1.53842H42.054V1.54227Z" fill="#1A1A1A"/>
<path d="M40.2036 14.9885H30.8664C30.8664 14.9885 30.8318 14.95 30.8087 14.9269C30.0354 14.1536 29.2621 13.3765 28.485 12.6109C28.4427 12.5686 28.4234 12.5224 28.4234 12.4608V7.24402L28.385 7.21709C28.3734 7.24402 28.3619 7.27865 28.3465 7.29788C26.9115 8.73289 25.4765 10.1718 24.0376 11.6068C23.9991 11.6452 23.9799 11.6876 23.9799 11.7453V14.2498C23.9799 14.3075 23.9607 14.346 23.9222 14.3883L23.3143 14.9962H19.3017C19.3017 14.9962 19.2709 14.9538 19.2517 14.9346C19.0747 14.7576 18.8977 14.5768 18.7169 14.3998C18.6669 14.3498 18.6477 14.3037 18.6477 14.2383V11.753C18.6477 11.6952 18.6361 11.6568 18.5938 11.6145C17.155 10.1756 15.7161 8.73674 14.2734 7.29788C14.2542 7.27865 14.2349 7.26326 14.2041 7.23633V14.2421C14.2041 14.3037 14.1849 14.3498 14.1426 14.3921C13.9387 14.5922 13.7425 14.7922 13.5424 14.9962H9.52979C9.42976 14.8884 9.32973 14.7846 9.22586 14.6845L5.39788 10.8566C5.3748 10.8335 5.35556 10.8181 5.31709 10.7873V14.2498C5.31709 14.3113 5.29785 14.3575 5.25553 14.3998C5.07472 14.5768 4.8939 14.7576 4.71693 14.9384C4.69769 14.9577 4.68615 14.9808 4.66691 15H0.665812C0.461909 14.7922 0.25416 14.5883 0.0541051 14.3806C0.0271746 14.3498 0.00409135 14.2998 0.00409135 14.2613C0.000244141 10.1602 0.000244141 6.06678 0.000244141 1.97334C0.000244141 1.91948 0.0194802 1.88101 0.0579523 1.84639C0.315715 1.58478 0.573479 1.33086 0.831242 1.06925C0.873561 1.02693 0.91588 1.01154 0.977436 1.01154H4.34759C4.413 1.01154 4.45916 1.03078 4.50533 1.07694L8.79497 5.36658C8.81805 5.38967 8.82959 5.42429 8.84883 5.45122L8.87961 5.42814V1.97719C8.87961 1.91564 8.89884 1.87716 8.93731 1.831C9.19893 1.57323 9.45669 1.31162 9.7183 1.05386C9.74908 1.02693 9.79909 1.00385 9.83756 1.00385H13.2462C13.2847 1.00385 13.3385 1.02693 13.3655 1.05386C13.6271 1.31162 13.881 1.56554 14.1426 1.82715C14.1657 1.85023 14.1849 1.86562 14.208 1.88871L15.0467 1.05001C15.0736 1.02308 15.1236 1 15.1621 1H18.5784C18.6169 1 18.6708 1.02308 18.6977 1.05386C18.9631 1.31547 19.2248 1.57323 19.4825 1.83869C19.5095 1.86947 19.5325 1.91948 19.5325 1.95796V3.58148C19.5325 3.63919 19.5518 3.67766 19.5902 3.71998C20.1481 4.27013 20.7021 4.82797 21.2561 5.38582C21.2753 5.40506 21.2907 5.42044 21.3253 5.45122C21.3446 5.42429 21.3561 5.39351 21.3792 5.37428C21.9255 4.82797 22.4757 4.27398 23.0258 3.72767C23.0681 3.68535 23.0874 3.63534 23.0874 3.57378V1.9695C23.0874 1.92718 23.1104 1.87332 23.1412 1.84254C23.4028 1.57708 23.6683 1.31162 23.9299 1.05386C23.9568 1.02693 23.9991 1.01154 24.0376 1.01154H27.4616C27.5001 1.01154 27.5463 1.03462 27.5771 1.06156C27.8425 1.32317 28.1041 1.58093 28.3619 1.84254C28.4004 1.88101 28.4196 1.92333 28.4157 1.98104V3.66612C28.4542 3.63149 28.4773 3.60841 28.5004 3.58533C29.3391 2.74663 30.1816 1.90794 31.0203 1.0654C31.0626 1.02308 31.1049 1.00769 31.1665 1.00769H39.8804C39.942 1.00769 39.9805 1.02693 40.0266 1.06925C40.8345 1.87716 41.6425 2.68893 42.4542 3.49684V6.52844C42.4542 6.52844 42.4119 6.55922 42.3927 6.57846C42.2003 6.76697 42.0002 6.96318 41.8117 7.15554C41.7733 7.19786 41.7271 7.21709 41.6655 7.21709H37.299V6.34762H33.7557V9.88706H37.3066V9.00605H41.6809C41.7194 9.00605 41.7656 9.02913 41.7963 9.05606C42.0233 9.2715 42.2388 9.49849 42.4581 9.71778V12.7494C42.4581 12.7494 42.4196 12.7802 42.4004 12.7917C41.6809 13.5073 40.9653 14.2267 40.2459 14.9423C40.2267 14.9615 40.2151 14.9769 40.1959 15H40.2036V14.9885Z" fill="#1A1A1A"/>
</g>
<defs>
<clipPath id="clip0_82_9499">
<rect width="42.67" height="16" fill="white"/>
</clipPath>
</defs>
</svg>
