<?xml version="1.0" encoding="UTF-8"?>
<svg id="a" xmlns="http://www.w3.org/2000/svg" xmlns:xlink="http://www.w3.org/1999/xlink" preserveAspectRatio="xMidYMid meet" width="550" height="100" fill="#ffffff" aria-label="" viewBox="0 0 1550 130.09"><g stroke="none" stroke-width="1" fill="none" fill-rule="evenodd"><g fill="currentColor" fill-rule="nonzero"><path d="M447.505 69.3803L457 60.0104V31.5052L428.495 3H333.505L305 31.5052V12.5156L295.505 3H257.505L248.01 12.5156V31.5052L229 50.5156L210.01 31.5052V12.5156L200.495 3H162.495L153 12.5156L143.505 3H105.505L96.0104 12.5156V50.5156L48.4948 3H10.4948L1 12.5156V145.505L10.4948 155H48.4948L58.0104 145.505V107.505L105.505 155H143.505L153 145.505V69.5052L200.495 117V145.505L210.01 155H248.01L257.505 145.505V117L305 69.5052V126.516L333.505 155H428.495L457 126.516V98.0104L447.505 88.4948H399.99V98.0104H362.01V60.0104H399.99V69.3803H447.505Z" fill="white"></path><path d="M450.233 9.41364C451.128 9.41364 451.899 9.33035 451.899 8.28925C451.899 7.41473 451.045 7.31062 450.337 7.31062H448.9V9.41364H450.233ZM448.921 13.4947H447.734V6.31117H450.462C452.19 6.31117 453.085 6.91501 453.085 8.37254C453.085 9.68432 452.294 10.2049 451.211 10.3298L453.231 13.4947H451.899L450.045 10.4131H448.942V13.4947H448.921ZM450.191 4.41638C447.38 4.41638 445.194 6.6235 445.194 9.78843C445.194 12.7451 447.109 15.1605 450.191 15.1605C452.981 15.1605 455.168 12.9742 455.168 9.78843C455.168 6.6235 452.981 4.41638 450.191 4.41638ZM450.191 16.2849C446.464 16.2849 443.799 13.4947 443.799 9.78843C443.799 5.87391 446.756 3.29199 450.191 3.29199C453.585 3.29199 456.542 5.87391 456.542 9.78843C456.563 13.6821 453.606 16.2849 450.191 16.2849Z" fill="white"></path><path d="M947.445 41H956.72V12.274H956.826L964.776 41H972.302L980.252 12.274H980.358V41H989.633V3.158H975.111L968.592 28.386H968.486L961.967 3.158H947.445V41ZM1003.61 33.103C1003.61 30.93 1005.31 30.082 1007.32 29.605C1009.28 29.075 1011.62 28.916 1012.89 28.121C1013.1 33.792 1011.67 36.23 1007.38 36.23C1005.36 36.23 1003.61 35.329 1003.61 33.103ZM1004.14 21.973C1004.57 19.641 1006.16 18.528 1008.65 18.528C1010.5 18.528 1012.99 19.323 1012.99 21.39C1012.99 23.086 1012.15 23.616 1010.61 23.934C1004.36 25.206 994.603 24.517 994.603 33.474C994.603 39.145 998.737 41.795 1003.98 41.795C1007.27 41.795 1010.72 40.841 1013.05 38.403C1013.15 39.304 1013.26 40.152 1013.58 41H1022.64C1021.58 38.827 1021.58 36.283 1021.58 33.951V21.92C1021.58 14.129 1015.27 12.698 1008.75 12.698C1005.63 12.698 1002.45 13.228 1000.01 14.606C997.571 16.037 995.875 18.369 995.716 21.973H1004.14ZM1053.37 13.493H1044.15L1038.95 31.407H1038.85L1033.65 13.493H1024.11L1031.21 32.626C1031.74 34.11 1033.49 38.35 1033.49 39.834C1033.49 41.742 1031.96 42.908 1029.89 42.908H1026.76V50.222H1031C1037.1 50.222 1040.33 49.48 1042.5 43.438L1053.37 13.493ZM1063.66 27.273C1063.66 23.775 1064.93 19.588 1069.12 19.588C1073.3 19.588 1074.63 23.775 1074.63 27.273C1074.63 30.771 1073.3 34.905 1069.12 34.905C1064.93 34.905 1063.66 30.771 1063.66 27.273ZM1054.65 27.273C1054.65 35.541 1060.58 41.795 1069.12 41.795C1077.65 41.795 1083.64 35.541 1083.64 27.273C1083.64 19.005 1077.65 12.698 1069.12 12.698C1060.58 12.698 1054.65 19.005 1054.65 27.273ZM1088.69 41H1097.7V27.379C1097.7 23.934 1100.03 20.86 1104.48 20.86C1105.7 20.86 1106.76 21.072 1107.93 21.39V13.175C1107.24 13.016 1106.5 12.963 1105.81 12.963C1101.94 12.963 1098.87 14.818 1097.54 18.316H1097.43V13.493H1088.69V41ZM1111.57 13.016H1115.39C1115.55 15.454 1113.91 17.574 1111.57 17.998V22.238C1117.35 21.284 1119.95 17.256 1120 11.956V3.158H1111.57V13.016ZM1121.1 31.937C1121.36 39.622 1128.04 41.795 1134.56 41.795C1140.76 41.795 1147.76 39.357 1147.76 31.99C1147.76 29.711 1146.33 25.683 1140.76 24.57C1136.63 23.669 1130.58 23.192 1130.58 20.595C1130.58 18.687 1132.97 18.528 1134.45 18.528C1135.57 18.528 1136.57 18.74 1137.32 19.217C1138.06 19.694 1138.48 20.436 1138.48 21.602H1146.8C1146.48 14.447 1140.18 12.698 1134.14 12.698C1128.73 12.698 1121.57 14.5 1121.57 21.125C1121.57 28.545 1128.68 28.704 1134.35 30.135C1135.94 30.506 1138.75 30.93 1138.75 33.05C1138.75 35.223 1136.26 35.965 1134.51 35.965C1133.23 35.965 1132.02 35.647 1131.17 35.011C1130.27 34.322 1129.68 33.315 1129.68 31.937H1121.1ZM1167.79 22.079C1167.79 33.05 1174.53 41.795 1186.45 41.795C1198.38 41.795 1205.11 33.05 1205.11 22.079C1205.11 11.108 1198.38 2.363 1186.45 2.363C1174.53 2.363 1167.79 11.108 1167.79 22.079ZM1177.65 22.079C1177.65 16.461 1180.09 10.843 1186.45 10.843C1192.81 10.843 1195.25 16.461 1195.25 22.079C1195.25 27.697 1192.81 33.315 1186.45 33.315C1180.09 33.315 1177.65 27.697 1177.65 22.079ZM1212.07 41H1221.08V19.323H1226.48V13.493H1221.08V12.274C1221.08 9.783 1222.35 9.518 1224.42 9.518C1225.21 9.518 1226.01 9.571 1226.85 9.677V3.317C1225.42 3.264 1223.94 3.158 1222.51 3.158C1214.82 3.158 1212.07 5.596 1212.07 13.493H1207.72V19.323H1212.07V41ZM1247.76 41H1256.77V13.493H1247.76V41ZM1256.77 3.158H1247.76V10.048H1256.77V3.158ZM1230.75 41H1239.76V19.323H1245.17V13.493H1239.76V12.274C1239.76 9.783 1241.03 9.518 1243.1 9.518C1243.9 9.518 1244.69 9.571 1245.54 9.677V3.317C1244.11 3.264 1242.62 3.158 1241.19 3.158C1233.51 3.158 1230.75 5.596 1230.75 13.493H1226.41V19.323H1230.75V41ZM1289.82 23.563C1289.18 16.302 1283.09 12.698 1276.25 12.698C1267.4 12.698 1261.83 18.952 1261.83 27.697C1261.83 36.124 1267.98 41.795 1276.25 41.795C1283.56 41.795 1289.29 37.555 1290.08 30.188H1281.34C1280.91 33.103 1279.32 34.905 1276.2 34.905C1272.38 34.905 1270.84 31.248 1270.84 27.697C1270.84 23.881 1271.64 19.588 1276.67 19.588C1278.95 19.588 1281.02 21.231 1281.07 23.563H1289.82ZM1302.26 24.411C1302.79 21.072 1304.91 18.793 1308.09 18.793C1311.11 18.793 1313.28 21.337 1313.44 24.411H1302.26ZM1322.45 29.446C1322.88 20.118 1317.95 12.698 1308.09 12.698C1299.98 12.698 1293.25 18.74 1293.25 27.167C1293.25 36.389 1299.34 41.795 1308.3 41.795C1314.45 41.795 1320.33 39.039 1321.98 32.679H1313.55C1312.7 34.693 1310.58 35.7 1308.41 35.7C1304.59 35.7 1302.42 33.209 1302.26 29.446H1322.45ZM1351.38 27.273C1351.38 23.775 1352.65 19.588 1356.84 19.588C1361.02 19.588 1362.35 23.775 1362.35 27.273C1362.35 30.771 1361.02 34.905 1356.84 34.905C1352.65 34.905 1351.38 30.771 1351.38 27.273ZM1342.37 27.273C1342.37 35.541 1348.3 41.795 1356.84 41.795C1365.37 41.795 1371.36 35.541 1371.36 27.273C1371.36 19.005 1365.37 12.698 1356.84 12.698C1348.3 12.698 1342.37 19.005 1342.37 27.273ZM1378.05 41H1387.06V19.323H1392.47V13.493H1387.06V12.274C1387.06 9.783 1388.34 9.518 1390.4 9.518C1391.2 9.518 1391.99 9.571 1392.84 9.677V3.317C1391.41 3.264 1389.93 3.158 1388.5 3.158C1380.81 3.158 1378.05 5.596 1378.05 13.493H1373.71V19.323H1378.05V41ZM977.39 60.158H944.954V68.638H956.243V98H966.101V68.638H977.39V60.158ZM983.014 90.103C983.014 87.93 984.71 87.082 986.724 86.605C988.685 86.075 991.017 85.916 992.289 85.121C992.501 90.792 991.07 93.23 986.777 93.23C984.763 93.23 983.014 92.329 983.014 90.103ZM983.544 78.973C983.968 76.641 985.558 75.528 988.049 75.528C989.904 75.528 992.395 76.323 992.395 78.39C992.395 80.086 991.547 80.616 990.01 80.934C983.756 82.206 974.004 81.517 974.004 90.474C974.004 96.145 978.138 98.795 983.385 98.795C986.671 98.795 990.116 97.841 992.448 95.403C992.554 96.304 992.66 97.152 992.978 98H1002.04C1000.98 95.827 1000.98 93.283 1000.98 90.951V78.92C1000.98 71.129 994.674 69.698 988.155 69.698C985.028 69.698 981.848 70.228 979.41 71.606C976.972 73.037 975.276 75.369 975.117 78.973H983.544ZM1007.22 98H1016.23V60.158H1007.22V98ZM1030.27 81.411C1030.8 78.072 1032.92 75.793 1036.1 75.793C1039.12 75.793 1041.3 78.337 1041.46 81.411H1030.27ZM1050.47 86.446C1050.89 77.118 1045.96 69.698 1036.1 69.698C1027.99 69.698 1021.26 75.74 1021.26 84.167C1021.26 93.389 1027.36 98.795 1036.31 98.795C1042.46 98.795 1048.35 96.039 1049.99 89.679H1041.56C1040.71 91.693 1038.59 92.7 1036.42 92.7C1032.6 92.7 1030.43 90.209 1030.27 86.446H1050.47ZM1054.99 98H1064V83.001C1064 79.98 1065.48 77.118 1068.87 77.118C1073.8 77.118 1073.38 80.934 1073.38 84.697V98H1082.39V80.351C1082.39 76.376 1081.65 69.698 1072.48 69.698C1069.19 69.698 1065.48 71.447 1063.84 74.256H1063.73V70.493H1054.99V98ZM1104.96 70.493H1099.4V62.172H1090.39V70.493H1085.83V76.323H1090.39V88.566C1090.39 96.039 1092.35 98.265 1100.03 98.265C1101.67 98.265 1103.32 98.053 1104.96 98V91.375C1104.17 91.375 1103.37 91.481 1102.63 91.481C1100.67 91.481 1099.4 91.004 1099.4 88.831V76.323H1104.96V70.493ZM1133.21 90.103C1133.21 87.93 1134.91 87.082 1136.92 86.605C1138.89 86.075 1141.22 85.916 1142.49 85.121C1142.7 90.792 1141.27 93.23 1136.98 93.23C1134.96 93.23 1133.21 92.329 1133.21 90.103ZM1133.74 78.973C1134.17 76.641 1135.76 75.528 1138.25 75.528C1140.1 75.528 1142.6 76.323 1142.6 78.39C1142.6 80.086 1141.75 80.616 1140.21 80.934C1133.96 82.206 1124.2 81.517 1124.2 90.474C1124.2 96.145 1128.34 98.795 1133.59 98.795C1136.87 98.795 1140.32 97.841 1142.65 95.403C1142.75 96.304 1142.86 97.152 1143.18 98H1152.24C1151.18 95.827 1151.18 93.283 1151.18 90.951V78.92C1151.18 71.129 1144.87 69.698 1138.36 69.698C1135.23 69.698 1132.05 70.228 1129.61 71.606C1127.17 73.037 1125.48 75.369 1125.32 78.973H1133.74ZM1157.11 98H1166.12V83.001C1166.12 79.98 1167.6 77.118 1170.99 77.118C1175.92 77.118 1175.5 80.934 1175.5 84.697V98H1184.51V80.351C1184.51 76.376 1183.76 69.698 1174.6 69.698C1171.31 69.698 1167.6 71.447 1165.96 74.256H1165.85V70.493H1157.11V98ZM1203.69 76.588C1207.61 76.588 1209.04 80.245 1209.04 84.22C1209.04 87.718 1208.09 91.905 1203.69 91.905C1199.55 91.905 1198.17 87.718 1198.17 83.955C1198.17 80.457 1199.55 76.588 1203.69 76.588ZM1217.73 60.158H1208.72V73.461H1208.62C1206.76 70.97 1204.16 69.698 1200.77 69.698C1192.98 69.698 1189.16 76.482 1189.16 83.637C1189.16 91.375 1192.82 98.795 1201.46 98.795C1204.64 98.795 1207.29 97.417 1209.04 94.82H1209.15V98H1217.73V60.158ZM1288.61 60.158H1278.75L1273.4 87.824H1273.29L1267.73 60.158H1258.45L1252.89 87.824H1252.78L1247.43 60.158H1237.57L1247.8 98H1257.82L1263.01 71.924H1263.12L1268.31 98H1278.17L1288.61 60.158ZM1297.34 84.273C1297.34 80.775 1298.61 76.588 1302.8 76.588C1306.99 76.588 1308.31 80.775 1308.31 84.273C1308.31 87.771 1306.99 91.905 1302.8 91.905C1298.61 91.905 1297.34 87.771 1297.34 84.273ZM1288.33 84.273C1288.33 92.541 1294.27 98.795 1302.8 98.795C1311.33 98.795 1317.32 92.541 1317.32 84.273C1317.32 76.005 1311.33 69.698 1302.8 69.698C1294.27 69.698 1288.33 76.005 1288.33 84.273ZM1322.38 98H1331.39V84.379C1331.39 80.934 1333.72 77.86 1338.17 77.86C1339.39 77.86 1340.45 78.072 1341.62 78.39V70.175C1340.93 70.016 1340.18 69.963 1339.5 69.963C1335.63 69.963 1332.55 71.818 1331.23 75.316H1331.12V70.493H1322.38V98ZM1344.62 98H1353.63V89.202L1355.97 86.923L1362.7 98H1373.56L1362.22 80.881L1372.29 70.493H1361.85L1353.63 79.662V60.158H1344.62V98ZM1378 98H1387.01V76.323H1392.42V70.493H1387.01V69.274C1387.01 66.783 1388.28 66.518 1390.35 66.518C1391.15 66.518 1391.94 66.571 1392.79 66.677V60.317C1391.36 60.264 1389.87 60.158 1388.44 60.158C1380.76 60.158 1378 62.596 1378 70.493H1373.66V76.323H1378V98ZM1403.34 84.273C1403.34 80.775 1404.61 76.588 1408.8 76.588C1412.99 76.588 1414.31 80.775 1414.31 84.273C1414.31 87.771 1412.99 91.905 1408.8 91.905C1404.61 91.905 1403.34 87.771 1403.34 84.273ZM1394.33 84.273C1394.33 92.541 1400.27 98.795 1408.8 98.795C1417.33 98.795 1423.32 92.541 1423.32 84.273C1423.32 76.005 1417.33 69.698 1408.8 69.698C1400.27 69.698 1394.33 76.005 1394.33 84.273ZM1428.38 98H1437.39V84.379C1437.39 80.934 1439.72 77.86 1444.17 77.86C1445.39 77.86 1446.45 78.072 1447.62 78.39V70.175C1446.93 70.016 1446.18 69.963 1445.5 69.963C1441.63 69.963 1438.55 71.818 1437.23 75.316H1437.12V70.493H1428.38V98ZM1476.35 80.563C1475.72 73.302 1469.62 69.698 1462.78 69.698C1453.93 69.698 1448.37 75.952 1448.37 84.697C1448.37 93.124 1454.52 98.795 1462.78 98.795C1470.1 98.795 1475.82 94.555 1476.62 87.188H1467.87C1467.45 90.103 1465.86 91.905 1462.73 91.905C1458.91 91.905 1457.38 88.248 1457.38 84.697C1457.38 80.881 1458.17 76.588 1463.21 76.588C1465.49 76.588 1467.55 78.231 1467.61 80.563H1476.35ZM1488.79 81.411C1489.32 78.072 1491.44 75.793 1494.62 75.793C1497.65 75.793 1499.82 78.337 1499.98 81.411H1488.79ZM1508.99 86.446C1509.41 77.118 1504.48 69.698 1494.62 69.698C1486.52 69.698 1479.78 75.74 1479.78 84.167C1479.78 93.389 1485.88 98.795 1494.84 98.795C1500.98 98.795 1506.87 96.039 1508.51 89.679H1500.08C1499.24 91.693 1497.12 92.7 1494.94 92.7C1491.13 92.7 1488.95 90.209 1488.79 86.446H1508.99ZM947.392 155H963.663C975.164 155 982.213 148.322 982.213 135.92C982.213 124.207 975.27 117.158 963.663 117.158H947.392V155ZM957.25 125.638H961.914C968.645 125.638 972.355 128.977 972.355 135.867C972.355 143.446 969.387 146.361 961.914 146.52H957.25V125.638ZM994.922 138.411C995.452 135.072 997.572 132.793 1000.75 132.793C1003.77 132.793 1005.95 135.337 1006.1 138.411H994.922ZM1015.11 143.446C1015.54 134.118 1010.61 126.698 1000.75 126.698C992.643 126.698 985.912 132.74 985.912 141.167C985.912 150.389 992.007 155.795 1000.96 155.795C1007.11 155.795 1012.99 153.039 1014.64 146.679H1006.21C1005.36 148.693 1003.24 149.7 1001.07 149.7C997.254 149.7 995.081 147.209 994.922 143.446H1015.11ZM1045.24 127.493H1036.07L1030.98 145.672H1030.87L1025.84 127.493H1016.46L1025.63 155H1036.01L1045.24 127.493ZM1055.79 138.411C1056.32 135.072 1058.44 132.793 1061.62 132.793C1064.64 132.793 1066.81 135.337 1066.97 138.411H1055.79ZM1075.98 143.446C1076.41 134.118 1071.48 126.698 1061.62 126.698C1053.51 126.698 1046.78 132.74 1046.78 141.167C1046.78 150.389 1052.87 155.795 1061.83 155.795C1067.98 155.795 1073.86 153.039 1075.51 146.679H1067.08C1066.23 148.693 1064.11 149.7 1061.94 149.7C1058.12 149.7 1055.95 147.209 1055.79 143.446H1075.98ZM1080.82 155H1089.83V117.158H1080.82V155ZM1103.87 141.273C1103.87 137.775 1105.14 133.588 1109.33 133.588C1113.52 133.588 1114.84 137.775 1114.84 141.273C1114.84 144.771 1113.52 148.905 1109.33 148.905C1105.14 148.905 1103.87 144.771 1103.87 141.273ZM1094.86 141.273C1094.86 149.541 1100.8 155.795 1109.33 155.795C1117.86 155.795 1123.85 149.541 1123.85 141.273C1123.85 133.005 1117.86 126.698 1109.33 126.698C1100.8 126.698 1094.86 133.005 1094.86 141.273ZM1142.79 133.588C1146.77 133.588 1148.14 137.457 1148.14 140.955C1148.14 144.718 1146.77 148.905 1142.74 148.905C1138.66 148.905 1137.28 145.778 1137.28 140.955C1137.28 135.284 1140.35 133.588 1142.79 133.588ZM1128.59 164.222H1137.6V152.032H1137.7C1139.56 154.523 1142.16 155.795 1145.55 155.795C1153.34 155.795 1157.15 149.011 1157.15 141.856C1157.15 134.118 1153.5 126.698 1144.86 126.698C1141.68 126.698 1139.03 128.076 1137.28 130.673H1137.17V127.493H1128.59V164.222ZM1161.97 155H1170.98V141.591C1170.98 135.973 1172.36 134.118 1175.59 134.118C1178.03 134.118 1178.98 136.132 1178.98 139.365V155H1187.99V141.538C1187.99 137.086 1188.37 134.118 1192.23 134.118C1194.57 134.118 1196 135.867 1196 138.835V155H1205.01V138.57C1205.01 133.323 1204.05 126.698 1195.31 126.698C1191.6 126.698 1188.9 128.235 1186.72 131.15C1185.24 127.811 1182.16 126.698 1178.72 126.698C1175.38 126.698 1172.47 128.5 1170.82 131.256H1170.72V127.493H1161.97V155ZM1218.72 138.411C1219.25 135.072 1221.37 132.793 1224.55 132.793C1227.57 132.793 1229.75 135.337 1229.91 138.411H1218.72ZM1238.92 143.446C1239.34 134.118 1234.41 126.698 1224.55 126.698C1216.44 126.698 1209.71 132.74 1209.71 141.167C1209.71 150.389 1215.81 155.795 1224.76 155.795C1230.91 155.795 1236.8 153.039 1238.44 146.679H1230.01C1229.16 148.693 1227.04 149.7 1224.87 149.7C1221.05 149.7 1218.88 147.209 1218.72 143.446H1238.92ZM1243.44 155H1252.45V140.001C1252.45 136.98 1253.93 134.118 1257.32 134.118C1262.25 134.118 1261.83 137.934 1261.83 141.697V155H1270.84V137.351C1270.84 133.376 1270.1 126.698 1260.93 126.698C1257.64 126.698 1253.93 128.447 1252.29 131.256H1252.18V127.493H1243.44V155ZM1293.41 127.493H1287.85V119.172H1278.84V127.493H1274.28V133.323H1278.84V145.566C1278.84 153.039 1280.8 155.265 1288.48 155.265C1290.12 155.265 1291.77 155.053 1293.41 155V148.375C1292.62 148.375 1291.82 148.481 1291.08 148.481C1289.12 148.481 1287.85 148.004 1287.85 145.831V133.323H1293.41V127.493Z" fill="white"></path><path d="M495.445 41H504.72V12.274H504.826L512.776 41H520.302L528.252 12.274H528.358V41H537.633V3.158H523.111L516.592 28.386H516.486L509.967 3.158H495.445V41ZM551.613 33.103C551.613 30.93 553.309 30.082 555.323 29.605C557.284 29.075 559.616 28.916 560.888 28.121C561.1 33.792 559.669 36.23 555.376 36.23C553.362 36.23 551.613 35.329 551.613 33.103ZM552.143 21.973C552.567 19.641 554.157 18.528 556.648 18.528C558.503 18.528 560.994 19.323 560.994 21.39C560.994 23.086 560.146 23.616 558.609 23.934C552.355 25.206 542.603 24.517 542.603 33.474C542.603 39.145 546.737 41.795 551.984 41.795C555.27 41.795 558.715 40.841 561.047 38.403C561.153 39.304 561.259 40.152 561.577 41H570.64C569.58 38.827 569.58 36.283 569.58 33.951V21.92C569.58 14.129 563.273 12.698 556.754 12.698C553.627 12.698 550.447 13.228 548.009 14.606C545.571 16.037 543.875 18.369 543.716 21.973H552.143ZM601.368 13.493H592.146L586.952 31.407H586.846L581.652 13.493H572.112L579.214 32.626C579.744 34.11 581.493 38.35 581.493 39.834C581.493 41.742 579.956 42.908 577.889 42.908H574.762V50.222H579.002C585.097 50.222 588.33 49.48 590.503 43.438L601.368 13.493ZM611.656 27.273C611.656 23.775 612.928 19.588 617.115 19.588C621.302 19.588 622.627 23.775 622.627 27.273C622.627 30.771 621.302 34.905 617.115 34.905C612.928 34.905 611.656 30.771 611.656 27.273ZM602.646 27.273C602.646 35.541 608.582 41.795 617.115 41.795C625.648 41.795 631.637 35.541 631.637 27.273C631.637 19.005 625.648 12.698 617.115 12.698C608.582 12.698 602.646 19.005 602.646 27.273ZM636.69 41H645.7V27.379C645.7 23.934 648.032 20.86 652.484 20.86C653.703 20.86 654.763 21.072 655.929 21.39V13.175C655.24 13.016 654.498 12.963 653.809 12.963C649.94 12.963 646.866 14.818 645.541 18.316H645.435V13.493H636.69V41ZM659.574 13.016H663.39C663.549 15.454 661.906 17.574 659.574 17.998V22.238C665.351 21.284 667.948 17.256 668.001 11.956V3.158H659.574V13.016ZM669.097 31.937C669.362 39.622 676.04 41.795 682.559 41.795C688.76 41.795 695.756 39.357 695.756 31.99C695.756 29.711 694.325 25.683 688.76 24.57C684.626 23.669 678.584 23.192 678.584 20.595C678.584 18.687 680.969 18.528 682.453 18.528C683.566 18.528 684.573 18.74 685.315 19.217C686.057 19.694 686.481 20.436 686.481 21.602H694.802C694.484 14.447 688.177 12.698 682.135 12.698C676.729 12.698 669.574 14.5 669.574 21.125C669.574 28.545 676.676 28.704 682.347 30.135C683.937 30.506 686.746 30.93 686.746 33.05C686.746 35.223 684.255 35.965 682.506 35.965C681.234 35.965 680.015 35.647 679.167 35.011C678.266 34.322 677.683 33.315 677.683 31.937H669.097ZM715.795 22.079C715.795 33.05 722.526 41.795 734.451 41.795C746.376 41.795 753.107 33.05 753.107 22.079C753.107 11.108 746.376 2.363 734.451 2.363C722.526 2.363 715.795 11.108 715.795 22.079ZM725.653 22.079C725.653 16.461 728.091 10.843 734.451 10.843C740.811 10.843 743.249 16.461 743.249 22.079C743.249 27.697 740.811 33.315 734.451 33.315C728.091 33.315 725.653 27.697 725.653 22.079ZM760.067 41H769.077V19.323H774.483V13.493H769.077V12.274C769.077 9.783 770.349 9.518 772.416 9.518C773.211 9.518 774.006 9.571 774.854 9.677V3.317C773.423 3.264 771.939 3.158 770.508 3.158C762.823 3.158 760.067 5.596 760.067 13.493H755.721V19.323H760.067V41ZM795.765 41H804.775V13.493H795.765V41ZM804.775 3.158H795.765V10.048H804.775V3.158ZM778.752 41H787.762V19.323H793.168V13.493H787.762V12.274C787.762 9.783 789.034 9.518 791.101 9.518C791.896 9.518 792.691 9.571 793.539 9.677V3.317C792.108 3.264 790.624 3.158 789.193 3.158C781.508 3.158 778.752 5.596 778.752 13.493H774.406V19.323H778.752V41ZM837.817 23.563C837.181 16.302 831.086 12.698 824.249 12.698C815.398 12.698 809.833 18.952 809.833 27.697C809.833 36.124 815.981 41.795 824.249 41.795C831.563 41.795 837.287 37.555 838.082 30.188H829.337C828.913 33.103 827.323 34.905 824.196 34.905C820.38 34.905 818.843 31.248 818.843 27.697C818.843 23.881 819.638 19.588 824.673 19.588C826.952 19.588 829.019 21.231 829.072 23.563H837.817ZM850.26 24.411C850.79 21.072 852.91 18.793 856.09 18.793C859.111 18.793 861.284 21.337 861.443 24.411H850.26ZM870.453 29.446C870.877 20.118 865.948 12.698 856.09 12.698C847.981 12.698 841.25 18.74 841.25 27.167C841.25 36.389 847.345 41.795 856.302 41.795C862.45 41.795 868.333 39.039 869.976 32.679H861.549C860.701 34.693 858.581 35.7 856.408 35.7C852.592 35.7 850.419 33.209 850.26 29.446H870.453ZM496.982 98H505.992V76.323H511.398V70.493H505.992V69.274C505.992 66.783 507.264 66.518 509.331 66.518C510.126 66.518 510.921 66.571 511.769 66.677V60.317C510.338 60.264 508.854 60.158 507.423 60.158C499.738 60.158 496.982 62.596 496.982 70.493H492.636V76.323H496.982V98ZM522.322 84.273C522.322 80.775 523.594 76.588 527.781 76.588C531.968 76.588 533.293 80.775 533.293 84.273C533.293 87.771 531.968 91.905 527.781 91.905C523.594 91.905 522.322 87.771 522.322 84.273ZM513.312 84.273C513.312 92.541 519.248 98.795 527.781 98.795C536.314 98.795 542.303 92.541 542.303 84.273C542.303 76.005 536.314 69.698 527.781 69.698C519.248 69.698 513.312 76.005 513.312 84.273ZM547.356 98H556.366V84.379C556.366 80.934 558.698 77.86 563.15 77.86C564.369 77.86 565.429 78.072 566.595 78.39V70.175C565.906 70.016 565.164 69.963 564.475 69.963C560.606 69.963 557.532 71.818 556.207 75.316H556.101V70.493H547.356V98ZM586.693 98H617.38V89.52H596.551V82.312H615.101V74.68H596.551V68.055H616.85V60.158H586.693V98ZM649.263 80.563C648.627 73.302 642.532 69.698 635.695 69.698C626.844 69.698 621.279 75.952 621.279 84.697C621.279 93.124 627.427 98.795 635.695 98.795C643.009 98.795 648.733 94.555 649.528 87.188H640.783C640.359 90.103 638.769 91.905 635.642 91.905C631.826 91.905 630.289 88.248 630.289 84.697C630.289 80.881 631.084 76.588 636.119 76.588C638.398 76.588 640.465 78.231 640.518 80.563H649.263ZM661.706 84.273C661.706 80.775 662.978 76.588 667.165 76.588C671.352 76.588 672.677 80.775 672.677 84.273C672.677 87.771 671.352 91.905 667.165 91.905C662.978 91.905 661.706 87.771 661.706 84.273ZM652.696 84.273C652.696 92.541 658.632 98.795 667.165 98.795C675.698 98.795 681.687 92.541 681.687 84.273C681.687 76.005 675.698 69.698 667.165 69.698C658.632 69.698 652.696 76.005 652.696 84.273ZM686.421 98H695.431V83.001C695.431 79.98 696.915 77.118 700.307 77.118C705.236 77.118 704.812 80.934 704.812 84.697V98H713.822V80.351C713.822 76.376 713.08 69.698 703.911 69.698C700.625 69.698 696.915 71.447 695.272 74.256H695.166V70.493H686.421V98ZM727.49 84.273C727.49 80.775 728.762 76.588 732.949 76.588C737.136 76.588 738.461 80.775 738.461 84.273C738.461 87.771 737.136 91.905 732.949 91.905C728.762 91.905 727.49 87.771 727.49 84.273ZM718.48 84.273C718.48 92.541 724.416 98.795 732.949 98.795C741.482 98.795 747.471 92.541 747.471 84.273C747.471 76.005 741.482 69.698 732.949 69.698C724.416 69.698 718.48 76.005 718.48 84.273ZM752.206 98H761.216V84.591C761.216 78.973 762.594 77.118 765.827 77.118C768.265 77.118 769.219 79.132 769.219 82.365V98H778.229V84.538C778.229 80.086 778.6 77.118 782.469 77.118C784.801 77.118 786.232 78.867 786.232 81.835V98H795.242V81.57C795.242 76.323 794.288 69.698 785.543 69.698C781.833 69.698 779.13 71.235 776.957 74.15C775.473 70.811 772.399 69.698 768.954 69.698C765.615 69.698 762.7 71.5 761.057 74.256H760.951V70.493H752.206V98ZM801.59 98H810.6V70.493H801.59V98ZM810.6 60.158H801.59V67.048H810.6V60.158ZM843.614 80.563C842.978 73.302 836.883 69.698 830.046 69.698C821.195 69.698 815.63 75.952 815.63 84.697C815.63 93.124 821.778 98.795 830.046 98.795C837.36 98.795 843.084 94.555 843.879 87.188H835.134C834.71 90.103 833.12 91.905 829.993 91.905C826.177 91.905 824.64 88.248 824.64 84.697C824.64 80.881 825.435 76.588 830.47 76.588C832.749 76.588 834.816 78.231 834.869 80.563H843.614ZM493.961 136.079C493.961 147.05 500.692 155.795 512.617 155.795C524.542 155.795 531.273 147.05 531.273 136.079C531.273 125.108 524.542 116.363 512.617 116.363C500.692 116.363 493.961 125.108 493.961 136.079ZM503.819 136.079C503.819 130.461 506.257 124.843 512.617 124.843C518.977 124.843 521.415 130.461 521.415 136.079C521.415 141.697 518.977 147.315 512.617 147.315C506.257 147.315 503.819 141.697 503.819 136.079ZM550.476 133.588C554.451 133.588 555.829 137.457 555.829 140.955C555.829 144.718 554.451 148.905 550.423 148.905C546.342 148.905 544.964 145.778 544.964 140.955C544.964 135.284 548.038 133.588 550.476 133.588ZM536.272 164.222H545.282V152.032H545.388C547.243 154.523 549.84 155.795 553.232 155.795C561.023 155.795 564.839 149.011 564.839 141.856C564.839 134.118 561.182 126.698 552.543 126.698C549.363 126.698 546.713 128.076 544.964 130.673H544.858V127.493H536.272V164.222ZM583.86 133.588C587.835 133.588 589.213 137.457 589.213 140.955C589.213 144.718 587.835 148.905 583.807 148.905C579.726 148.905 578.348 145.778 578.348 140.955C578.348 135.284 581.422 133.588 583.86 133.588ZM569.656 164.222H578.666V152.032H578.772C580.627 154.523 583.224 155.795 586.616 155.795C594.407 155.795 598.223 149.011 598.223 141.856C598.223 134.118 594.566 126.698 585.927 126.698C582.747 126.698 580.097 128.076 578.348 130.673H578.242V127.493H569.656V164.222ZM610.725 141.273C610.725 137.775 611.997 133.588 616.184 133.588C620.371 133.588 621.696 137.775 621.696 141.273C621.696 144.771 620.371 148.905 616.184 148.905C611.997 148.905 610.725 144.771 610.725 141.273ZM601.715 141.273C601.715 149.541 607.651 155.795 616.184 155.795C624.717 155.795 630.706 149.541 630.706 141.273C630.706 133.005 624.717 126.698 616.184 126.698C607.651 126.698 601.715 133.005 601.715 141.273ZM635.758 155H644.768V141.379C644.768 137.934 647.1 134.86 651.552 134.86C652.771 134.86 653.831 135.072 654.997 135.39V127.175C654.308 127.016 653.566 126.963 652.877 126.963C649.008 126.963 645.934 128.818 644.609 132.316H644.503V127.493H635.758V155ZM674.595 127.493H669.03V119.172H660.02V127.493H655.462V133.323H660.02V145.566C660.02 153.039 661.981 155.265 669.666 155.265C671.309 155.265 672.952 155.053 674.595 155V148.375C673.8 148.375 673.005 148.481 672.263 148.481C670.302 148.481 669.03 148.004 669.03 145.831V133.323H674.595V127.493ZM705.954 127.493H696.944V142.227C696.944 147.103 693.976 148.375 692.015 148.375C689.153 148.375 687.563 147.103 687.563 143.446V127.493H678.553V144.029C678.553 151.237 680.832 155.795 688.729 155.795C691.909 155.795 695.407 154.046 697.103 151.237H697.209V155H705.954V127.493ZM711.99 155H721V140.001C721 136.98 722.484 134.118 725.876 134.118C730.805 134.118 730.381 137.934 730.381 141.697V155H739.391V137.351C739.391 133.376 738.649 126.698 729.48 126.698C726.194 126.698 722.484 128.447 720.841 131.256H720.735V127.493H711.99V155ZM745.692 155H754.702V127.493H745.692V155ZM754.702 117.158H745.692V124.048H754.702V117.158ZM777.645 127.493H772.08V119.172H763.07V127.493H758.512V133.323H763.07V145.566C763.07 153.039 765.031 155.265 772.716 155.265C774.359 155.265 776.002 155.053 777.645 155V148.375C776.85 148.375 776.055 148.481 775.313 148.481C773.352 148.481 772.08 148.004 772.08 145.831V133.323H777.645V127.493ZM807.52 127.493H798.298L793.104 145.407H792.998L787.804 127.493H778.264L785.366 146.626C785.896 148.11 787.645 152.35 787.645 153.834C787.645 155.742 786.108 156.908 784.041 156.908H780.914V164.222H785.154C791.249 164.222 794.482 163.48 796.655 157.438L807.52 127.493Z" fill="white"></path><line x1="908.5" y1="3" x2="908.5" y2="155" stroke="white"></line></g></g></svg>