<svg width="595" height="748" viewBox="0 0 595 748" fill="none" xmlns="http://www.w3.org/2000/svg">
<rect width="595" height="748" fill="white"/>
<circle cx="276" cy="376" r="252" fill="url(#paint0_linear_2125_2211)"/>
<rect x="189" y="444.991" width="147" height="280.585" rx="16" transform="rotate(-75 189 444.991)" fill="#EEEEEE"/>
<rect x="168" y="460.991" width="147" height="280.585" rx="16" transform="rotate(-75 168 460.991)" fill="#AEF4E7"/>
<rect x="141" y="481.991" width="147" height="280.585" rx="16" transform="rotate(-75 141 481.991)" fill="#AAD0FF"/>
<path d="M191.5 483.5C141.333 480 41.3 452.5 42.5 370.5C44 268 478 362.5 472.5 246C468.1 152.8 211.333 156.833 83.5 170.5" stroke="#81B8F5" stroke-width="2" stroke-linecap="round" stroke-dasharray="20 20"/>
<path d="M159.219 371.817L164.659 351.515C165.802 347.247 170.189 344.714 174.457 345.858L257.061 367.991C260.042 368.79 262.297 371.232 262.858 374.266L267.777 400.905L473.607 456.057C477.875 457.2 480.408 461.587 479.264 465.855L431.905 642.601C430.761 646.869 426.375 649.402 422.107 648.258L115.446 566.089C111.178 564.945 108.646 560.559 109.789 556.291L159.219 371.817Z" fill="#00408F"/>
<path d="M155.094 387.209L159.933 369.152C161.076 364.884 165.463 362.351 169.731 363.495L252.513 385.676C255.401 386.45 257.616 388.77 258.257 391.69L263.653 416.297L469.483 471.449C473.75 472.593 476.283 476.979 475.14 481.247L431.905 642.601C430.761 646.869 426.375 649.402 422.107 648.258L115.446 566.089C111.178 564.945 108.646 560.558 109.789 556.291L155.094 387.209Z" fill="#0058C3"/>
<path d="M150.97 402.601L155.207 386.789C156.35 382.521 160.737 379.989 165.005 381.132L247.987 403.367C250.769 404.113 252.936 406.296 253.659 409.084L259.528 431.69L465.358 486.842C469.626 487.985 472.159 492.372 471.015 496.64L431.905 642.601C430.761 646.869 426.375 649.401 422.107 648.258L115.446 566.088C111.178 564.945 108.645 560.558 109.789 556.29L150.97 402.601Z" fill="#217CEB"/>
<path d="M428.117 605.352L422.025 628.089C420.881 632.357 416.494 634.889 412.227 633.746L383.076 625.935" stroke="white" stroke-width="2" stroke-linecap="round"/>
<path d="M90.1323 189.293C81.7664 180.719 85.4428 166.33 96.8962 162.821L171.812 139.864C183.751 136.205 195.093 147.024 192.001 159.123L171.807 238.16C168.715 250.258 153.574 254.31 144.853 245.373L90.1323 189.293Z" fill="#EEEEEE"/>
<path d="M174.43 185.567C174.852 184.651 175.987 184.202 177.056 184.528V184.528L194.388 190.103C194.723 190.224 195.066 190.331 195.411 190.428C196.327 190.687 197.323 190.525 198.071 189.984C198.812 189.446 199.196 188.603 199.085 187.761C199.004 187.178 198.826 186.609 198.549 186.073C194.825 177.531 191.1 168.999 187.386 160.469C187.386 160.469 187.387 160.468 187.387 160.469V160.469C187.387 160.469 187.388 160.469 187.388 160.468C186.919 159.487 186.816 158.399 187.08 157.36C190.307 144.067 193.496 130.762 196.647 117.445C196.648 117.443 196.65 117.441 196.652 117.439V117.439C196.654 117.438 196.655 117.436 196.656 117.434C196.821 116.869 196.914 116.286 196.939 115.702C196.96 114.997 196.61 114.315 195.998 113.866C195.376 113.415 194.564 113.242 193.785 113.395C186.972 114.456 180.159 115.568 173.303 116.507C150.426 119.846 127.551 123.175 104.678 126.483L67.3494 131.882C65.9919 131.913 64.7376 132.505 63.9399 133.483C63.409 134.016 63.1545 134.721 63.2271 135.422C63.3042 136.129 63.7081 136.779 64.3419 137.206C66.2694 138.894 68.2483 140.535 70.1803 142.229C95.6153 163.842 121.058 185.452 146.524 207.055C149.699 209.763 152.96 212.316 156.037 215.178C156.039 215.18 156.041 215.18 156.043 215.179V215.179C156.045 215.178 156.048 215.178 156.049 215.18C156.889 216.122 158.252 216.562 159.576 216.308C160.894 216.058 161.936 215.16 162.27 213.992C166.184 204.553 170.289 195.174 174.336 185.769L174.43 185.567ZM182.75 152.899C182.273 154.891 180.108 156.111 177.871 155.648L93.9371 138.282C89.7648 137.419 89.6928 133.538 93.8495 132.915C119.392 129.086 170.734 121.715 186.28 119.665C188.73 119.342 190.376 121.026 189.854 123.206L182.75 152.899ZM78.8521 142.909C78.7597 142.83 78.7379 142.706 78.7997 142.611V142.611C78.8613 142.517 78.9893 142.476 79.1075 142.514L169.879 171.58C172.187 172.319 173.408 174.638 172.546 176.645L160.305 205.152C159.256 207.597 155.774 208.228 153.582 206.371C128.529 185.147 103.704 164.022 78.8521 142.909ZM189.279 177.765C189.305 177.826 189.282 177.893 189.224 177.927V177.927C189.168 177.961 189.092 177.955 189.038 177.914C188.709 177.662 188.37 177.428 188.086 177.17C186.135 175.4 184.194 173.668 182.297 171.866C180.692 170.333 179.144 168.722 176.533 168.644C176.529 168.644 176.526 168.644 176.522 168.643V168.643C176.518 168.643 176.514 168.642 176.51 168.642C176.454 168.641 176.395 168.626 176.343 168.607L107.297 146.473V146.473C106.978 146.369 107.067 145.98 107.401 146.017C107.838 146.065 108.271 146.147 108.694 146.263L143.519 153.442C155.846 155.998 168.17 158.538 180.49 161.071C181.619 161.202 182.55 161.919 182.852 162.898C184.094 165.982 185.438 169.022 186.803 172.05C187.623 173.957 188.458 175.858 189.279 177.765ZM185.844 181.961C185.848 181.962 185.851 181.966 185.849 181.97L185.752 182.145C185.716 182.211 185.63 182.241 185.551 182.215L178.976 180.08C177.955 179.749 177.421 178.72 177.808 177.833V177.833C178.285 176.742 179.854 176.482 180.803 177.344C182.537 178.921 184.184 180.45 185.84 181.959C185.841 181.96 185.843 181.961 185.844 181.961V181.961Z" fill="#999CA4"/>
<path d="M138 211L151.534 223.761C153.5 225.614 156.699 225.027 157.878 222.596L163.5 211" stroke="#81B8F5" stroke-width="2" stroke-linecap="round"/>
<defs>
<linearGradient id="paint0_linear_2125_2211" x1="276" y1="124" x2="276" y2="628" gradientUnits="userSpaceOnUse">
<stop stop-color="#CEE7FF"/>
<stop offset="1" stop-color="#EAF5FF"/>
</linearGradient>
</defs>
</svg>
