<svg width="595" height="748" viewBox="0 0 595 748" fill="none" xmlns="http://www.w3.org/2000/svg">
<g clip-path="url(#clip0_2125_2169)">
<rect width="595" height="748" fill="white"/>
<path d="M246.5 594.5C129.5 594.5 152.5 498.391 126 481C94 460 54 464.5 53 381.5C52 298.5 84.2645 256.236 129.5 211C187.5 153 310 140.5 368 211C426 281.5 504 274 527.5 352C551 430 496.5 516.5 417.5 520C338.5 523.5 322.5 594.5 246.5 594.5Z" fill="#ACD5FF" fill-opacity="0.25"/>
<path d="M23.3707 434.984C73.1969 355.584 9.55352 288.17 61.0197 214.243C112.486 140.317 327.747 121.932 415.49 181.573C503.234 241.213 525.72 303.463 542.538 380.499C564.103 479.273 494.26 607.56 381.029 612.493C267.799 617.425 222.846 698.774 125.111 664.671C27.3755 630.568 -26.4555 514.385 23.3707 434.984Z" fill="#ACD5FF" fill-opacity="0.25"/>
<path d="M262.386 45.0406C350.394 92.2689 417.458 19.74 499.766 69.1073C582.074 118.475 617.178 345.979 560.119 443.565C503.06 541.152 438.511 569.555 357.834 593.002C254.391 623.066 112.967 558.093 99.539 438.08C86.1106 318.067 -3.6169 276.16 25.5719 169.798C54.7606 63.4354 174.377 -2.18771 262.386 45.0406Z" fill="#ACD5FF" fill-opacity="0.25"/>
<rect x="336" y="485" width="190" height="118" rx="16" fill="#999CA4" fill-opacity="0.5"/>
<mask id="path-5-inside-1_2125_2169" fill="white">
<path fill-rule="evenodd" clip-rule="evenodd" d="M208.159 237.697C211.479 196.996 245.563 165 287.119 165C308.936 165 328.692 173.818 343.02 188.085C349.132 187.295 355.508 187.763 361.786 189.682C382.577 196.038 395.362 216.183 393.177 237.025C421.337 239.385 443.456 262.989 443.456 291.76C443.456 322.097 418.864 346.689 388.527 346.689H217.929C187.593 346.689 163 322.097 163 291.76C163 264.758 182.484 242.306 208.159 237.697Z"/>
</mask>
<path fill-rule="evenodd" clip-rule="evenodd" d="M208.159 237.697C211.479 196.996 245.563 165 287.119 165C308.936 165 328.692 173.818 343.02 188.085C349.132 187.295 355.508 187.763 361.786 189.682C382.577 196.038 395.362 216.183 393.177 237.025C421.337 239.385 443.456 262.989 443.456 291.76C443.456 322.097 418.864 346.689 388.527 346.689H217.929C187.593 346.689 163 322.097 163 291.76C163 264.758 182.484 242.306 208.159 237.697Z" fill="#81B8F5"/>
<path d="M208.159 237.697L209.043 242.618L212.83 241.938L213.143 238.103L208.159 237.697ZM343.02 188.085L339.492 191.628L341.229 193.358L343.661 193.043L343.02 188.085ZM361.786 189.682L363.247 184.901V184.901L361.786 189.682ZM393.177 237.025L388.204 236.503L387.672 241.581L392.759 242.007L393.177 237.025ZM213.143 238.103C216.253 199.976 248.188 170 287.119 170V160C242.937 160 206.705 194.016 203.176 237.29L213.143 238.103ZM287.119 170C307.56 170 326.063 178.256 339.492 191.628L346.548 184.542C331.322 169.38 310.311 160 287.119 160V170ZM343.661 193.043C349.082 192.343 354.74 192.757 360.324 194.464L363.247 184.901C356.276 182.769 349.183 182.246 342.379 183.126L343.661 193.043ZM360.324 194.464C378.784 200.107 390.144 217.996 388.204 236.503L398.15 237.546C400.579 214.369 386.371 191.969 363.247 184.901L360.324 194.464ZM392.759 242.007C418.351 244.152 438.456 265.611 438.456 291.76H448.456C448.456 260.368 424.324 234.618 393.595 232.042L392.759 242.007ZM438.456 291.76C438.456 319.335 416.102 341.689 388.527 341.689V351.689C421.625 351.689 448.456 324.858 448.456 291.76H438.456ZM388.527 341.689H217.929V351.689H388.527V341.689ZM217.929 341.689C190.354 341.689 168 319.335 168 291.76H158C158 324.858 184.831 351.689 217.929 351.689V341.689ZM168 291.76C168 267.221 185.708 246.807 209.043 242.618L207.276 232.776C179.26 237.805 158 262.295 158 291.76H168Z" fill="#81B8F5" mask="url(#path-5-inside-1_2125_2169)"/>
<path d="M506.896 301.481V292C506.896 287.582 503.314 284 498.896 284H452.566C449.48 284 446.67 285.775 445.343 288.561L439.19 301.481H314C309.582 301.481 306 305.063 306 309.481V413.353C306 417.771 309.582 421.353 314 421.353H498.896C503.314 421.353 506.896 417.771 506.896 413.353V301.481Z" fill="#00408F"/>
<path d="M506.896 311.081V303C506.896 298.582 503.314 295 498.896 295H452.382C449.392 295 446.652 296.667 445.277 299.322L439.19 311.081H314C309.582 311.081 306 314.663 306 319.081V413.353C306 417.771 309.582 421.353 314 421.353H498.896C503.314 421.353 506.896 417.771 506.896 413.353V311.081Z" fill="#0058C3"/>
<path d="M506.896 320.681V314C506.896 309.582 503.314 306 498.896 306H452.175C449.295 306 446.637 307.548 445.216 310.054L439.19 320.681H314C309.582 320.681 306 324.263 306 328.681V413.353C306 417.771 309.582 421.353 314 421.353H498.896C503.314 421.353 506.896 417.771 506.896 413.353V320.681Z" fill="#217CEB"/>
<path d="M46 414.481V405C46 400.582 49.5817 397 54 397H100.329C103.415 397 106.226 398.775 107.552 401.561L113.705 414.481H238.895C243.314 414.481 246.895 418.063 246.895 422.481V526.353C246.895 530.771 243.314 534.353 238.895 534.353H54C49.5817 534.353 46 530.771 46 526.353V414.481Z" fill="#00408F"/>
<path d="M46 424.081V416C46 411.582 49.5817 408 54 408H100.514C103.503 408 106.244 409.667 107.618 412.322L113.705 424.081H238.896C243.314 424.081 246.896 427.663 246.896 432.081V526.353C246.896 530.771 243.314 534.353 238.896 534.353H54C49.5817 534.353 46 530.771 46 526.353V424.081Z" fill="#0058C3"/>
<path d="M46 433.681V427C46 422.582 49.5817 419 54 419H100.72C103.601 419 106.259 420.548 107.679 423.054L113.705 433.681H238.896C243.314 433.681 246.896 437.263 246.896 441.681V526.353C246.896 530.771 243.314 534.353 238.896 534.353H54C49.5817 534.353 46 530.771 46 526.353V433.681Z" fill="#217CEB"/>
<rect x="139" y="386.106" width="147" height="197" rx="16" transform="rotate(-30.7257 139 386.106)" fill="#217CEB"/>
<rect x="126" y="381.106" width="147" height="197" rx="16" transform="rotate(-30.7257 126 381.106)" fill="#AAD0FF"/>
<rect x="287" y="372" width="147" height="197" rx="16" fill="#11D4B1" fill-opacity="0.5"/>
<rect x="280" y="363" width="147" height="197" rx="16" fill="#AEF4E7"/>
<rect x="326" y="475" width="190" height="118" rx="16" fill="#EEEEEE"/>
<rect x="340" y="491" width="49" height="49" rx="8" fill="#CCCDD1"/>
<path d="M400 495.5H490" stroke="#999CA4" stroke-width="5" stroke-linecap="round"/>
<path d="M400 506.5H490" stroke="#CCCDD1" stroke-width="3" stroke-linecap="round"/>
<path d="M400 514.5H490" stroke="#CCCDD1" stroke-width="3" stroke-linecap="round"/>
<path d="M299 386H404" stroke="#5ABFAE" stroke-width="5" stroke-linecap="round"/>
<path d="M299 397H404" stroke="#6CDCC9" stroke-width="3" stroke-linecap="round"/>
<path d="M299 405H404" stroke="#6CDCC9" stroke-width="3" stroke-linecap="round"/>
<path d="M154.599 391.6L246.593 340.983" stroke="#217CEB" stroke-width="5" stroke-linecap="round"/>
<path d="M159.902 401.237L251.896 350.62" stroke="#217CEB" stroke-width="3" stroke-linecap="round"/>
<path d="M163.758 408.246L255.752 357.629" stroke="#217CEB" stroke-width="3" stroke-linecap="round"/>
<path d="M256 269V275C256 281.627 261.373 287 268 287H326C332.627 287 338 281.627 338 275V269" stroke="white" stroke-width="5" stroke-linecap="round"/>
<path d="M294.5 275C294.5 276.381 295.619 277.5 297 277.5C298.381 277.5 299.5 276.381 299.5 275L294.5 275ZM298.768 219.232C297.791 218.256 296.209 218.256 295.232 219.232L279.322 235.142C278.346 236.118 278.346 237.701 279.322 238.678C280.299 239.654 281.882 239.654 282.858 238.678L297 224.536L311.142 238.678C312.118 239.654 313.701 239.654 314.678 238.678C315.654 237.701 315.654 236.118 314.678 235.142L298.768 219.232ZM299.5 275L299.5 221L294.5 221L294.5 275L299.5 275Z" fill="white"/>
<path d="M500 399V407C500 411.418 496.418 415 492 415H483" stroke="white" stroke-width="2" stroke-linecap="round"/>
<path d="M52 445V434C52 429.582 55.5817 426 60 426H75" stroke="white" stroke-width="2" stroke-linecap="round"/>
</g>
<defs>
<clipPath id="clip0_2125_2169">
<rect width="595" height="748" fill="white"/>
</clipPath>
</defs>
</svg>
